<svg width="376" height="341" viewBox="0 0 376 341" fill="none" xmlns="http://www.w3.org/2000/svg">
<path d="M70.512 51.7335C69.5755 51.9253 68.597 52.121 67.55 52.2594L61.9767 27.4057C59.9038 28.1679 58.4128 29.5337 57.5231 31.48C56.6335 33.4263 56.4418 35.6053 57.0131 38.0322C57.3961 39.7558 58.1007 41.2805 59.1689 42.6023C60.2371 43.9241 61.5209 44.8023 63.0203 45.2369C62.6759 46.3916 61.9983 48.827 60.9873 52.5433C58.0379 51.7542 55.5882 50.1353 53.6382 47.6865C51.7303 45.2339 50.4006 42.368 49.6529 39.1308C48.5825 34.3764 49.2828 30.0106 51.7538 26.0334C54.2247 22.0561 57.9622 19.4885 63.0082 18.3265C68.0541 17.1645 72.4973 17.8378 76.3413 20.3884C80.1853 22.939 82.6425 26.5915 83.7129 31.3459C84.7833 36.1003 84.0986 40.4011 81.6815 44.2675C79.2607 48.0918 75.5388 50.5945 70.512 51.7335ZM67.7646 26.0062L71.5124 42.7842C73.6429 41.9532 75.1183 40.6524 76.0034 38.8972C76.8657 37.123 77.0757 35.1542 76.5949 33.0369C76.0994 30.7514 75.033 28.9633 73.4604 27.6877C71.8879 26.4122 69.9765 25.867 67.7646 26.0062Z" fill="#F7F0E7"/>
<path d="M56.5089 63.1463L106.007 48.2668L108.473 56.6439L58.9749 71.5234L56.5089 63.1463Z" fill="#F7F0E7"/>
<path d="M78.422 121.932L82.3359 120.174C80.4921 119.92 78.7616 119.019 77.1287 117.537C75.5151 116.032 74.318 114.447 73.5568 112.758C71.6897 108.585 71.5266 104.277 73.0903 99.8531C74.654 95.4293 77.7792 92.155 82.466 90.03C87.172 87.8821 91.668 87.7029 95.9925 89.4466C100.317 91.1903 103.415 94.1695 105.305 98.3614C106.066 100.05 106.486 101.961 106.589 104.113C106.669 106.246 106.199 108.154 105.119 109.863L108.911 108.16L112.486 116.138L81.9816 129.976L78.422 121.932ZM93.2059 98.0722C90.918 97.0954 88.5499 97.143 86.1663 98.2303C83.7827 99.3177 82.1758 101.054 81.3647 103.417C80.5765 105.799 80.6708 108.1 81.6935 110.359C82.7161 112.617 84.3407 114.248 86.5637 115.21C88.8096 116.19 91.1741 116.101 93.661 114.983C96.1862 113.819 97.8159 112.101 98.5429 109.746C99.2699 107.391 99.1372 105.136 98.1374 102.896C97.1797 100.653 95.513 99.0261 93.2059 98.0722Z" fill="#F7F0E7"/>
<path d="M131.02 158.493C129.816 156.824 128.295 155.904 126.478 155.71C124.661 155.516 122.722 156.118 120.711 157.595L106.269 168.095L101.162 161.019L116.084 150.179C117.873 148.828 118.967 147.287 119.329 145.601C119.69 143.915 119.364 142.356 118.349 140.923C117.172 139.314 115.686 138.306 113.858 137.987C112.049 137.644 110.049 138.272 107.896 139.826L93.4535 150.326L88.3473 143.25L115.482 123.555L120.589 130.631L116.563 133.543C118.582 133.125 120.513 133.414 122.331 134.349C124.15 135.284 125.612 136.506 126.717 138.015C129.607 142.497 130.007 146.614 127.916 150.323C132.719 149.777 136.459 151.383 139.18 155.139C141.565 158.459 142.385 161.795 141.616 165.129C140.847 168.463 138.491 171.561 134.527 174.446L119.027 185.699L113.947 178.685L128.711 167.986C130.603 166.605 131.74 165.06 132.121 163.351C132.479 161.623 132.126 160.002 131.02 158.493Z" fill="#F7F0E7"/>
<path d="M155.151 210.633C150.505 211.038 146.282 209.73 142.501 206.686C138.72 203.643 136.542 199.795 135.968 195.143C135.394 190.492 136.754 186.171 140.005 182.144C143.255 178.116 147.194 175.912 151.82 175.53C156.447 175.148 160.651 176.479 164.413 179.545C168.194 182.589 170.371 186.437 170.984 191.043C171.574 195.629 170.255 199.946 167.005 203.973C163.754 208.001 159.816 210.205 155.151 210.633ZM144.592 194.204C144.858 196.532 145.939 198.488 147.873 200.027C149.788 201.589 151.921 202.241 154.274 202.026C156.605 201.791 158.622 200.631 160.307 198.569C161.934 196.577 162.592 194.397 162.348 192.089C162.082 189.761 160.963 187.851 159.047 186.289C157.132 184.727 155 184.075 152.665 184.267C150.354 184.479 148.375 185.593 146.748 187.586C145.064 189.647 144.345 191.854 144.592 194.204Z" fill="#F7F0E7"/>
<path d="M179.593 216.953L173.688 227.221L166.131 222.892L182.833 193.813L190.39 198.142L186.453 204.987C188.58 202.906 190.758 201.647 192.971 201.274C195.161 200.883 197.158 201.187 198.941 202.21C200.812 203.268 202.194 204.54 203.105 206.003L197.876 212.119C196.987 210.908 195.681 209.777 193.943 208.793C189.126 206.013 184.322 208.742 179.593 216.953Z" fill="#F7F0E7"/>
<path d="M215.926 247.208L214.529 210.952L223.24 214.18L223.455 238.063L239.328 220.142L248.103 223.385L223.169 249.871L215.926 247.208Z" fill="#F7F0E7"/>
<path d="M254.86 215.349C254.089 214.042 253.911 212.724 254.314 211.267C254.717 209.81 255.603 208.797 256.965 208.142C258.327 207.487 259.737 207.379 261.19 207.776C262.667 208.191 263.756 209.024 264.523 210.288C265.289 211.553 265.449 212.895 265.042 214.309C264.636 215.724 263.776 216.799 262.46 217.492C261.143 218.184 259.756 218.312 258.28 217.896C256.784 217.503 255.649 216.633 254.86 215.349ZM260.298 226.484L251.005 258.676L242.665 256.305L251.958 224.112L260.298 226.484Z" fill="#F7F0E7"/>
<path d="M286.189 266.723L287.072 262.51C285.768 263.837 284.046 264.737 281.883 265.19C279.738 265.619 277.729 265.655 275.917 265.271C271.432 264.368 267.855 261.962 265.192 258.138C262.529 254.314 261.718 249.853 262.761 244.799C263.803 239.745 266.312 235.955 270.27 233.494C274.206 231.015 278.46 230.243 282.986 231.142C284.818 231.504 286.603 232.294 288.397 233.443C290.173 234.615 291.427 236.132 292.161 237.993L293.013 233.91L301.573 235.646L294.745 268.418L286.189 266.723ZM275.609 240.803C273.476 242.1 272.14 244.024 271.58 246.597C271.043 249.189 271.497 251.478 272.963 253.484C274.411 255.513 276.342 256.777 278.8 257.272C281.216 257.771 283.513 257.391 285.607 256.139C287.701 254.888 289.056 252.941 289.605 250.242C290.173 247.52 289.716 245.188 288.253 243.225C286.79 241.261 284.862 240.039 282.469 239.559C280.038 239.125 277.741 239.506 275.609 240.803Z" fill="#F7F0E7"/>
<path d="M310.266 223.576C310.459 222.138 311.166 221.014 312.403 220.138C313.64 219.261 315.008 218.924 316.509 219.126C318.074 219.342 319.316 219.991 320.244 221.156C321.168 222.279 321.537 223.602 321.325 225.062C321.113 226.523 320.41 227.689 319.215 228.561C318.02 229.434 316.629 229.752 315.067 229.577C313.567 229.376 312.321 228.685 311.374 227.543C310.424 226.358 310.077 225.055 310.266 223.576ZM293.761 285.1L294.869 277.137L299.049 277.707C302.412 278.14 304.325 276.27 304.811 272.114L309.705 236.596L318.428 237.766L313.542 273.136C312.214 282.709 307.455 286.917 299.228 285.849L293.761 285.1Z" fill="#F7F0E7"/>
<path d="M349.566 274.05L349.85 269.765C348.752 271.264 347.155 272.385 345.059 273.128C342.982 273.848 341.018 274.156 339.143 274.031C334.584 273.728 330.715 271.858 327.558 268.439C324.42 264.998 323.008 260.698 323.344 255.561C323.7 250.4 325.675 246.32 329.25 243.343C332.844 240.344 336.92 238.995 341.544 239.313C343.396 239.419 345.285 239.945 347.206 240.849C349.128 241.754 350.578 243.083 351.557 244.837L351.832 240.701L360.584 241.233L358.28 274.628L349.566 274.05ZM335.554 249.822C333.615 251.398 332.526 253.49 332.352 256.112C332.178 258.735 332.922 260.955 334.668 262.765C336.372 264.58 338.469 265.553 340.962 265.727C343.433 265.882 345.639 265.192 347.562 263.681C349.485 262.17 350.529 260.04 350.738 257.329C350.92 254.558 350.172 252.296 348.433 250.569C346.714 248.82 344.64 247.866 342.211 247.707C339.721 247.575 337.515 248.265 335.554 249.822Z" fill="#F7F0E7"/>
</svg>
