<!-- Generator: Adobe Illustrator 24.1.2, SVG Export Plug-In  -->
<svg version="1.1" xmlns="http://www.w3.org/2000/svg" xmlns:xlink="http://www.w3.org/1999/xlink" x="0px" y="0px" width="50px"
	 height="49px" viewBox="0 0 50 49" style="overflow:visible;enable-background:new 0 0 50 49;" xml:space="preserve">
<style type="text/css">
	.st0{fill:#6A5646;}
</style>
<defs>
</defs>
<path class="st0" d="M0,49c0-4.9,1.9-9.6,5.3-13.1c3.4-3.5,8-5.4,12.9-5.4s9.4,1.9,12.9,5.4c3.4,3.5,5.3,8.2,5.3,13.1h-4.5
	c0-3.7-1.4-7.2-4-9.8c-2.6-2.6-6-4.1-9.6-4.1s-7.1,1.5-9.6,4.1c-2.6,2.6-4,6.1-4,9.8H0z M18.2,28.2c-7.5,0-13.6-6.2-13.6-13.9
	c0-7.7,6.1-13.9,13.6-13.9s13.6,6.2,13.6,13.9C31.8,22,25.7,28.2,18.2,28.2z M18.2,23.6c5,0,9.1-4.1,9.1-9.2c0-5.1-4.1-9.2-9.1-9.2
	s-9.1,4.1-9.1,9.2C9.1,19.5,13.2,23.6,18.2,23.6z M46.7,0C48.9,4.5,50,9.4,50,14.4c0,5.2-1.2,10-3.3,14.4L43,26
	c1.6-3.6,2.5-7.6,2.5-11.6c0-4.1-0.9-8.1-2.5-11.6L46.7,0z M39.2,5.5c1.1,2.8,1.7,5.8,1.7,8.8c0,3-0.6,6-1.7,8.8l-3.8-2.8
	c0.7-1.9,1-4,1-6c0-2-0.3-4.1-1-6L39.2,5.5z"/>
</svg>
