<svg width="49" height="83" viewBox="0 0 49 83" fill="none" xmlns="http://www.w3.org/2000/svg">
<path d="M24.0486 58.7022H22.5942C22.2135 58.7022 21.8524 58.5167 21.6376 58.1946L2.6233 30.6102C2.59402 30.5614 2.56474 30.5126 2.53545 30.4637C0.915135 27.6038 0.0952148 24.5291 0.0952148 21.3275C0.0952148 9.89741 10.842 0.595215 24.0486 0.595215C37.2552 0.595215 48.002 9.89741 48.002 21.3275C48.002 24.5291 47.1821 27.6038 45.552 30.4637C45.5227 30.5126 45.5032 30.5614 45.4641 30.6102L26.4596 58.1946C26.2448 58.507 25.8837 58.6924 25.503 58.7022H24.0486ZM23.1994 56.3791H24.0486H24.888L43.5022 29.351C44.9371 26.8327 45.6691 24.1386 45.6691 21.3275C45.6691 11.1761 35.9667 2.91832 24.0388 2.91832C12.111 2.91832 2.41832 11.1761 2.41832 21.3275C2.41832 24.1386 3.15039 26.8327 4.58526 29.351L23.1994 56.3791Z" fill="white"/>
<path d="M25.1224 58.7022H22.9554C22.4186 58.7022 21.95 58.3313 21.8232 57.8139L11.7498 16.0663C11.7401 16.0273 11.7303 15.998 11.7303 15.959C11.5253 15.0512 11.4277 14.1239 11.4277 13.2064C11.4277 6.25657 17.0891 0.595215 24.0487 0.595215C31.0082 0.595215 36.6696 6.25657 36.6696 13.2161C36.6696 14.1337 36.5622 15.061 36.367 15.9687C36.3572 16.0078 36.3572 16.037 36.3475 16.0761L26.2546 57.8139C26.1277 58.3313 25.6592 58.7022 25.1224 58.7022ZM23.8827 56.3791H24.2146L34.0634 15.6173C34.0634 15.588 34.0732 15.5685 34.0829 15.5392C34.2586 14.7681 34.3465 13.9872 34.3465 13.2161C34.3465 7.54502 29.7295 2.92808 24.0584 2.92808C18.3873 2.92808 13.7508 7.53526 13.7508 13.2161C13.7508 13.9872 13.8387 14.7681 14.0144 15.5392C14.0241 15.5685 14.0241 15.588 14.0339 15.6173L23.8827 56.3791Z" fill="white"/>
<path d="M24.6148 40.1367C15.4786 40.1367 8.57759 37.9991 8.14811 37.8624C7.53317 37.6672 7.20129 37.0132 7.38675 36.4081C7.58197 35.7931 8.23596 35.4612 8.84113 35.6467C8.99731 35.6955 24.3415 40.4296 39.227 35.6467C39.8322 35.4515 40.4959 35.7834 40.6911 36.3983C40.8864 37.0132 40.5545 37.6672 39.9395 37.8624C34.6393 39.5609 29.3294 40.1367 24.6148 40.1367Z" fill="white"/>
<path d="M36.9819 59.3463C33.6241 55.9983 28.1775 55.9983 24.8197 59.3463L24.0389 60.1272L23.258 59.3463C19.91 55.9886 14.4536 55.9886 11.0958 59.3463C7.81615 62.626 7.78686 67.8384 11.047 71.4597C14.0144 74.7589 22.7797 81.8941 23.1506 82.1967C23.4044 82.4017 23.707 82.4993 24.0096 82.4993C24.0193 82.4993 24.0291 82.4993 24.0389 82.4993C24.3512 82.5091 24.6636 82.4115 24.9271 82.1967C25.298 81.8941 34.0634 74.7686 37.0307 71.4597C40.2909 67.8286 40.2713 62.626 36.9819 59.3463ZM35.0102 69.6344C32.6968 72.2113 26.3327 77.5115 24.0486 79.3953C21.7646 77.5115 15.4004 72.2113 13.0871 69.6344C10.8128 67.1063 10.7932 63.5143 13.0383 61.2692C14.1803 60.1272 15.6932 59.5513 17.1964 59.5513C18.6996 59.5513 20.2028 60.1272 21.3546 61.2692L23.0628 62.9774C23.2677 63.1824 23.5215 63.2995 23.7948 63.3483C24.2341 63.4459 24.7026 63.319 25.0442 62.9774L26.7524 61.2692C29.0462 58.9754 32.7749 58.9754 35.059 61.2692C37.304 63.5143 37.2845 67.1063 35.0102 69.6344Z" fill="white"/>
<path d="M24.9945 60.994C26.2606 60.4723 26.864 59.023 26.3423 57.757C25.8206 56.491 24.3714 55.8876 23.1053 56.4093C21.8393 56.931 21.2359 58.3802 21.7576 59.6462C22.2793 60.9123 23.7285 61.5157 24.9945 60.994Z" fill="white"/>
</svg>
