<svg width="48" height="88" viewBox="0 0 48 88" fill="none" xmlns="http://www.w3.org/2000/svg">
<path d="M24 0C37.2326 0 48 9.32087 48 20.7776C48 23.9864 47.1749 27.0662 45.5484 29.932C45.5246 29.983 45.4941 30.0305 45.4635 30.0781L26.5331 57.5585H30.7504V55.9863C30.7504 55.4668 31.1715 55.0492 31.6876 55.0492H35.3345C35.854 55.0492 36.2717 55.4702 36.2717 55.9863V57.5585H39.0628C39.5824 57.5585 40 57.9795 40 58.4957V86.1255C40 86.6451 39.579 87.0627 39.0628 87.0627H15.3141C15.1138 87.0559 14.8523 86.9982 14.6486 86.7877L8.2717 80.3802C8.25812 80.3666 8.26151 80.37 8.20379 80.3021C8.09513 80.1561 8.00005 79.9795 8.00005 79.7181V58.4957C8.00005 57.9762 8.4211 57.5585 8.93723 57.5585H11.7216V55.9863C11.7216 55.4668 12.1427 55.0492 12.6588 55.0492H16.3022C16.8184 55.0492 17.2394 55.4702 17.2394 55.9863V57.5585H21.4669L2.53656 30.0781C2.506 30.0305 2.47544 29.983 2.45167 29.932C0.825191 27.0662 6.48499e-05 23.9864 6.48499e-05 20.7776C6.48499e-05 9.32087 10.7675 0 24 0ZM24 2.32937C18.3124 2.32937 13.6876 6.95415 13.6876 12.6417C13.6876 13.4193 13.7759 14.2003 13.9559 14.9711C13.9627 14.9983 13.9661 15.0221 13.9695 15.0492L19.2972 37.1137C22.6995 37.365 25.9117 37.2699 28.7267 37.0152L34.0306 15.0492C34.034 15.0221 34.0408 14.9983 34.0442 14.9711C34.2207 14.2037 34.3124 13.4193 34.3124 12.6417C34.3124 6.95755 29.6876 2.32937 24 2.32937ZM43.5043 28.8149C44.944 26.2954 45.6706 23.5891 45.6706 20.7742C45.6706 13.4499 40.6282 7.10695 33.3413 4.13242C35.3922 6.3803 36.6418 9.36841 36.6418 12.6417C36.6418 13.562 36.5399 14.4889 36.3362 15.399C36.3294 15.4329 36.3226 15.4703 36.3158 15.5042L31.1885 36.7402C35.5925 36.1663 38.6078 35.3039 39.1409 35.1443L43.5043 28.8149ZM37.1206 38.078C35.5043 38.4482 33.2666 38.8828 30.5943 39.1952L27.4873 52.0611L37.1206 38.078ZM34.3939 56.9235H32.6248V60.7775H34.3939V56.9235ZM14.523 84.0033L14.7878 80.241L11.0459 80.5092L14.523 84.0033ZM9.87441 78.7096L14.8354 78.3564C15.3311 78.3191 15.8201 78.5024 16.1732 78.8556C16.5264 79.2087 16.7063 79.6943 16.6724 80.1934L16.3192 85.1883H38.1256V66.6553H9.87781V78.7096H9.87441ZM15.3651 56.9235H13.596V60.7775H15.3651V56.9235ZM17.2394 59.4329V61.7147C17.2394 61.8641 17.2021 62.0033 17.141 62.129C16.9882 62.438 16.6724 62.6519 16.3022 62.6519H12.6588C12.1393 62.6519 11.7216 62.2308 11.7216 61.7147V59.4329H9.87781V64.7809H38.1256V59.4329H36.2717V61.7147C36.2717 62.2342 35.8506 62.6519 35.3345 62.6519H31.691C31.3277 62.6519 31.0187 62.4447 30.8625 62.1425C30.7946 62.0135 30.7538 61.8675 30.7538 61.7147V59.4329H26.1732H21.8303H17.2394ZM23.7997 55.752C23.8676 55.7453 23.9321 55.7419 24 55.7419C24.0679 55.7419 24.1359 55.7453 24.2004 55.752L28.1426 39.4329C26.6588 39.5483 25.0798 39.6196 23.4262 39.6196C22.2751 39.6196 21.09 39.5857 19.8744 39.5076L23.7997 55.752ZM20.5128 52.0611L17.4296 39.2971C15.3107 39.0662 13.1308 38.6994 10.9304 38.1528L20.5128 52.0611ZM4.49582 28.8149L8.85913 35.1477C11.5382 36 14.2275 36.5466 16.8421 36.8726L11.6843 15.5076C11.6775 15.4737 11.6707 15.4363 11.6639 15.4024C11.4601 14.4923 11.3583 13.5653 11.3583 12.6451C11.3583 9.3718 12.6113 6.38369 14.6588 4.13582C7.37187 7.11035 2.32943 13.4533 2.32943 20.7776C2.32943 23.5891 3.05948 26.2954 4.49582 28.8149Z" fill="white"/>
</svg>
