<svg width="50" height="84" viewBox="0 0 50 84" fill="none" xmlns="http://www.w3.org/2000/svg">
<path d="M24.9049 60.6458H23.4238C23.0383 60.6458 22.6731 60.4495 22.4499 60.1292L3.18568 31.6361C3.15524 31.5844 3.12481 31.5328 3.09438 31.4811C1.45098 28.5367 0.619141 25.3651 0.619141 22.0488C0.619141 10.2507 11.5142 0.642822 24.9049 0.642822C38.2955 0.642822 49.1906 10.2507 49.1906 22.0488C49.1906 25.3548 48.3587 28.5264 46.7153 31.4811C46.695 31.5328 46.6646 31.5844 46.6342 31.6257L27.3598 60.1189C27.1366 60.4391 26.7816 60.6354 26.3859 60.6354L24.9049 60.6458ZM24.0426 58.2489H24.9049H25.757L44.6357 30.3447C46.0864 27.7516 46.8269 24.9622 46.8269 22.0592C46.8269 11.5731 36.9868 3.04996 24.8947 3.04996C12.8026 3.04996 2.97264 11.5731 2.97264 22.0488C2.97264 24.9519 3.71319 27.7309 5.16384 30.3344L24.0426 58.2489Z" fill="white"/>
<path d="M26.0006 60.6458H23.8094C23.2616 60.6458 22.795 60.2635 22.6631 59.7263L12.4375 16.625C12.4274 16.594 12.4173 16.5527 12.4173 16.5114C12.2144 15.5712 12.1028 14.6208 12.1028 13.6703C12.1129 6.49022 17.8547 0.642822 24.905 0.642822C31.9554 0.642822 37.6971 6.49022 37.6971 13.6703C37.6971 14.6208 37.5957 15.5712 37.3827 16.5114C37.3725 16.5424 37.3725 16.5837 37.3624 16.6147L27.1469 59.7263C27.0151 60.2635 26.5484 60.6458 26.0006 60.6458ZM24.7326 58.2489H25.0673L35.0494 16.1601C35.0494 16.1291 35.0596 16.1085 35.0697 16.0775C35.2523 15.282 35.3436 14.4761 35.3436 13.6806C35.3436 7.82293 30.6671 3.04996 24.905 3.04996C19.143 3.04996 14.4664 7.81259 14.4664 13.6703C14.4664 14.4658 14.5577 15.282 14.7403 16.0671C14.7505 16.0981 14.7505 16.1188 14.7606 16.1498L24.7326 58.2489Z" fill="white"/>
<path d="M25.4831 41.4712C16.2212 41.4712 9.22157 39.2603 8.78536 39.126C8.16656 38.9297 7.82165 38.2479 8.01439 37.6177C8.20713 36.9875 8.87666 36.6362 9.49547 36.8325C9.64764 36.8842 25.2092 41.7708 40.304 36.8325C40.9229 36.6259 41.5822 36.9771 41.7851 37.6073C41.988 38.2375 41.6431 38.9194 41.0243 39.1157C35.6376 40.8823 30.2611 41.4712 25.4831 41.4712Z" fill="white"/>
<path d="M44.9806 61.9475C44.6154 61.7408 44.1691 61.7615 43.814 61.9888L36.4492 66.8134V64.1273C36.4492 62.2057 34.9174 60.6458 33.0305 60.6458H14.7807C12.8939 60.6458 11.3621 62.2057 11.3621 64.1273V80.3885C11.3621 82.31 12.8939 83.87 14.7807 83.87H33.0305C34.9174 83.87 36.4492 82.31 36.4492 80.3885V77.7024L43.814 82.527C44.3415 82.8782 45.0516 82.7129 45.3864 82.1757C45.5081 81.9898 45.569 81.7728 45.569 81.5455V62.9702C45.5792 62.5467 45.3458 62.1541 44.9806 61.9475ZM34.1768 80.3885C34.1768 81.029 33.6696 81.5455 33.0407 81.5455H14.7807C14.1518 81.5455 13.6446 81.029 13.6446 80.3885V64.1273C13.6446 63.4868 14.1518 62.9702 14.7807 62.9702H33.0305C33.6595 62.9702 34.1667 63.4868 34.1667 64.1273V80.3885H34.1768ZM43.2967 79.4277L36.4492 74.944V69.5718L43.2967 65.0881V79.4277Z" fill="white"/>
</svg>
