<svg width="50" height="83" viewBox="0 0 50 83" fill="none" xmlns="http://www.w3.org/2000/svg">
<path d="M24.7019 59.8472H23.2113C22.8202 59.8472 22.4607 59.6569 22.2387 59.3292L2.84017 31.1775C2.80845 31.1246 2.77674 31.0823 2.7556 31.0295C1.09588 28.1012 0.260742 24.9721 0.260742 21.7055C0.260742 10.0346 11.2233 0.541504 24.7019 0.541504C38.1804 0.541504 49.143 10.0346 49.143 21.7055C49.143 24.9721 48.3079 28.1118 46.6481 31.0295C46.627 31.0823 46.5953 31.1246 46.5636 31.1775L27.165 59.3292C26.943 59.6463 26.5836 59.8472 26.1924 59.8472H24.7019ZM23.8456 57.4686H24.7124H25.5687L44.5656 29.8878C46.035 27.3189 46.775 24.5703 46.775 21.7055C46.775 11.3455 36.8696 2.92007 24.7019 2.92007C12.5342 2.92007 2.62874 11.3455 2.62874 21.7055C2.62874 24.5703 3.36874 27.3295 4.83817 29.8878L23.8456 57.4686Z" fill="white"/>
<path d="M25.8119 59.8472H23.6024C23.0527 59.8472 22.577 59.4772 22.4501 58.938L12.1642 16.3352C12.1536 16.3035 12.1536 16.2612 12.143 16.2295C11.9316 15.2992 11.8364 14.3584 11.8364 13.4175C11.8259 6.32407 17.6084 0.541504 24.7019 0.541504C31.8059 0.541504 37.5779 6.32407 37.5779 13.4175C37.5779 14.3584 37.4721 15.2992 37.2713 16.2295C37.2713 16.2612 37.2607 16.3035 37.2501 16.3352L26.9641 58.938C26.8267 59.4666 26.351 59.8472 25.8119 59.8472ZM24.5327 57.4686H24.871L34.9139 15.8701C34.9139 15.8489 34.9244 15.8172 34.9244 15.7961C35.1041 15.0138 35.1993 14.2209 35.1993 13.4281C35.1993 7.63493 30.4844 2.92007 24.6913 2.92007C18.8982 2.92007 14.1833 7.63493 14.1833 13.4281C14.1833 14.2209 14.2784 15.0138 14.4582 15.7961C14.4687 15.8172 14.4687 15.8489 14.4687 15.8701L24.5327 57.4686Z" fill="white"/>
<path d="M25.2831 40.8927C15.9591 40.8927 8.91855 38.715 8.47455 38.5776C7.85084 38.3767 7.50198 37.7107 7.70284 37.087C7.9037 36.4633 8.5697 36.1144 9.19341 36.3153C9.35198 36.3681 25.0083 41.1993 40.21 36.3153C40.8337 36.1144 41.4997 36.4633 41.7005 37.087C41.9014 37.7107 41.5525 38.3767 40.9288 38.5776C35.5057 40.3113 30.0931 40.8927 25.2831 40.8927Z" fill="white"/>
<path d="M11.5406 59.7921C9.57429 59.7921 7.94629 61.4096 7.94629 63.3864V79.3387C7.94629 81.305 9.56372 82.933 11.5406 82.933H37.8634C39.8297 82.933 41.4577 81.3156 41.4577 79.3387V63.3864C41.4577 61.4201 39.8403 59.7921 37.8634 59.7921H11.5406ZM11.8049 62.1918H37.6203L25.442 73.0593C24.9768 73.4716 24.4588 73.4716 23.9937 73.0593L11.8049 62.1918ZM10.346 64.0947L18.5494 71.4102L10.346 79.2858V64.0947ZM39.058 64.0947V79.2752L30.8863 71.3996L39.058 64.0947ZM29.0891 73.0064L36.9014 80.5333H12.5026L20.3466 73.017L22.408 74.8459C23.7188 76.0087 25.738 76.0087 27.0488 74.8459L29.0891 73.0064Z" fill="white"/>
</svg>
