<svg xmlns="http://www.w3.org/2000/svg" viewBox="0 0 206.71 87.6"><defs><style>.cls-1{fill:#4a3f37;}</style></defs><g id="Capa_2" data-name="Capa 2"><g id="Capa_1-2" data-name="Capa 1"><path class="cls-1" d="M206.71,33.12c-18.28-.09-27.44-7-36.34-13.72C162,13.05,154.06,7.06,137.93,7h-.23c-15.95,0-23.91,5.9-32.27,12.15-8.89,6.62-18.05,13.46-36.15,13.46H69c-18.33-.09-27.49-7-36.38-13.72C24.27,12.56,16.36,6.57.22,6.48V0C18.55,0,27.71,7,36.56,13.72,45,20.07,52.87,26.06,69,26.1h.22c16,0,23.91-5.9,32.27-12.16C110.39,7.33,119.56.49,137.66.49h.27c18.28.05,27.48,7,36.33,13.72,8.4,6.35,16.31,12.34,32.45,12.38Z"/><path class="cls-1" d="M206.49,87.6c-18.28,0-27.45-7-36.34-13.72-8.4-6.35-16.31-12.34-32.45-12.38h-.22c-16,0-23.91,5.9-32.27,12.16-8.89,6.61-18.06,13.45-36.16,13.45h-.27c-18.28,0-27.48-7-36.33-13.72C24.05,67,16.13,61.05,0,61l0-6.48c18.28,0,27.49,7,36.34,13.72,8.4,6.34,16.31,12.33,32.45,12.38h.22c16,0,23.91-5.9,32.27-12.16C110.21,61.86,119.38,55,137.48,55h.27c18.28,0,27.44,7,36.33,13.72,8.41,6.35,16.32,12.33,32.45,12.38Z"/><path class="cls-1" d="M206.57,60.38c-18.28,0-27.44-7-36.33-13.72-8.4-6.35-16.31-12.33-32.45-12.38h-.22c-16,0-23.91,5.9-32.27,12.16-8.9,6.61-18.06,13.45-36.16,13.45h-.27c-18.28,0-27.48-7-36.33-13.72C24.13,39.82,16.22,33.83.09,33.74l0-6.48c18.28,0,27.49,7,36.34,13.72,8.4,6.35,16.31,12.34,32.45,12.38h.22c16,0,23.91-5.89,32.27-12.15,8.89-6.62,18.06-13.45,36.16-13.45h.27c18.28,0,27.44,7,36.33,13.72,8.4,6.34,16.32,12.33,32.45,12.38Z"/></g></g></svg>