<!-- Generator: Adobe Illustrator 24.1.2, SVG Export Plug-In  -->
<svg version="1.1" xmlns="http://www.w3.org/2000/svg" xmlns:xlink="http://www.w3.org/1999/xlink" x="0px" y="0px" width="563.1px"
	 height="563.1px" viewBox="0 0 563.1 563.1" style="overflow:visible;enable-background:new 0 0 563.1 563.1;"
	 xml:space="preserve">
<style type="text/css">
	.st0{fill:none;stroke:#DD9887;stroke-width:1.5201;stroke-miterlimit:10;}
	.st1{fill:#DE5050;fill-opacity:0.7;}
</style>
<defs>
</defs>
<path class="st0" d="M78.4,254.3c-3,2.5-4.4,6.4-4.4,6.4"/>
<path class="st0" d="M71.5,266.3c3.9,0.2,5-1.2,5-1.2"/>
<path class="st1" d="M480.6,82.5C427.4,29.3,356.7,0,281.5,0C206.3,0,135.6,29.3,82.5,82.5C29.3,135.6,0,206.3,0,281.5
	s29.3,145.9,82.5,199.1c53.2,53.2,123.9,82.5,199.1,82.5s145.9-29.3,199.1-82.5c53.2-53.2,82.5-123.9,82.5-199.1
	C563,206.3,533.8,135.6,480.6,82.5z M409,409c-34.1,34.1-79.3,52.8-127.5,52.8S188.1,443.1,154,409s-52.8-79.3-52.8-127.5
	S119.9,188.1,154,154s79.3-52.8,127.5-52.8S375,119.9,409,154s52.8,79.3,52.8,127.5C461.8,329.7,443.1,375,409,409z"/>
</svg>
