<!-- Generator: Adobe Illustrator 24.1.2, SVG Export Plug-In  -->
<svg version="1.1" xmlns="http://www.w3.org/2000/svg" xmlns:xlink="http://www.w3.org/1999/xlink" x="0px" y="0px" width="69.5px"
	 height="70.3px" viewBox="0 0 69.5 70.3" style="overflow:visible;enable-background:new 0 0 69.5 70.3;" xml:space="preserve">
<style type="text/css">
	.st0{fill:#544A41;}
	.st1{fill:#F4F0ED;}
</style>
<defs>
</defs>
<path class="st0" d="M69.3,28.6c0.4,2-1.5,4.2-1.5,6.1c0,2,2,4.1,1.7,6.1c-0.3,2-2.8,3.4-3.5,5.2c-0.7,1.9,0.4,4.6-0.5,6.3
	c-1,1.7-3.8,2.2-5.1,3.7c-1.3,1.5-1.1,4.4-2.7,5.7c-1.5,1.3-4.3,0.7-6.1,1.8c-1.7,1-2.6,3.8-4.5,4.5c-1.8,0.7-4.3-0.8-6.3-0.4
	c-2,0.4-3.8,2.7-5.7,2.7c-2,0-3.8-2.2-5.8-2.5c-2-0.3-4.4,1.2-6.3,0.6c-1.9-0.7-2.8-3.4-4.6-4.4c-1.7-1-4.6-0.4-6.1-1.6
	c-1.5-1.3-1.5-4.1-2.8-5.6c-1.3-1.5-4.2-1.9-5.2-3.6c-1-1.7,0-4.4-0.7-6.3c-0.7-1.8-3.2-3.2-3.6-5.2c-0.4-2,1.5-4.2,1.5-6.1
	c0-2-2-4.1-1.7-6.1c0.3-2,2.8-3.4,3.5-5.2c0.7-1.9-0.4-4.6,0.5-6.3c1-1.7,3.8-2.2,5.1-3.7c1.3-1.5,1.1-4.4,2.7-5.7
	c1.5-1.3,4.3-0.7,6.1-1.8c1.7-1,2.6-3.8,4.5-4.5c1.8-0.7,4.3,0.8,6.3,0.4c2-0.4,3.7-2.7,5.7-2.7c2,0,3.8,2.2,5.8,2.5
	c2,0.3,4.4-1.2,6.3-0.6c1.9,0.7,2.8,3.4,4.6,4.4c1.7,1,4.6,0.4,6.1,1.6c1.5,1.3,1.5,4.1,2.8,5.6c1.3,1.5,4.2,1.9,5.2,3.6
	c1,1.7,0,4.4,0.7,6.3C66.3,25.3,68.9,26.6,69.3,28.6z"/>
<path class="st1" d="M36.9,17.4c-1.3-1.2-3-1.9-4.8-2c-1.6,0-3.2,0.5-4.5,1.5c-1.4-1.1-3-1.6-4.6-1.5c-1.7,0.1-3.4,0.8-4.7,2
	c-2.5,2.4-3.4,6.6-0.4,10.1c0,0,0,0,0,0c0.1,0.1,5.4,5.6,7.7,8.1c0.4,0.4,0.8,0.6,1.3,0.7c0.3,0.3,0.5,0.7,0.5,1.2
	c0,0.3-0.1,0.9-0.7,1.2l-0.1,0c-1.2,0.7-1.9,2-1.9,3.4s0.7,2.7,1.9,3.4l0.1,0c0.5,0.3,0.8,0.8,0.8,1.4s-0.3,1.1-0.8,1.4l0,0
	c-1.2,0.7-1.9,2-1.9,3.4c0,1.4,0.7,2.7,1.9,3.4c0.2,0.1,0.4,0.2,0.6,0.2c0.4,0,0.8-0.2,1-0.6c0.3-0.6,0.1-1.3-0.4-1.6
	c-0.5-0.3-0.8-0.8-0.8-1.4s0.3-1.1,0.8-1.4l0,0c1.2-0.7,1.9-2,1.9-3.4c0-1.4-0.7-2.7-1.9-3.4l-0.1,0c-0.5-0.3-0.8-0.8-0.8-1.4
	c0-0.6,0.3-1.1,0.8-1.4l0.1,0c1.2-0.7,1.9-1.9,1.9-3.2c0-0.7-0.1-1.3-0.4-1.9c0.1,0,0.1-0.1,0.1-0.1c2.3-2.4,7.5-7.9,7.7-8.1
	c0,0,0.1-0.1,0.1-0.1C40.5,23.8,39.4,19.7,36.9,17.4z M35.6,26.1c-0.5,0.5-5.4,5.7-7.7,8c-0.1,0.1-0.1,0.2-0.5,0
	c-2.3-2.4-7.3-7.7-7.7-8c-2.2-2.5-1.4-5.3,0.2-6.9c0.9-0.9,2-1.3,3.2-1.4c1.3,0,2.6,0.5,3.7,1.6c0.5,0.4,1.2,0.4,1.6,0
	c2.3-2.3,5.2-1.7,6.9-0.2c0.9,0.8,1.5,1.9,1.6,3.1C37.1,23.5,36.6,24.9,35.6,26.1z"/>
<path class="st1" d="M55.9,26.6c-0.1-1.1-0.7-2.2-1.5-3c-1.5-1.3-3.8-1.8-5.8-0.5c-2.1-1.4-4.5-0.8-5.8,0.5
	c-1.6,1.6-2.3,4.4-0.2,6.7c0,0,0,0,0,0l4.6,4.8c0.2,0.3,0.5,0.4,0.9,0.5c0.4,0.3,0.7,0.8,0.7,1.3c0,0.6-0.3,1.1-0.9,1.4l-0.1,0
	c-1.3,0.7-2,2-2,3.5s0.7,2.7,2,3.5l0.1,0c0.5,0.3,0.8,0.8,0.8,1.5c0,0.6-0.3,1.2-0.8,1.5l0,0c-1.3,0.7-2,2-2,3.5
	c0,1.5,0.8,2.7,2,3.5c0.2,0.1,0.4,0.2,0.6,0.2c0.4,0,0.8-0.2,1-0.6c0.3-0.6,0.1-1.3-0.4-1.6c-0.5-0.3-0.8-0.8-0.8-1.5
	c0-0.6,0.3-1.2,0.8-1.5l0,0c1.3-0.7,2-2,2-3.5s-0.7-2.7-2-3.5l-0.1,0c-0.5-0.3-0.8-0.9-0.8-1.5c0-0.6,0.3-1.2,0.8-1.5l0.1,0
	c1.3-0.7,2-2,2-3.4c0-0.8-0.2-1.5-0.6-2.1c1.5-1.5,4.2-4.4,4.3-4.5c0,0,0.1-0.1,0.1-0.1C55.6,29.1,56,27.8,55.9,26.6z M52.9,28.7
	c-0.3,0.3-2.5,2.6-3.9,4.1c-0.2,0.2-0.6,0.2-0.8,0l-3.9-4.1c-1.1-1.2-0.7-2.6,0.1-3.4c1.2-1.2,2.6-0.7,3.4,0.1
	c0.5,0.4,1.2,0.4,1.6,0c1.2-1.2,2.6-0.9,3.4-0.1C54,26.4,53.6,27.8,52.9,28.7z"/>
</svg>
