<!-- Generator: Adobe Illustrator 24.1.2, SVG Export Plug-In  -->
<svg version="1.1" xmlns="http://www.w3.org/2000/svg" xmlns:xlink="http://www.w3.org/1999/xlink" x="0px" y="0px" width="65px"
	 height="66px" viewBox="0 0 65 66" style="overflow:visible;enable-background:new 0 0 65 66;" xml:space="preserve">
<style type="text/css">
	.st0{fill:#F4F0ED;}
	.st1{fill:#A07EB7;}
</style>
<defs>
</defs>
<path class="st0" d="M64.8,26.9c0.4,1.9-1.4,3.9-1.4,5.7c0,1.9,1.8,3.9,1.5,5.7c-0.3,1.9-2.7,3.2-3.3,4.9c-0.6,1.8,0.4,4.3-0.5,5.9
	c-0.9,1.6-3.6,2.1-4.8,3.5c-1.2,1.4-1.1,4.1-2.5,5.4c-1.4,1.2-4.1,0.7-5.7,1.7c-1.6,0.9-2.4,3.5-4.2,4.2c-1.7,0.6-4-0.7-5.9-0.4
	c-1.9,0.4-3.5,2.5-5.3,2.5c-1.9,0-3.6-2.1-5.4-2.4c-1.8-0.3-4.1,1.1-5.9,0.5c-1.8-0.6-2.6-3.2-4.3-4.1c-1.6-0.9-4.3-0.3-5.7-1.5
	c-1.4-1.2-1.4-3.9-2.6-5.3c-1.2-1.4-3.9-1.8-4.8-3.4c-0.9-1.6,0-4.1-0.6-5.9c-0.6-1.7-3-3-3.4-4.8c-0.4-1.9,1.4-3.9,1.4-5.7
	c0-1.9-1.8-3.9-1.5-5.7c0.3-1.9,2.7-3.2,3.3-4.9c0.6-1.8-0.4-4.3,0.5-5.9c0.9-1.6,3.6-2.1,4.8-3.5C9.7,11.9,9.6,9.2,11,8
	c1.4-1.2,4.1-0.7,5.7-1.7c1.6-0.9,2.4-3.5,4.2-4.2c1.7-0.6,4,0.7,5.9,0.4C28.6,2.2,30.3,0,32.1,0c1.9,0,3.6,2.1,5.4,2.4
	c1.8,0.3,4.1-1.1,5.9-0.5C45.1,2.5,46,5,47.6,5.9c1.6,0.9,4.3,0.3,5.7,1.5c1.4,1.2,1.4,3.9,2.6,5.3c1.2,1.4,3.9,1.8,4.8,3.4
	c0.9,1.6,0,4.1,0.6,5.9C62.1,23.7,64.5,25,64.8,26.9z"/>
<path class="st1" d="M48.5,16.5c0,0-1.9,2.9-12,2.9c-4,0-6.7,1-7.9,3.1c-0.5,0.9-0.7,1.8-0.6,2.7l-2.2-2.2c0.3-0.2,0.6-0.4,0.8-0.6
	c0.6-0.6,0.9-1.5,1-2.4c0-1.7-1.1-3.6-3.4-3.7c0,0,0,0,0,0L19.2,16c-0.5,0-0.9,0.2-1.2,0.5c-0.3,0.3-0.5,0.8-0.5,1.2l0.1,4.8
	c0,0,0,0.1,0,0.1c0.1,1.1,0.6,2,1.3,2.6c0.6,0.5,1.4,0.8,2.3,0.8c0.1,0,0.1,0,0.2,0c1.2-0.1,2.3-0.6,3-1.7l2.2,2.2
	c-0.9,0-1.8,0.1-2.7,0.6c-5.5,3.4-1,15.1-5.9,19.9c-1.1,1.1-0.2,2.3,0.9,1.8c0,0,0,0,0,0c0.3-0.2,1.5-1,2.5-3.8l18.1-5.5l1.8,1.8
	l-0.5,3.7c0,0.3,0.1,0.6,0.3,0.8l4,4c0.2,0.2,0.4,0.3,0.7,0.3c0.1,0,0.2,0,0.3,0c0.3-0.1,0.6-0.4,0.7-0.7l0.8-3.2l3.2-0.8
	c0.3-0.1,0.6-0.4,0.7-0.7c0.1-0.3,0-0.7-0.3-1l-4-4c-0.2-0.2-0.5-0.3-0.8-0.3l-3.7,0.4L40.9,38L46.5,20c2.9-1,3.7-2.3,3.8-2.6
	c0.1-0.1,0.1-0.3,0.1-0.5c0-0.5-0.4-1-1-1C49,15.9,48.8,16.2,48.5,16.5z M25.4,19.8c0,0.7-0.5,1.5-1.7,1.5c-0.5,0-1,0.4-1,1
	c0,1.1-0.8,1.6-1.6,1.7c-0.7,0-1.5-0.4-1.7-1.6L19.5,18l4.4,0.1C25,18.2,25.5,19,25.4,19.8z M22.1,42.7c0.4-1.9,0.7-4.4,0.7-7.7
	c0-3.2,0.7-5.3,2.1-6.1c1.6-0.9,3.9,0.1,4.4,0.4l8.6,8.6L22.1,42.7z M39.3,36.4l-8.6-8.6c-0.3-0.5-1.3-2.8-0.4-4.4
	c0.8-1.3,2.9-2.1,6.1-2.1c3.3,0,5.8-0.3,7.7-0.7L39.3,36.4z M46.5,44.3c-0.4,0.1-0.6,0.4-0.7,0.7l-0.5,2.1l-2.4-2.4l0.4-2.9l3-0.3
	l2.4,2.4L46.5,44.3z"/>
</svg>
