<svg width="583" height="390" viewBox="0 0 583 390" fill="none" xmlns="http://www.w3.org/2000/svg">
<path d="M9.44181 390L29.4149 390C29.4362 379.741 48.2771 379.688 48.2985 390L68.2929 390C68.3143 379.706 87.1552 379.706 87.1766 390L107.15 390C107.171 379.741 126.012 379.688 126.033 390L146.028 390C146.049 379.688 164.89 379.723 164.911 390L184.884 390C184.906 379.741 203.747 379.688 203.768 390L223.762 390C223.784 379.706 242.625 379.706 242.646 390L262.619 390C262.641 379.741 281.481 379.688 281.503 390L301.497 390C301.519 379.706 320.359 379.706 320.381 390L340.354 390C340.375 379.741 359.216 379.688 359.238 390L379.232 390C379.253 379.688 398.094 379.723 398.116 390L418.089 390C418.11 379.706 436.951 379.706 436.972 390L456.967 390C456.988 379.688 475.829 379.723 475.85 390L495.823 390C495.845 379.706 514.686 379.706 514.707 390L534.701 390C534.723 379.688 553.564 379.723 553.585 390L573.686 390C573.686 384.888 579.219 381.839 583 382.226L583 367.807C570.589 369.094 570.803 350.956 583 352.225L583 337.806C570.867 339.058 570.525 320.937 583 322.224L583 307.805C578.834 308.228 573.558 304.755 573.558 300.014C573.558 295.272 578.856 291.799 583 292.222L583 277.803C577.766 277.803 573.558 274.296 573.558 270.012C573.558 265.27 578.856 261.798 583 262.221L583 247.802C570.845 249.054 570.546 230.933 583 232.22L583 217.801C578.834 218.224 573.558 214.751 573.558 210.009C573.558 205.268 578.856 201.795 583 202.218L583 187.799C578.834 188.222 573.558 184.75 573.558 180.008C573.558 175.266 578.856 171.794 583 172.217L583 157.798C578.834 158.221 573.558 154.748 573.558 150.007C573.558 145.265 578.856 141.793 583 142.216L583 127.797C578.834 128.22 573.558 124.747 573.558 120.005C573.558 115.264 578.856 111.791 583 112.214L583 97.7952C578.834 98.2183 573.558 94.7458 573.558 90.0041C573.558 85.2624 578.856 81.7898 583 82.2129L583 67.7939C578.834 68.217 573.558 64.7444 573.558 60.0027C573.558 55.261 578.856 51.7885 583 52.2115L583 37.7925C570.568 39.0793 570.824 20.9587 583 22.2102L583 7.79117C578.899 8.21424 573.58 4.79456 573.601 5.44469e-06L553.585 6.31961e-06C553.585 10.3119 534.701 10.2942 534.701 7.14503e-06L514.707 8.01902e-06C514.707 10.3119 495.823 10.2942 495.823 8.84445e-06L475.872 9.71657e-06C475.872 10.3119 456.988 10.2942 456.988 1.0542e-05L436.994 1.1416e-05C436.994 10.3119 418.11 10.2942 418.11 1.22414e-05L398.158 1.31135e-05C398.158 10.2766 379.275 10.3295 379.275 1.3939e-05L359.28 1.48129e-05C359.28 10.3295 340.397 10.2766 340.397 1.56384e-05L320.445 1.65105e-05C320.445 10.3119 301.561 10.2942 301.561 1.73359e-05L281.567 1.82099e-05C281.567 10.3295 262.683 10.2766 262.683 1.90353e-05L242.732 1.99074e-05C242.732 10.3119 223.848 10.2942 223.848 2.07329e-05L203.853 2.16069e-05C203.853 10.3295 184.97 10.2766 184.97 2.24323e-05L164.911 2.33091e-05C164.911 10.2766 146.028 10.3295 146.028 2.41345e-05L126.033 2.50085e-05C126.033 10.3295 107.15 10.2766 107.15 2.58339e-05L87.1979 2.6706e-05C87.1979 10.3119 68.3143 10.2942 68.3143 2.75315e-05L48.3199 2.84054e-05C48.3199 10.3471 29.4362 10.259 29.4362 2.92309e-05L9.4418 3.01049e-05C9.4418 4.28342 5.19084 7.7912 -1.67069e-05 7.7912L-1.60766e-05 22.2102C12.4965 22.2102 12.4965 37.7926 -1.53955e-05 37.7926L-1.47652e-05 52.2115C12.4965 52.2115 12.4965 67.7939 -1.40841e-05 67.7939L-1.34538e-05 82.2129C12.4965 82.2129 12.4965 97.7953 -1.27727e-05 97.7953L-1.21424e-05 112.214C12.4965 112.214 12.4965 127.797 -1.14613e-05 127.797L-1.0831e-05 142.216C12.4965 142.216 12.4965 157.798 -1.01499e-05 157.798L-9.5196e-06 172.217C12.4965 172.217 12.4965 187.799 -8.83847e-06 187.799L-8.2082e-06 202.218C12.4965 202.218 12.4965 217.801 -7.52707e-06 217.801L-6.8968e-06 232.22C12.5179 232.22 12.4538 247.802 -6.21567e-06 247.802L-5.58617e-06 262.203C12.5179 262.203 12.4538 277.786 -4.90504e-06 277.786L-4.27477e-06 292.205C12.5179 292.205 12.4538 307.787 -3.59364e-06 307.787L-2.96337e-06 322.206C12.5179 322.206 12.4538 337.788 -2.28224e-06 337.788L-1.65196e-06 352.207C12.4965 352.207 12.4965 367.79 -9.70837e-07 367.79L-3.41334e-07 382.191C5.23358 382.191 9.44181 385.734 9.44181 390Z" fill="#F4F0ED"/>
</svg>
