<svg width="98" height="165" viewBox="0 0 98 165" fill="none" xmlns="http://www.w3.org/2000/svg">
<g style="mix-blend-mode:multiply">
<path d="M48.7249 118.214H45.7606C44.9816 118.214 44.2577 117.828 43.8165 117.193L5.14962 61.0647C5.08068 60.9681 5.02553 60.8716 4.97727 60.7682C1.67518 54.9499 0 48.6973 0 42.1827C0 18.9233 21.86 0 48.7249 0C75.5897 0 97.4498 18.9233 97.4498 42.1827C97.4498 48.6973 95.7746 54.9499 92.4725 60.7682C92.4242 60.8716 92.3622 60.9681 92.3001 61.0647L53.6332 117.187C53.192 117.828 52.4682 118.207 51.6892 118.207L48.7249 118.214ZM47.0083 113.485H48.7318H50.4483L88.3225 58.5002C91.2454 53.385 92.7207 47.8907 92.7207 42.1758C92.7207 21.5222 72.9839 4.7222 48.7249 4.7222C24.4658 4.7222 4.7291 21.5222 4.7291 42.1758C4.7291 47.8907 6.21125 53.3781 9.1273 58.5002L47.0083 113.485Z" fill="#D2C2AE"/>
<path d="M50.924 118.214H46.5258C45.4366 118.214 44.4853 117.462 44.2302 116.401L23.7214 31.4837C23.7076 31.4147 23.6938 31.3389 23.68 31.27C23.2664 29.4224 23.0596 27.5405 23.0596 25.6723C23.0596 11.5194 34.5721 0 48.7249 0C62.8778 0 74.3903 11.5125 74.3903 25.6654C74.3903 27.5336 74.1835 29.4155 73.7698 31.2631C73.7629 31.332 73.7492 31.4078 73.7285 31.4768L53.2196 116.401C52.9646 117.462 52.0132 118.214 50.924 118.214ZM48.3871 113.485H49.0627L69.089 30.553C69.0959 30.4979 69.1097 30.4496 69.1166 30.3945C69.475 28.8365 69.6612 27.244 69.6612 25.6654C69.6612 14.1184 60.2719 4.7291 48.7249 4.7291C37.1779 4.7291 27.7887 14.1184 27.7887 25.6654C27.7887 27.244 27.9679 28.8296 28.3333 30.3945C28.3471 30.4496 28.354 30.4979 28.3608 30.553L48.3871 113.485Z" fill="#D2C2AE"/>
<path d="M49.8898 80.436C31.3112 80.436 17.2618 76.086 16.3794 75.8103C15.1317 75.4173 14.4423 74.0868 14.8421 72.8391C15.2351 71.5982 16.5656 70.9019 17.8064 71.3018C18.1166 71.3983 49.3383 81.0288 79.6294 71.3018C80.8703 70.9019 82.2008 71.5844 82.6006 72.8322C83.0004 74.0731 82.3179 75.4035 81.0702 75.8034C70.2677 79.2778 59.4721 80.436 49.8898 80.436Z" fill="#D2C2AE"/>
<path d="M22.4872 118.116C18.5647 118.116 15.3315 121.349 15.3315 125.271V157.072C15.3315 160.995 18.5647 164.228 22.4872 164.228H74.9623C78.8848 164.228 82.118 160.995 82.118 157.072V125.271C82.118 121.349 78.8848 118.116 74.9623 118.116H22.4872ZM23.0112 122.893H74.466L50.1931 144.56C49.2694 145.387 48.2353 145.387 47.3116 144.56L23.0112 122.893ZM20.102 126.692L36.4539 141.279L20.102 156.983V126.692ZM77.3475 126.692V156.955L61.0508 141.251L77.3475 126.692ZM57.4729 144.457L73.0527 159.464H24.3968L40.0249 144.484L44.1267 148.138C46.7325 150.461 50.7653 150.468 53.3711 148.138L57.4729 144.457Z" fill="#D2C2AE"/>
</g>
</svg>
