<svg width="143" height="244" viewBox="0 0 143 244" fill="#D2C2AE" xmlns="http://www.w3.org/2000/svg">
<g style="mix-blend-mode:multiply">
<path d="M71.1322 172.564H66.8052C65.6666 172.564 64.6076 172.006 63.97 171.072L7.51516 89.1344C7.42407 88.9978 7.33298 88.8497 7.26466 88.7017C2.44812 80.2073 0 71.0866 0 61.5788C0 27.6239 31.9053 0 71.1322 0C110.348 0 142.264 27.6239 142.264 61.5788C142.264 71.0866 139.816 80.2187 135 88.7131C134.931 88.8611 134.84 89.0091 134.749 89.1458L78.3057 171.084C77.6567 172.018 76.5977 172.575 75.4705 172.575L71.1322 172.564ZM68.6157 165.664H71.1322H73.6372L128.931 85.3996C133.189 77.93 135.353 69.9138 135.353 61.5788C135.353 31.4384 106.545 6.91167 71.1322 6.91167C35.7198 6.91167 6.91167 31.4384 6.91167 61.5788C6.91167 69.9138 9.07513 77.93 13.3337 85.3996L68.6157 165.664Z" fill="#D2C2AE"/>
<path d="M74.3435 172.564H67.9215C66.3274 172.564 64.9382 171.471 64.5624 169.922L34.627 45.9564C34.6043 45.8539 34.5815 45.7514 34.5701 45.6489C33.9666 42.9503 33.6592 40.2061 33.6592 37.4733C33.6592 16.8066 50.4658 0 71.1325 0C91.7878 0 108.606 16.8066 108.606 37.4733C108.606 40.2061 108.298 42.9503 107.695 45.6489C107.684 45.7514 107.661 45.8539 107.638 45.9564L77.6912 169.922C77.3155 171.471 75.9377 172.564 74.3435 172.564ZM70.6315 165.664H71.6221L100.852 44.6014C100.863 44.5216 100.874 44.4533 100.897 44.3736C101.421 42.0963 101.694 39.7734 101.694 37.4733C101.694 20.6212 87.9847 6.91167 71.1325 6.91167C54.2803 6.91167 40.5709 20.6212 40.5709 37.4733C40.5709 39.7734 40.8327 42.0963 41.3679 44.3736C41.3907 44.4533 41.4021 44.5216 41.4135 44.6014L70.6315 165.664Z" fill="#D2C2AE"/>
<path d="M72.8288 117.419C45.7059 117.419 25.1986 111.076 23.9119 110.666C22.0901 110.086 21.088 108.15 21.6688 106.328C22.2495 104.518 24.1852 103.504 25.9957 104.085C26.4511 104.233 72.0317 118.284 116.246 104.085C118.056 103.504 120.004 104.506 120.584 106.317C121.165 108.127 120.163 110.074 118.352 110.655C102.571 115.733 86.823 117.419 72.8288 117.419Z" fill="#D2C2AE"/>
<path d="M109.551 174.466C99.5874 164.514 83.3956 164.514 73.4324 174.466L71.1209 176.777L68.8094 174.466C58.8575 164.514 42.6544 164.514 32.6911 174.466C22.9327 184.224 22.8758 199.676 32.543 210.425C41.3677 220.228 67.3747 241.396 68.4792 242.296C69.2307 242.899 70.1302 243.207 71.0298 243.207C71.064 243.207 71.0867 243.207 71.1209 243.207C72.0432 243.252 72.9769 242.933 73.7512 242.307C74.8557 241.408 100.874 220.24 109.687 210.436C119.366 199.676 119.309 184.213 109.551 174.466ZM103.687 205.016C96.8091 212.656 77.9073 228.415 71.1209 234.006C64.3345 228.415 45.4327 212.656 38.5552 205.016C31.8143 197.524 31.746 186.843 38.4072 180.182C41.8117 176.777 46.2753 175.081 50.7502 175.081C55.2138 175.081 59.6887 176.777 63.0933 180.182L68.1718 185.26C68.7752 185.864 69.5381 186.228 70.3352 186.353C71.6333 186.638 73.0452 186.274 74.0586 185.26L79.1484 180.17C85.9576 173.361 97.0254 173.373 103.835 180.17C110.496 186.843 110.439 197.524 103.687 205.016Z" fill="#D2C2AE"/>
<path d="M78.4879 172.564C78.4879 176.629 75.1972 179.931 71.1208 179.931C67.0558 179.931 63.7537 176.641 63.7537 172.564C63.7537 168.499 67.0558 165.197 71.1208 165.197C75.1972 165.197 78.4879 168.499 78.4879 172.564Z" fill="#D2C2AE"/>
</g>
</svg>
