<svg xmlns="http://www.w3.org/2000/svg" xmlns:xlink="http://www.w3.org/1999/xlink" viewBox="0 0 780.06 246.8"><defs><style>.cls-1{fill:#f2bc4a;}.cls-2{fill:#d4e7cc;}.cls-3{fill:#555590;}.cls-4{fill:#68689c;}.cls-5{fill:#6f6eb1;}.cls-6{fill:#131428;}.cls-7{fill:#f5ccbf;}.cls-8{fill:#21213f;}.cls-10,.cls-11,.cls-15,.cls-16,.cls-19,.cls-20,.cls-25,.cls-28,.cls-29,.cls-30,.cls-9{fill:none;}.cls-9{stroke:#131428;stroke-width:1.61px;}.cls-10,.cls-11,.cls-15,.cls-16,.cls-19,.cls-20,.cls-25,.cls-28,.cls-29,.cls-9{stroke-linecap:round;}.cls-10,.cls-25,.cls-9{stroke-linejoin:round;}.cls-10,.cls-16,.cls-25,.cls-29{stroke:#21213f;}.cls-10,.cls-15,.cls-16{stroke-width:1.07px;}.cls-11,.cls-15,.cls-28{stroke:#e17081;}.cls-11,.cls-15,.cls-16,.cls-19,.cls-20,.cls-28,.cls-29,.cls-30{stroke-miterlimit:10;}.cls-11{stroke-width:1.94px;}.cls-12{fill:url(#Degradado_sin_nombre_3);}.cls-13{fill:url(#Degradado_sin_nombre_5);}.cls-14{fill:url(#Degradado_sin_nombre_3-2);}.cls-17{fill:#fff;}.cls-18{fill:#483f38;}.cls-19,.cls-20{stroke:#483f38;stroke-width:4px;}.cls-20{stroke-dasharray:17.04 17.04;}.cls-21{fill:#c6dfb4;}.cls-22{fill:url(#Degradado_sin_nombre_5-2);}.cls-23{fill:#9594c9;}.cls-24{fill:#e96762;}.cls-25{stroke-width:0.96px;}.cls-26{fill:#d0443d;}.cls-27{fill:url(#Degradado_sin_nombre_5-3);}.cls-28,.cls-29{stroke-width:1.43px;}.cls-30{stroke:#d09a89;stroke-width:1.52px;}</style><linearGradient id="Degradado_sin_nombre_3" x1="117.28" y1="309.71" x2="78.97" y2="40.97" gradientTransform="matrix(1, 0, 0, -1, 0.14, 247.53)" gradientUnits="userSpaceOnUse"><stop offset="0" stop-color="#ee8983"/><stop offset="1" stop-color="#f5c7c2"/></linearGradient><linearGradient id="Degradado_sin_nombre_5" x1="120.56" y1="137.68" x2="-3.77" y2="0.92" gradientTransform="matrix(1, 0, 0, -1, 0.14, 247.53)" gradientUnits="userSpaceOnUse"><stop offset="0" stop-color="#d36877"/><stop offset="1" stop-color="#f5c7c2"/></linearGradient><linearGradient id="Degradado_sin_nombre_3-2" x1="91.17" y1="190.04" x2="88.17" y2="106.02" xlink:href="#Degradado_sin_nombre_3"/><linearGradient id="Degradado_sin_nombre_5-2" x1="642.41" y1="134.59" x2="723.31" y2="-12.31" xlink:href="#Degradado_sin_nombre_5"/><linearGradient id="Degradado_sin_nombre_5-3" x1="661.31" y1="211.6" x2="693.94" y2="131.66" xlink:href="#Degradado_sin_nombre_5"/></defs><g id="Capa_2" data-name="Capa 2"><g id="Capa_1-2" data-name="Capa 1"><path class="cls-1" d="M185.58,145.66a17.29,17.29,0,0,0-3-2.42L105.22,88.93a17.25,17.25,0,0,0-19.83,0l-77.3,54.3A17.33,17.33,0,0,0,0,157.88v60.93a17.25,17.25,0,0,0,17.25,17.25l156.12,0a17.24,17.24,0,0,0,17.25-17.25v-61A17.19,17.19,0,0,0,185.58,145.66Z"/><path class="cls-2" d="M149.58,201.52c15.43-15.19,8.79-29.12,8.79-29.12l-7.29,8.79,4.5-12.22s-4.29-4.93-10.07-6l-3,17.15-2.28-15.86s-5.43-.64-11.44,4.29l5.14,11.79-7.72-7.43a23.82,23.82,0,0,0-1.45,13.86,113.45,113.45,0,0,0,5.09,17.58"/><path class="cls-3" d="M150.67,236.28H123.38l-3.72-36.69h34.73Z"/><path class="cls-4" d="M157.89,198.15H122.55v6.74h35.34Z"/><path class="cls-5" d="M86.15,151.49l-26.58,8a19.63,19.63,0,0,0-13.43,14.35l-6.87,29.67,16.51,6.86v25.72h60.88V202.48l19.72-4.5L125,171.89a19.6,19.6,0,0,0-11.4-10.63Z"/><path class="cls-6" d="M39.27,203.54l-1,32.55,17.55,0V210.4Z"/><path class="cls-7" d="M101.52,229.68,79.2,232.45a2.16,2.16,0,0,0,.26,4.31h31.91"/><path class="cls-8" d="M136.38,198l8.35,27.77A15.11,15.11,0,0,1,127,246.31l-27.2-7.08-.24-11.84,19.72-3-2.65-21.91Z"/><path class="cls-9" d="M119.31,224.38l8-1.34"/><path class="cls-10" d="M116.66,202.47V180.28"/><path class="cls-10" d="M55.78,210.4l2.36-30.12"/><path class="cls-7" d="M24.48,168.39l5.16,12.67s.3,6.94,3.15,9.6l-.46,6.28H46.15l-.47-5.29s9.84-11.26,10.19-13.7-3.26-1.32-4.51-.22S47,182.1,47,182.1l5.29-19.35a1.71,1.71,0,0,0-1.08-2.07l-.37-.12a1.69,1.69,0,0,0-2.16,1.08l-4.31,13.17-.52-18.22a1.71,1.71,0,0,0-3.41-.1l-1.54,17.95L34.61,160.3a1.71,1.71,0,0,0-2.2-1.12l-.25.1a1.72,1.72,0,0,0-1.11,1.89l2.41,14.41-5.95-8.82a1.7,1.7,0,0,0-2.67-.19l-.05.05A1.66,1.66,0,0,0,24.48,168.39Z"/><path class="cls-8" d="M29.48,236.07H49.63l-3.48-39.14H32.33Z"/><path class="cls-11" d="M45.9,182.66a16.51,16.51,0,0,0-5.66,5"/><path class="cls-11" d="M36.57,192.22c3.63,1.1,5,0,5,0"/><path class="cls-8" d="M107.71,124.26c7.15-2.5,12.22-6.79,11.36-10.79s-7.36.93-7.36.93,6.22-5.07,6.29-9-8-.86-8-.86,7.22-4.72,6.72-8.57-18.86,3.29-18.86,3.29,5.29-2.79,4.14-5.64-25.51,7.86-28,10.43-.36,7.57-.36,7.57-6.65-.71-5.72,5.14S71.84,146,80.84,145s14.93-8.72,14.93-8.72"/><path class="cls-12" d="M78.08,145.7a88.85,88.85,0,0,1-.94,11.57c-.43,3.57,6.42,7.85,13.28,7.51S97,158.91,97,158.91s.13-1.79.43-4.2c.4-3.22,1.11-7.54,2.21-10.09l-22.53-6.07A24.06,24.06,0,0,1,78.08,145.7Z"/><path class="cls-13" d="M77.11,138.54a23.82,23.82,0,0,1,1,7.16c3.18,4.71,9,9.39,19.35,9,.4-3.22,1.11-7.54,2.21-10.09Z"/><path class="cls-14" d="M108.78,120.88c.7,4.13-1.5,6.16-1.88,13S104.81,151.16,91.14,151s-15.92-17.2-15.92-17.2-2.63,2.73-4.9-.19-2.06-9.22,1.61-9.57S77,131.35,77,131.35s1.66-7.21,1.71-9.49a14.73,14.73,0,0,0-.51-4.13S95,123.08,108.78,120.88Z"/><path class="cls-15" d="M71.24,127.62c.54-1,3.48,1.8,2,4.66"/><path class="cls-15" d="M94.07,130.47l1.1,6.17a1.55,1.55,0,0,1-1.2,1.79l-.47.1"/><path class="cls-8" d="M87,132.38a1,1,0,1,0-1-1A1,1,0,0,0,87,132.38Z"/><path class="cls-8" d="M100,132.21a1,1,0,1,0,1-1A1,1,0,0,0,100,132.21Z"/><path class="cls-16" d="M91.17,128.44a5.5,5.5,0,0,0-5.79-.57"/><path class="cls-16" d="M104,128.48a5.5,5.5,0,0,0-5.79-.57"/><path class="cls-17" d="M91.6,142.58,87,141.43a2.6,2.6,0,0,0,1.7,2.79C90.67,144.83,91.6,142.58,91.6,142.58Z"/><path class="cls-18" d="M214.2,96.58l-.53.53L213,84.65l.51-.51c.85-.8,7.42-7.21,7.5-12.64a5.75,5.75,0,0,0-5.93-5.93c-5.43.08-11.83,6.66-12.63,7.5l-.51.51-12.47-.7.53-.53a1.77,1.77,0,0,0-2.51-2.51l-2.77,2.77-22.42-1.26a1.78,1.78,0,0,0-1.88,1.8v.09a14.36,14.36,0,0,0,3.14,8.46,6.67,6.67,0,0,0-.51,1.91,6.54,6.54,0,0,0,1.57,4.89l0,.06,5.6,6.08a2.85,2.85,0,0,0,2.1.92,2.89,2.89,0,0,0,2.1-.92L175.92,93l2-2.12,4.4,2.5c-3.68,4-7.25,8-10.65,12.18l-.66-.66a4.92,4.92,0,0,0-6.91,0l-.46.46a4.88,4.88,0,0,0,0,6.9l1.36,1.35-3.48,4-.05.06a5.24,5.24,0,0,0,7.33,7.39l.06,0,4-3.51.83.82a4.93,4.93,0,0,0,6.92,0l.46-.46a4.88,4.88,0,0,0,0-6.9l-.11-.11c4.16-3.4,8.23-6.94,12.17-10.61l8.5,15a13.81,13.81,0,0,0,11.76,7h0a1.78,1.78,0,0,0,1.77-1.88l-1.26-22.43,2.77-2.77a1.78,1.78,0,0,0,0-2.51A1.75,1.75,0,0,0,214.2,96.58Zm-40.86-6-1,1-5.06-5.49c-2.51-3.46,1.92-6.18,3.82-3.83a1.76,1.76,0,0,0,1.25.51h0a1.81,1.81,0,0,0,1.26-.54,2.43,2.43,0,0,1,3.57-.21,2.84,2.84,0,0,1,.19,4.09l-1.28,1.39C175.33,88.46,174.27,89.6,173.34,90.62Zm7-2.41a6.53,6.53,0,0,0,1.36-4.71,6.35,6.35,0,0,0-2.14-4,6.16,6.16,0,0,0-4.05-1.57,5.81,5.81,0,0,0-3.17.94,5.78,5.78,0,0,0-6.46.06A11.38,11.38,0,0,1,164.17,75l34.37,1.94L188.33,87.15c-1.18,1.18-2.36,2.38-3.52,3.59Zm-13.79,34.08a1.69,1.69,0,0,1-2.36-2.38l3.31-3.77,2.85,2.83Zm12-3a1.6,1.6,0,0,1-2.36.46l-10.09-10c-1.24-1.2.95-3.61,2.36-2.32,2.58,2.55,7.51,7.48,10.09,10A1.35,1.35,0,0,1,178.57,119.33Zm-4.39-11.23c5.23-6.39,10.83-12.59,16.67-18.43L205,75.57c12.08-12.19,17.66-5.23,6,6L197.36,95.25a248.82,248.82,0,0,1-18.91,17.08Zm30.55,9.36-8.93-15.73c1.37-1.31,2.73-2.64,4.06-4L209.6,88c.46,8.07,1.48,26.17,1.94,34.39A10.22,10.22,0,0,1,204.73,117.46Z"/><path class="cls-19" d="M226.92,65.53c-.39.22,2.4-1.15,7.76-3.26"/><path class="cls-20" d="M250.76,56.68C282.94,46.83,343,35.86,402.27,65c81,39.82,186.45,44.37,230.71-5.63"/><path class="cls-19" d="M638.28,52.7a80,80,0,0,0,4.55-7.18"/><path class="cls-1" d="M775,59.81a17.07,17.07,0,0,0-3-2.41L694.73,3.13a17.25,17.25,0,0,0-19.81,0L597.7,57.38A17.3,17.3,0,0,0,589.62,72v60.87a17.23,17.23,0,0,0,17.23,17.24l156,0a17.22,17.22,0,0,0,17.24-17.23V72A17.24,17.24,0,0,0,775,59.81Z"/><path class="cls-21" d="M727.34,126l-4.53-39.53a.85.85,0,0,1,1.67-.31l7,27.06,2.7-35.89a.85.85,0,0,1,1.69,0L739,113.76l5.17-22a.85.85,0,0,1,1.67.27l-3.22,35.14"/><path class="cls-3" d="M743.61,151.86H719.32L716,119.21h30.91Z"/><path class="cls-4" d="M750,117.93H718.59v6H750Z"/><path class="cls-22" d="M647.08,130.46l4.08-18.25-13.73-6.55-2.93,9"/><path class="cls-8" d="M685.41,80.7v69.73h-27.9L655.3,78.25l2.52-3.58,3.93-5.58,21.09-3,1.48,8.47Z"/><path class="cls-23" d="M684.32,74.54c-2.74,5-7.29,9.47-14,9.12-9-.49-11.73-6.25-12.54-9l3.93-5.58,21.09-3Z"/><path class="cls-24" d="M661.75,69.09s-.32,3.7-.66,9.16c0,.36-.05.74-.07,1.11,0,0,0,.1,0,.14-.3,5-.61,11.35-.73,17.56,0,.42,0,.84,0,1.25,0,2,0,3.88,0,5.75,0,3.22,0,7.32,0,11.81,0,.41,0,.83,0,1.25,0,5.67-.07,11.85-.14,17.56,0,.42,0,.85,0,1.25-.12,10.68-.18,14.5-.18,14.5l-14.76-.29h0c.37-1.56.81-3.37,1.25-5.28.69-2.92,1.4-6.08,2-8.93.09-.43.17-.85.26-1.25a56.68,56.68,0,0,0,1.1-7c.12-3.12-1-7.65-1.79-10.6-.13-.46-.26-.89-.36-1.25-.31-1.05-.52-1.69-.52-1.69l-.69-.32-1.25-.59-10.65-5,2.61-9.93.33-1.25,2.73-10.35a21.38,21.38,0,0,1,3.43-7.2,15.45,15.45,0,0,1,1-1.25c.18-.22.37-.44.57-.65.4-.43.81-.85,1.25-1.24a21.54,21.54,0,0,1,7.47-4.51l4.83-1.69Z"/><path class="cls-24" d="M710.72,135.93l.86,14.5H681.82s-.44-5.82-.9-14.5c0-.41,0-.82,0-1.25-.28-5.15-.54-11.19-.73-17.56,0-.42,0-.83,0-1.25-.15-5.76-.24-11.74-.2-17.56,0-.42,0-.84,0-1.25.05-6.27.27-12.3.71-17.56,0,0,0-.1,0-.14,0-.37.06-.75.1-1.11a58,58,0,0,1,2.06-12c0-.08,0-.14.06-.2l1.19.33,1,.3,13.81,3.9a19.51,19.51,0,0,1,2.71,1,11.18,11.18,0,0,1,1.25.62,19.06,19.06,0,0,1,6.73,6c.28.41.55.82.79,1.25a19.35,19.35,0,0,1,2,4.83l3.33,12.73.33,1.25,3.46,13.2-10,3,.07,1.33.07,1.25,1,17.56Z"/><path class="cls-7" d="M699.75,117.49l8.78,34.66h20.6l-9.66-40.64Z"/><path class="cls-25" d="M699.75,117.49l-7-21.29"/><path class="cls-25" d="M647.09,114.18c-2.67-8.2,3.9-17.49,3.67-22.48"/><path class="cls-26" d="M658.71,70.16l3-1.07s-.36,4.22-.74,10.28h-7.17Z"/><path class="cls-26" d="M689.16,79.37h-8.54a61.06,61.06,0,0,1,2.22-13.3l2.23.63,1.2,3.69Z"/><path class="cls-7" d="M645.82,123.47l-14-39.79s5-9.85,4.8-11.66-2.58-.35-3.28.67-2.29,3.91-2.29,3.91l.27-14.81a1.27,1.27,0,0,0-1.16-1.28l-.28,0a1.26,1.26,0,0,0-1.36,1.17l-.68,10.2-3.69-12.94a1.26,1.26,0,0,0-2.45.56l2.17,13.12-5.68-9.34a1.26,1.26,0,0,0-1.78-.39l-.16.11a1.25,1.25,0,0,0-.45,1.55l4.35,9.88-5.86-5.23a1.26,1.26,0,0,0-1.95.35l0,0a1.25,1.25,0,0,0,.1,1.34l6,8.12s1.48,4.91,4,6.3l8,45.09a8.44,8.44,0,1,0,16.29-4.25Z"/><path class="cls-8" d="M651.48,17.83c-10.37.7-3.78,16.49-3.82,20.85-.06,7.81-9,16.93.76,23.7s17.84-1.62,28-2.29,15.5,2.85,18-7.82C702.93,16.24,663.5-.17,651.48,17.83Z"/><path class="cls-7" d="M682.84,66.07s-2,12.57-12.31,12.17-8.78-9.15-8.78-9.15l1.51-.29s-.31-1-.74-2.45c-.87-2.86-2.18-7.2-2.28-7.32l17.56-8.58.85-.42,0,.34.43,3.07,1.71,12.29Z"/><path class="cls-27" d="M679.11,53.45c-1.77,4.62-7.42,12.79-16.59,12.9-.87-2.86-2.18-7.2-2.28-7.32l17.56-8.58a6.08,6.08,0,0,1,.89-.07Z"/><path class="cls-7" d="M652.62,26.73c-2.42,4.26-1.34,9-1.59,13.16s-2.23,19.65,9.67,21.69,19.59-9.86,20.48-14.5c3.05,3.05,6.68-.06,6.42-3.18s-3.12-3.82-4.9-2.48a7.67,7.67,0,0,0-2.35,4l-1.14-6.36s-1-2.35-6.42-3S656.82,36.91,652.62,26.73Z"/><path class="cls-28" d="M685.41,42.67c-1.65-.19-2.89,2.35-1.78,3.66"/><path class="cls-28" d="M662,41l-2.09,6.58a1.45,1.45,0,0,0,.65,1.7l1.28.75"/><path class="cls-28" d="M664.64,55.45s3.11.83,4.54-1.43"/><path class="cls-8" d="M670.29,43.53a1.1,1.1,0,1,1-1.1-1.1A1.1,1.1,0,0,1,670.29,43.53Z"/><path class="cls-8" d="M657.5,43.53a1.1,1.1,0,1,1-1.1-1.1A1.1,1.1,0,0,1,657.5,43.53Z"/><path class="cls-29" d="M653.83,39.36a3.85,3.85,0,0,1,4.74-1"/><path class="cls-29" d="M666.72,38.66a3.85,3.85,0,0,1,4.81.43"/><path class="cls-7" d="M710.67,147.52c2.37-1.4,2.92,1.13,2.88,4s.09,7-2.32,6.74c-.25,2.12-3.59,3.54-4.1.37-.58,2.44-1.27,2.39-2.6,2.32s-1.33-3.22-1.33-3.22-.41,3.77-2.28,3.75-3.66-10.7-3.66-10.7-5.39.74-6.17-.05-.58-2,1.24-2.49,5.06-3.18,6.33-3.34,2.85,1.22,2.85,1.22a7.08,7.08,0,0,1,2.6-.67,10.72,10.72,0,0,0,6.56,2.11Z"/><path class="cls-7" d="M710.42,159.75c1.8-5,.37-10.78.37-10.78Z"/><path class="cls-7" d="M703.19,157.7A38.5,38.5,0,0,0,702.1,149Z"/><path class="cls-7" d="M706.72,159.86c1.07-3.43-.36-10-.36-10Z"/><path class="cls-30" d="M630.35,77.21a12.15,12.15,0,0,0-3.15,4.58"/><path class="cls-30" d="M625.42,85.75c2.8.13,3.56-.89,3.56-.89"/></g></g></svg>