<svg width="110" height="110" viewBox="0 0 110 110" fill="none" xmlns="http://www.w3.org/2000/svg">
<rect width="110" height="110" rx="10" fill="#FF5C5C"/>
<path d="M96.7684 47.2073C97.2162 49.5772 94.9586 52.1862 94.9897 54.5158C95.0208 56.9136 97.3374 59.4636 96.9581 61.7776C96.5725 64.132 93.5562 65.8123 92.7757 68.0331C91.989 70.2757 93.2857 73.4687 92.1289 75.528C90.966 77.5935 87.561 78.1463 86.0591 79.982C84.5634 81.8114 84.6971 85.2591 82.8967 86.809C81.1118 88.3465 77.7224 87.7067 75.6701 88.9242C73.652 90.12 72.5979 93.4062 70.3528 94.251C68.1699 95.0741 65.2096 93.3099 62.837 93.7572C60.4644 94.2044 58.353 96.9253 56.0209 96.9564C53.6203 96.9874 51.4405 94.3163 49.1239 93.9373C46.7669 93.5522 43.847 95.3847 41.6237 94.6051C39.3786 93.8193 38.2467 90.5611 36.1819 89.4025C34.1141 88.244 30.7402 88.9708 28.9025 87.4706C27.071 85.9766 27.1145 82.5289 25.5597 80.7305C24.0205 78.9477 20.6 78.4818 19.378 76.4318C18.1808 74.416 19.4028 71.1982 18.557 68.9556C17.733 66.7752 14.6794 65.1663 14.2316 62.7995C13.7839 60.4327 16.0414 57.8206 16.0103 55.491C15.9792 53.0932 13.6626 50.5432 14.042 48.2292C14.4276 45.8748 17.4438 44.1945 18.2243 41.9737C19.011 39.7311 17.7143 36.5381 18.8711 34.4788C20.0341 32.4133 23.439 31.8605 24.9409 30.0248C26.4366 28.1954 26.3029 24.7508 28.1033 23.1978C29.8882 21.6572 33.2776 22.297 35.3299 21.0795C37.348 19.8837 38.4022 16.5975 40.6473 15.7527C42.8302 14.9296 45.7905 16.6938 48.163 16.2465C50.5356 15.7961 52.647 13.0753 54.9792 13.0442C57.3797 13.0132 59.5595 15.6843 61.8761 16.0633C64.2332 16.4484 67.153 14.6159 69.3764 15.3955C71.6215 16.1813 72.7533 19.4395 74.8181 20.598C76.8859 21.7597 80.2598 21.0298 82.0975 22.53C83.9291 24.024 83.8855 27.4717 85.4403 29.27C86.9795 31.0529 90.4 31.5188 91.6221 33.5688C92.8193 35.5846 91.5972 38.8024 92.443 41.045C93.2639 43.2316 96.3175 44.8374 96.7684 47.2073Z" fill="#F4F0ED"/>
<path d="M60.2989 84.1811L49.1667 83.9699C48.4857 83.9575 47.9477 83.3953 47.9602 82.7182L48.0441 78.3791C48.0535 77.9411 48.2898 77.5591 48.6412 77.3479L54.2259 73.5834C54.655 73.2946 55.221 73.3039 55.6408 73.6114L61.0794 77.584C61.1571 77.6336 61.2286 77.6927 61.2908 77.761C61.5178 77.9971 61.6422 78.3108 61.636 78.6369L61.552 82.9791C61.5458 83.3052 61.409 83.6158 61.1758 83.8426C60.9394 84.0631 60.6254 84.1873 60.2989 84.1811ZM50.4416 81.5348L59.1141 81.6994L59.1608 79.227L54.882 76.1024L50.4882 79.0624L50.4416 81.5348Z" fill="#F46262"/>
<path d="M54.8885 75.8478L53.6447 75.823C53.2405 75.8137 52.8673 75.6087 52.6434 75.2732L36.8656 51.4377C36.8345 51.388 36.8065 51.3383 36.7816 51.2886C35.4259 48.7882 34.7635 46.117 34.8164 43.3465C35.003 33.4662 44.4374 25.6049 55.8401 25.8192C67.2459 26.0366 76.3724 34.249 76.1827 44.1292C76.1299 46.8998 75.368 49.543 73.9159 51.9905C73.891 52.0402 73.8599 52.0899 73.8257 52.1365L57.1523 75.354C56.916 75.6832 56.5335 75.8727 56.1293 75.8665L54.8885 75.8478ZM54.3381 73.3786L54.9352 73.391L55.5291 73.4003L71.7827 50.7637C73.0234 48.6795 73.6764 46.4339 73.72 44.0826C73.8817 35.5566 65.8373 28.4655 55.7903 28.2761C45.7434 28.0866 37.4346 34.867 37.273 43.39C37.2294 45.7381 37.7954 48.0086 38.9552 50.1393L54.3381 73.3786Z" fill="#F46262"/>
<path d="M55.8115 75.8634L53.9644 75.8292C53.3954 75.8199 52.9103 75.4192 52.7859 74.8663L44.8566 39.1068C44.8503 39.0726 44.8441 39.0384 44.8379 39.0043C44.6762 38.2122 44.6047 37.4078 44.6202 36.6095C44.7353 30.5466 49.7665 25.7074 55.8395 25.8223C61.9093 25.9372 66.754 30.9628 66.6389 37.0288C66.6234 37.8271 66.5208 38.6284 66.328 39.4142C66.3218 39.4484 66.3156 39.4826 66.3062 39.5136L57.0242 74.9471C56.8812 75.4968 56.3806 75.8758 55.8115 75.8634ZM47.2789 38.6626L54.9377 73.2015L63.9057 38.9763C63.9088 38.9514 63.915 38.9297 63.9212 38.9049C64.0798 38.2712 64.1669 37.6252 64.1793 36.9822C64.2695 32.2735 60.5069 28.3693 55.7928 28.2823C51.0788 28.1922 47.1732 31.9505 47.083 36.6592C47.0706 37.3022 47.1328 37.9513 47.2665 38.5912C47.2727 38.6129 47.2758 38.6377 47.2789 38.6626Z" fill="#F46262"/>
<path d="M55.6811 60.0225C47.842 59.8734 41.9525 57.929 41.5825 57.8048C40.9388 57.5874 40.5936 56.8916 40.8113 56.2456C41.029 55.6026 41.7255 55.2579 42.3692 55.4753C42.4998 55.5188 55.4573 59.7771 68.166 55.966C68.8159 55.7703 69.5031 56.14 69.699 56.7891C69.8949 57.4383 69.5248 58.1247 68.875 58.3204C64.2853 59.6964 59.7236 60.097 55.6811 60.0225Z" fill="#F46262"/>
</svg>
