<svg width="18" height="18" viewBox="0 0 18 18" fill="none" xmlns="http://www.w3.org/2000/svg">
<path d="M8.80196 4.28758C6.30479 4.28758 4.29055 6.30226 4.29055 8.8C4.29055 11.2977 6.30479 13.3124 8.80196 13.3124C11.2991 13.3124 13.3134 11.2977 13.3134 8.8C13.3134 6.30226 11.2991 4.28758 8.80196 4.28758ZM8.80196 11.7337C7.18822 11.7337 5.86896 10.418 5.86896 8.8C5.86896 7.18197 7.18429 5.86634 8.80196 5.86634C10.4196 5.86634 11.735 7.18197 11.735 8.8C11.735 10.418 10.4157 11.7337 8.80196 11.7337ZM14.5502 4.103C14.5502 4.68816 14.079 5.15551 13.4979 5.15551C12.9129 5.15551 12.4456 4.68424 12.4456 4.103C12.4456 3.52177 12.9168 3.0505 13.4979 3.0505C14.079 3.0505 14.5502 3.52177 14.5502 4.103ZM17.5382 5.17122C17.4714 3.76133 17.1494 2.51246 16.1168 1.48352C15.0881 0.45458 13.8395 0.132545 12.4299 0.0618543C10.9772 -0.0206181 6.62282 -0.0206181 5.17006 0.0618543C3.76442 0.128618 2.51583 0.450653 1.48319 1.47959C0.450552 2.50854 0.132515 3.7574 0.0618405 5.16729C-0.0206135 6.62037 -0.0206135 10.9757 0.0618405 12.4288C0.128589 13.8387 0.450552 15.0875 1.48319 16.1165C2.51583 17.1454 3.76049 17.4675 5.17006 17.5381C6.62282 17.6206 10.9772 17.6206 12.4299 17.5381C13.8395 17.4714 15.0881 17.1493 16.1168 16.1165C17.1455 15.0875 17.4675 13.8387 17.5382 12.4288C17.6206 10.9757 17.6206 6.6243 17.5382 5.17122ZM15.6613 13.9879C15.3551 14.7576 14.7622 15.3507 13.9887 15.6609C12.8304 16.1204 10.082 16.0144 8.80196 16.0144C7.52196 16.0144 4.76957 16.1165 3.61521 15.6609C2.84564 15.3546 2.25276 14.7616 1.94258 13.9879C1.48319 12.8294 1.5892 10.0803 1.5892 8.8C1.5892 7.51971 1.48712 4.76671 1.94258 3.61209C2.24883 2.84235 2.84172 2.24934 3.61521 1.93908C4.7735 1.47959 7.52196 1.58563 8.80196 1.58563C10.082 1.58563 12.8344 1.48352 13.9887 1.93908C14.7583 2.24541 15.3512 2.83842 15.6613 3.61209C16.1207 4.77063 16.0147 7.51971 16.0147 8.8C16.0147 10.0803 16.1207 12.8333 15.6613 13.9879Z" fill="#3F3C38"/>
</svg>
