<svg width="89" height="91" viewBox="0 0 89 91" fill="none" xmlns="http://www.w3.org/2000/svg">
<path d="M88.7486 37.1058C89.2258 39.6403 86.8184 42.4241 86.854 44.9159C86.8896 47.4789 89.3611 50.2057 88.9551 52.6762C88.542 55.1894 85.3227 56.9906 84.4894 59.3615C83.6489 61.7607 85.0378 65.171 83.7985 67.3709C82.5592 69.578 78.9197 70.1689 77.3171 72.1268C75.7217 74.0847 75.8642 77.7655 73.9411 79.4243C72.0323 81.0689 68.4141 80.3855 66.2205 81.6812C64.0695 82.9627 62.937 86.4727 60.5439 87.3769C58.2149 88.2526 55.0526 86.373 52.517 86.85C49.9814 87.327 47.7307 90.2389 45.2379 90.2674C42.6738 90.303 40.3448 87.4481 37.8733 87.0422C35.3591 86.6293 32.2395 88.5872 29.8607 87.7542C27.4604 86.9141 26.2496 83.4326 24.0488 82.1938C21.8408 80.955 18.2369 81.7311 16.2783 80.1292C14.3196 78.5344 14.3695 74.8465 12.7099 72.9242C11.0647 71.0161 7.41088 70.5249 6.10749 68.3321C4.82546 66.182 6.13598 62.7361 5.23144 60.3439C4.35538 58.0159 1.09333 56.2929 0.609012 53.7655C0.131812 51.2309 2.53917 48.4472 2.50356 45.9553C2.46795 43.3923 -0.00351948 40.6655 0.402457 38.195C0.815555 35.6818 4.03488 33.8806 4.8682 31.5098C5.70864 29.1105 4.31977 25.7002 5.55907 23.5003C6.79837 21.2932 10.4379 20.7023 12.0404 18.7444C13.6359 16.7866 13.4934 13.1058 15.4165 11.4469C17.3253 9.8023 20.9434 10.4858 23.1371 9.19002C25.2881 7.9085 26.4205 4.39856 28.8137 3.49438C31.1427 2.61868 34.305 4.49824 36.8406 4.02123C39.3762 3.54422 41.6268 0.632324 44.1197 0.603846C46.6837 0.568248 49.0128 3.42319 51.4842 3.829C53.9984 4.24193 57.118 2.28406 59.4969 3.11705C61.8972 3.95715 63.108 7.43861 65.3088 8.67741C67.5167 9.91621 71.1207 9.14018 73.0793 10.7421C75.038 12.3369 74.9881 16.0248 76.6476 17.9471C78.2929 19.8551 81.9467 20.3463 83.2501 22.5392C84.5321 24.6893 83.2216 28.1351 84.1261 30.5273C85.0093 32.8554 88.2714 34.5712 88.7486 37.1058Z" fill="#F7F0E7"/>
<path d="M49.8034 76.619L37.9161 76.3912C37.1896 76.3769 36.6127 75.7789 36.627 75.0527L36.7124 70.4179C36.7196 69.948 36.976 69.5422 37.3463 69.3143L43.3078 65.2918C43.7636 64.9857 44.369 64.9928 44.8177 65.3203L50.6296 69.5635C50.715 69.6205 50.7863 69.6774 50.8575 69.7486C51.0997 69.9978 51.2279 70.3396 51.2279 70.6813L51.1424 75.3232C51.1353 75.6721 50.9928 75.9996 50.7364 76.2417C50.4943 76.4908 50.1524 76.6261 49.8034 76.619ZM39.2836 73.7854L48.5427 73.9634L48.5926 71.3221L44.0271 67.983L39.3335 71.1441L39.2836 73.7854Z" fill="#FF784B"/>
<path d="M44.0273 67.7125L42.6954 67.6841C42.261 67.677 41.8621 67.4562 41.6271 67.0932L24.7755 41.6194C24.7399 41.5696 24.7114 41.5126 24.6829 41.4628C23.237 38.793 22.5248 35.938 22.5818 32.9763C22.7812 22.418 32.8523 14.0169 45.0316 14.2448C57.2108 14.4726 66.9543 23.251 66.7548 33.8093C66.6979 36.771 65.8859 39.5975 64.3332 42.2103C64.3048 42.2673 64.2763 42.3171 64.2406 42.367L46.4347 67.1786C46.1854 67.5274 45.7723 67.7339 45.3449 67.7268L44.0273 67.7125ZM43.4433 65.0712L44.0843 65.0854L44.7182 65.0997L62.0754 40.9075C63.4002 38.679 64.0982 36.2798 64.1481 33.7666C64.319 24.6535 55.7294 17.0783 45.0031 16.8719C34.2696 16.6654 25.4022 23.9131 25.2313 33.0261C25.1815 35.5393 25.7869 37.96 27.0262 40.2382L43.4433 65.0712Z" fill="#FF784B"/>
<path d="M45.0173 67.7267L43.0444 67.6911C42.439 67.6769 41.919 67.2569 41.7837 66.6588L33.3152 28.4482C33.3081 28.4126 33.3009 28.377 33.2938 28.3414C33.1229 27.4942 33.0445 26.6327 33.0588 25.7784C33.1799 19.2996 38.5573 14.1308 45.0386 14.2518C51.52 14.3729 56.698 19.7481 56.5769 26.2269C56.5627 27.0813 56.4487 27.9356 56.2493 28.7757C56.2422 28.8113 56.235 28.8469 56.2279 28.8825L46.3135 66.7443C46.1568 67.3352 45.6227 67.741 45.0173 67.7267ZM35.9077 27.9712L44.0842 64.8789L53.6567 28.3058C53.6638 28.2773 53.6639 28.256 53.671 28.2275C53.8419 27.5512 53.9345 26.8606 53.9487 26.17C54.0413 21.1364 50.0243 16.9644 44.9959 16.8718C39.9604 16.7793 35.7866 20.7947 35.6941 25.8211C35.6798 26.5046 35.7439 27.2023 35.8935 27.8858C35.8935 27.9214 35.9006 27.9427 35.9077 27.9712Z" fill="#FF784B"/>
<path d="M44.8747 50.7965C36.5059 50.6399 30.2097 48.561 29.818 48.4257C29.1271 48.1908 28.7638 47.4503 28.9918 46.7597C29.2268 46.0691 29.9675 45.706 30.6584 45.9339C30.7937 45.9766 44.6325 50.5331 58.2078 46.4607C58.9058 46.2542 59.6323 46.6458 59.8459 47.3435C60.0525 48.0413 59.6608 48.7674 58.9628 48.981C54.0626 50.4548 49.1909 50.882 44.8747 50.7965Z" fill="#FF784B"/>
</svg>
