<svg width="20" height="19" viewBox="0 0 20 19" fill="none" xmlns="http://www.w3.org/2000/svg">
<path d="M17.8286 0H1.36714C0.612857 0 0 0.595536 0 1.32661V17.0734C0 17.8045 0.612857 18.4 1.36714 18.4H17.8286C18.5829 18.4 19.2 17.8045 19.2 17.0734V1.32661C19.2 0.595536 18.5829 0 17.8286 0ZM5.80286 15.7714H2.95714V6.99036H5.80714V15.7714H5.80286ZM4.38 5.79107C3.46714 5.79107 2.73 5.08054 2.73 4.20982C2.73 3.33911 3.46714 2.62857 4.38 2.62857C5.28857 2.62857 6.03 3.33911 6.03 4.20982C6.03 5.08464 5.29286 5.79107 4.38 5.79107ZM16.47 15.7714H13.6243V11.5C13.6243 10.4814 13.6029 9.17125 12.1457 9.17125C10.6629 9.17125 10.4357 10.2802 10.4357 11.4261V15.7714H7.59V6.99036H10.32V8.18964H10.3586C10.74 7.49964 11.67 6.77268 13.0543 6.77268C15.9343 6.77268 16.47 8.59214 16.47 10.9579V15.7714Z" fill="#3F3C38"/>
</svg>
