<!-- Generator: Adobe Illustrator 24.1.2, SVG Export Plug-In  -->
<svg version="1.1" xmlns="http://www.w3.org/2000/svg" xmlns:xlink="http://www.w3.org/1999/xlink" x="0px" y="0px" width="28.8px"
	 height="43.2px" viewBox="0 0 28.8 43.2" style="overflow:visible;enable-background:new 0 0 28.8 43.2;" xml:space="preserve">
<style type="text/css">
	.st0{fill:#787878;}
</style>
<defs>
</defs>
<path class="st0" d="M14.4,0c-1.4,0-2.8,0.2-4.1,0.7C9,1.3,7.8,2.1,6.9,3c-1,1-1.8,2.2-2.3,3.5C4,7.8,3.8,9.2,3.8,10.6V20
	c-1,0.1-2,0.5-2.7,1.3C0.4,22,0,23.1,0,24.1v15c0,0.5,0.1,1.1,0.3,1.6c0.2,0.5,0.5,1,0.9,1.3c0.4,0.4,0.8,0.7,1.3,0.9
	c0.5,0.2,1,0.3,1.6,0.3h20.5c1.1,0,2.1-0.4,2.9-1.2c0.8-0.8,1.2-1.8,1.2-2.9v-15c0-1-0.4-2.1-1.1-2.8C27,20.5,26,20,25,20v-9.3
	c0-1.4-0.2-2.8-0.7-4.1C23.7,5.2,22.9,4,22,3c-1-1-2.2-1.8-3.5-2.3C17.2,0.2,15.8,0,14.4,0z M16.8,37.2H12l1.1-5.7
	c-0.6-0.3-1-0.8-1.3-1.4c-0.3-0.6-0.3-1.3-0.2-1.9c0.2-0.6,0.5-1.2,1-1.6c0.5-0.4,1.1-0.6,1.8-0.6c0.6,0,1.3,0.2,1.8,0.6
	c0.5,0.4,0.9,1,1,1.6c0.2,0.6,0.1,1.3-0.2,1.9c-0.3,0.6-0.7,1.1-1.3,1.4L16.8,37.2z M21.2,19.9H7.6v-9.3c0-4,2.8-6.8,6.8-6.8
	c4,0,6.8,2.8,6.8,6.8V19.9z"/>
</svg>
