<!-- Generator: Adobe Illustrator 24.1.2, SVG Export Plug-In  -->
<svg version="1.1" xmlns="http://www.w3.org/2000/svg" xmlns:xlink="http://www.w3.org/1999/xlink" x="0px" y="0px" width="67px"
	 height="68px" viewBox="0 0 67 68" style="overflow:visible;enable-background:new 0 0 67 68;" xml:space="preserve">
<style type="text/css">
	.st0{fill:#BB7CE8;}
	.st1{fill:#FFFFFF;}
</style>
<defs>
</defs>
<path class="st0" d="M66.8,27.7c0.4,1.9-1.5,4-1.4,5.9c0,1.9,1.9,4,1.6,5.9c-0.3,1.9-2.7,3.3-3.4,5.1C63,46.4,64,49,63.1,50.6
	c-0.9,1.7-3.7,2.1-4.9,3.6c-1.2,1.5-1.1,4.3-2.6,5.5c-1.4,1.2-4.2,0.7-5.8,1.7c-1.6,1-2.5,3.6-4.3,4.3c-1.8,0.7-4.2-0.8-6.1-0.4
	c-1.9,0.4-3.6,2.6-5.5,2.6c-1.9,0-3.7-2.1-5.6-2.4c-1.9-0.3-4.3,1.2-6.1,0.5c-1.8-0.6-2.7-3.3-4.4-4.2c-1.7-0.9-4.4-0.4-5.9-1.6
	c-1.5-1.2-1.4-4-2.7-5.5c-1.2-1.4-4-1.8-5-3.5c-1-1.6,0-4.2-0.7-6.1c-0.7-1.8-3.1-3.1-3.5-5c-0.4-1.9,1.5-4,1.4-5.9
	c0-1.9-1.9-4-1.6-5.9c0.3-1.9,2.7-3.3,3.4-5.1C4,21.6,3,19,3.9,17.4c0.9-1.7,3.7-2.1,4.9-3.6c1.2-1.5,1.1-4.3,2.6-5.5
	c1.4-1.2,4.2-0.7,5.8-1.7c1.6-1,2.5-3.6,4.3-4.3c1.8-0.7,4.2,0.8,6.1,0.4S31.2,0,33.1,0c1.9,0,3.7,2.1,5.6,2.4
	c1.9,0.3,4.3-1.2,6.1-0.5c1.8,0.6,2.7,3.3,4.4,4.2c1.7,0.9,4.4,0.4,5.9,1.6c1.5,1.2,1.4,4,2.7,5.5c1.2,1.4,4,1.8,5,3.5
	c1,1.6,0,4.2,0.7,6.1C64,24.5,66.4,25.8,66.8,27.7z"/>
<path class="st1" d="M37.1,56.5l-8.5-0.2c-0.5,0-0.9-0.4-0.9-1l0.1-3.3c0-0.3,0.2-0.6,0.5-0.8l4.3-2.9c0.3-0.2,0.8-0.2,1.1,0
	l4.2,3.1c0.1,0,0.1,0.1,0.2,0.1c0.2,0.2,0.3,0.4,0.3,0.7l-0.1,3.3c0,0.3-0.1,0.5-0.3,0.7C37.6,56.4,37.4,56.5,37.1,56.5z M29.6,54.5
	l6.7,0.1l0-1.9L33,50.3l-3.4,2.3L29.6,54.5z"/>
<path class="st1" d="M33,50.1l-1,0c-0.3,0-0.6-0.2-0.8-0.4L19.1,31.3c0,0,0-0.1-0.1-0.1c-1-1.9-1.6-4-1.5-6.1
	c0.1-7.6,7.4-13.6,16.1-13.5c8.8,0.2,15.8,6.5,15.6,14.1c0,2.1-0.6,4.2-1.7,6c0,0,0,0.1-0.1,0.1L34.7,49.7c-0.2,0.3-0.5,0.4-0.8,0.4
	L33,50.1z M32.6,48.2l0.5,0l0.5,0L46,30.8c1-1.6,1.5-3.3,1.5-5.1c0.1-6.6-6.1-12-13.8-12.2c-7.7-0.1-14.1,5.1-14.2,11.6
	c0,1.8,0.4,3.5,1.3,5.2L32.6,48.2z"/>
<path class="st1" d="M33.7,50.1l-1.4,0c-0.4,0-0.8-0.3-0.9-0.7l-6.1-27.5c0,0,0-0.1,0-0.1c-0.1-0.6-0.2-1.2-0.2-1.8
	c0.1-4.7,4-8.4,8.6-8.3s8.4,4,8.3,8.6c0,0.6-0.1,1.2-0.2,1.8c0,0,0,0.1,0,0.1l-7.1,27.2C34.5,49.8,34.1,50.1,33.7,50.1z M27.1,21.5
	L33,48.1l6.9-26.3c0,0,0,0,0-0.1c0.1-0.5,0.2-1,0.2-1.5c0.1-3.6-2.8-6.6-6.4-6.7c-3.6-0.1-6.6,2.8-6.7,6.4C27,20.5,27,21,27.1,21.5
	C27.1,21.5,27.1,21.5,27.1,21.5z"/>
<path class="st1" d="M33.6,37.9c-6-0.1-10.5-1.6-10.8-1.7c-0.5-0.2-0.8-0.7-0.6-1.2c0.2-0.5,0.7-0.8,1.2-0.6c0.1,0,10,3.3,19.8,0.4
	c0.5-0.1,1,0.1,1.2,0.6c0.1,0.5-0.1,1-0.6,1.2C40.2,37.7,36.7,38,33.6,37.9z"/>
</svg>
