<!-- Generator: Adobe Illustrator 24.1.2, SVG Export Plug-In  -->
<svg version="1.1" xmlns="http://www.w3.org/2000/svg" xmlns:xlink="http://www.w3.org/1999/xlink" x="0px" y="0px" width="157.3px"
	 height="47.3px" viewBox="0 0 157.3 47.3" style="overflow:visible;enable-background:new 0 0 157.3 47.3;" xml:space="preserve">
<style type="text/css">
	.st0{fill:#F9B047;}
	.st1{fill:#FBF7F5;}
</style>
<defs>
</defs>
<path class="st0" d="M16.7,0C7.5,0,0,6.5,0,14.5C0,16.8,0.6,19,1.8,21c0,0,0,0,0,0l13,18.9l-3.1,2.2c-0.3,0.2-0.4,0.4-0.4,0.8v3.5
	c0,0.5,0.4,0.9,0.9,0.9h9.1c0.5,0,0.9-0.4,0.9-0.9v-3.5c0-0.1,0-0.3-0.1-0.4c-0.1-0.2-0.2-0.3-0.4-0.4l-3.1-2.2l13-18.9c0,0,0,0,0,0
	c1.2-2,1.8-4.2,1.8-6.5C33.5,6.5,26,0,16.7,0z M16.7,1.8c3.9,0,7.1,3.2,7.1,7.1c0,0.5-0.1,1.1-0.2,1.6c0,0,0,0,0,0.1l-3.7,15.2
	c-2.3,0.2-4.5,0.1-6.4-0.1L9.9,10.5c0,0,0,0,0-0.1C9.7,9.9,9.7,9.4,9.7,8.9C9.7,5,12.8,1.8,16.7,1.8z M3.3,20
	c-1-1.7-1.5-3.6-1.5-5.5c0-4.9,3.3-9.2,8.1-11.3c-1.3,1.5-2,3.5-2,5.6c0,0.6,0.1,1.3,0.2,1.9c0,0,0,0.1,0,0.1l3.5,14.6
	c-2.9-0.4-4.9-0.9-5.3-1.1L3.3,20z M12.1,27.4l2,8.3l-6.2-9.1C8.9,26.9,10.4,27.2,12.1,27.4z M20.4,43.3v2.2h-7.3v-2.2l3.6-2.5
	L20.4,43.3z M16.8,38.8C16.7,38.8,16.7,38.8,16.8,38.8L14,27.5c1,0.1,2,0.1,3.1,0.1c0.8,0,1.5,0,2.3-0.1L16.8,38.8z M21.4,27.4
	C21.4,27.4,21.4,27.4,21.4,27.4c1.4-0.2,2.8-0.4,4.2-0.7l-6.2,9L21.4,27.4z M30.2,20l-3,4.4c-1.8,0.6-3.6,0.9-5.3,1.2l3.5-14.7
	c0,0,0-0.1,0-0.1c0.1-0.6,0.2-1.3,0.2-1.9c0-2.1-0.8-4.1-2-5.6c4.8,2.1,8.1,6.4,8.1,11.3C31.7,16.4,31.2,18.3,30.2,20z"/>
<path class="st1" d="M80.4,18.6c-1.6-1-3.5-1.5-5.7-1.5c-2.2,0-4.1,0.5-5.6,1.5c-1.6,1-2.8,2.3-3.7,4c-0.9,1.7-1.3,3.5-1.3,5.6
	c0,2,0.5,3.9,1.3,5.5c0.9,1.7,2.2,3,3.8,4c1.6,1,3.5,1.5,5.7,1.5c2.5,0,4.6-0.6,6.2-1.8c1.6-1.2,2.8-2.8,3.5-4.7c0-0.1,0-0.2,0-0.3
	c-0.1-0.1-0.1-0.1-0.2-0.1H81c-0.1,0-0.2,0.1-0.2,0.1c-0.5,1-1.3,1.8-2.2,2.4c-0.9,0.6-2.1,0.9-3.6,0.9c-1.3,0-2.5-0.3-3.5-0.9
	c-1-0.6-1.8-1.4-2.4-2.3c-0.5-0.9-0.9-1.9-1.1-2.9h17.1c0.2,0,0.3-0.1,0.3-0.3v-1.3c0-2-0.4-3.9-1.3-5.6
	C83.2,20.9,82,19.6,80.4,18.6z M74.8,20.5c1.9,0,3.5,0.6,4.6,1.7c1.1,1.1,1.8,2.4,2.1,4H68c0.3-1.6,1-2.9,2.1-4
	C71.3,21.1,72.8,20.5,74.8,20.5z"/>
<path class="st1" d="M103.6,18.6c-1.6-1-3.5-1.5-5.7-1.5c-2.2,0-4.1,0.5-5.6,1.5c-1.6,1-2.8,2.3-3.7,4c-0.9,1.7-1.3,3.5-1.3,5.6
	c0,2,0.5,3.9,1.3,5.5c0.9,1.7,2.2,3,3.8,4c1.6,1,3.5,1.5,5.7,1.5c2.5,0,4.6-0.6,6.2-1.8c1.6-1.2,2.8-2.8,3.5-4.7c0-0.1,0-0.2,0-0.3
	c-0.1-0.1-0.1-0.1-0.2-0.1h-3.4c-0.1,0-0.2,0.1-0.2,0.1c-0.5,1-1.3,1.8-2.2,2.4c-0.9,0.6-2.1,0.9-3.6,0.9c-1.3,0-2.5-0.3-3.5-0.9
	c-1-0.6-1.8-1.4-2.4-2.3c-0.5-0.9-0.9-1.9-1.1-2.9h17.1c0.2,0,0.3-0.1,0.3-0.3v-1.3c0-2-0.4-3.9-1.3-5.6
	C106.4,20.9,105.2,19.6,103.6,18.6z M97.9,20.5c1.9,0,3.5,0.6,4.6,1.7c1.1,1.1,1.8,2.4,2.1,4H91.2c0.3-1.6,1-2.9,2.1-4
	C94.5,21.1,96,20.5,97.9,20.5z"/>
<path class="st1" d="M138.9,17.4h-3.3c-0.1,0-0.2,0.1-0.3,0.2l-4.7,16.1l-5-16.1c0-0.1-0.1-0.2-0.3-0.2h-3.4c-0.1,0-0.2,0.1-0.3,0.2
	l-5,16.1l-4.7-16.1c0-0.1-0.1-0.2-0.3-0.2h-3.3c-0.1,0-0.2,0-0.2,0.1c-0.1,0.1-0.1,0.2,0,0.3l6.5,20.8c0,0.1,0.1,0.2,0.3,0.2h3.6
	c0.1,0,0.2-0.1,0.3-0.2l4.9-15.8l4.9,15.8c0,0.1,0.1,0.2,0.3,0.2h3.6c0.1,0,0.2-0.1,0.3-0.2l6.5-20.8c0-0.1,0-0.2,0-0.3
	C139.1,17.5,139,17.4,138.9,17.4z"/>
<path class="st1" d="M156.2,29.4c-0.7-0.8-1.6-1.4-2.7-1.8c-1.1-0.4-2.2-0.8-3.4-1c-1.2-0.2-2.3-0.5-3.3-0.7c-1-0.3-1.9-0.6-2.5-1
	c-0.6-0.4-0.9-0.9-0.9-1.7c0-1.8,1.5-2.7,4.7-2.7c1.7,0,2.9,0.3,3.6,0.9c0.7,0.6,1.1,1.3,1.2,2.1c0,0.1,0.1,0.2,0.3,0.2h3.2
	c0.1,0,0.2,0,0.2-0.1c0.1-0.1,0.1-0.1,0.1-0.2c-0.1-1.1-0.5-2.1-1.1-3c-0.6-0.9-1.5-1.7-2.7-2.3c-1.2-0.6-2.7-0.9-4.6-0.9
	c-2.7,0-4.9,0.5-6.3,1.6c-1.4,1.1-2.2,2.6-2.2,4.6c0,1.3,0.4,2.4,1.1,3.2c0.7,0.8,1.6,1.4,2.7,1.8c1.1,0.4,2.2,0.7,3.4,1
	c1.2,0.2,2.3,0.5,3.3,0.8c1,0.3,1.9,0.6,2.5,1.1c0.6,0.4,0.9,1,0.9,1.8c0,0.6-0.2,1.1-0.5,1.5c-0.4,0.4-0.8,0.7-1.3,0.9
	c-0.5,0.2-1.1,0.4-1.7,0.4c-0.6,0.1-1.1,0.1-1.5,0.1c-1.3,0-2.3-0.2-3.1-0.6c-0.8-0.4-1.4-0.9-1.7-1.5c-0.4-0.6-0.6-1.3-0.7-1.9
	c0-0.1-0.1-0.2-0.3-0.2h-3.2c-0.1,0-0.2,0-0.2,0.1c-0.1,0.1-0.1,0.1-0.1,0.2c0.1,1.3,0.5,2.5,1.2,3.5c0.7,1.1,1.8,2,3.1,2.6
	c1.3,0.7,3,1,5,1c2.6,0,4.8-0.6,6.3-1.7c1.6-1.1,2.4-2.8,2.4-4.9C157.3,31.3,156.9,30.2,156.2,29.4z"/>
<path class="st1" d="M60.9,22.6c-0.9-1.7-2.1-3-3.6-4c-1.6-1-3.4-1.5-5.5-1.5c-1.8,0-3.3,0.3-4.6,1c-1,0.5-1.9,1.3-2.6,2.1v-8.8
	v-0.2V8.9c0-0.2-0.1-0.3-0.3-0.3h-3.1c-0.2,0-0.3,0.1-0.3,0.3v2.3v27.3c0,0.2,0.1,0.3,0.3,0.3h3.1c0.2,0,0.3-0.1,0.3-0.3V36
	c0.7,0.8,1.6,1.5,2.6,2.1c1.3,0.7,2.8,1,4.6,1c2.1,0,3.9-0.5,5.5-1.5s2.8-2.3,3.6-4c0.9-1.7,1.3-3.5,1.3-5.5
	C62.2,26.1,61.8,24.2,60.9,22.6z M57.7,32c-0.6,1.2-1.4,2.1-2.4,2.8c-1,0.7-2.3,1-3.8,1c-1.5,0-2.7-0.3-3.8-1
	c-1-0.7-1.8-1.6-2.4-2.8c-0.5-1.2-0.8-2.4-0.8-3.8c0-1.4,0.3-2.7,0.8-3.8c0.5-1.1,1.3-2.1,2.4-2.8c1-0.7,2.3-1,3.8-1
	c1.5,0,2.8,0.3,3.8,1c1,0.7,1.9,1.6,2.4,2.8c0.6,1.2,0.8,2.4,0.8,3.8C58.5,29.5,58.2,30.8,57.7,32z"/>
</svg>
