<!-- Generator: Adobe Illustrator 24.1.2, SVG Export Plug-In  -->
<svg version="1.1" xmlns="http://www.w3.org/2000/svg" xmlns:xlink="http://www.w3.org/1999/xlink" x="0px" y="0px" width="67px"
	 height="68px" viewBox="0 0 67 68" style="overflow:visible;enable-background:new 0 0 67 68;" xml:space="preserve">
<style type="text/css">
	.st0{fill:#E9E1DC;}
</style>
<defs>
</defs>
<path class="st0" d="M66.8,27.7c0.4,1.9-1.5,4-1.4,5.9c0,1.9,1.9,4,1.6,5.9c-0.3,1.9-2.7,3.3-3.4,5.1C63,46.4,64,49,63.1,50.6
	c-0.9,1.7-3.7,2.1-4.9,3.6c-1.2,1.5-1.1,4.3-2.6,5.5c-1.4,1.2-4.2,0.7-5.8,1.7c-1.6,1-2.5,3.6-4.3,4.3c-1.8,0.7-4.2-0.8-6.1-0.4
	c-1.9,0.4-3.6,2.6-5.5,2.6c-1.9,0-3.7-2.1-5.6-2.4c-1.9-0.3-4.3,1.2-6.1,0.5c-1.8-0.6-2.7-3.3-4.4-4.2c-1.7-0.9-4.4-0.4-5.9-1.6
	c-1.5-1.2-1.4-4-2.7-5.5c-1.2-1.4-4-1.8-5-3.5c-1-1.6,0-4.2-0.7-6.1c-0.7-1.8-3.1-3.1-3.5-5c-0.4-1.9,1.5-4,1.4-5.9
	c0-1.9-1.9-4-1.6-5.9c0.3-1.9,2.7-3.3,3.4-5.1C4,21.6,3,19,3.9,17.4c0.9-1.7,3.7-2.1,4.9-3.6c1.2-1.5,1.1-4.3,2.6-5.5
	c1.4-1.2,4.2-0.7,5.8-1.7c1.6-1,2.5-3.6,4.3-4.3c1.8-0.7,4.2,0.8,6.1,0.4S31.2,0,33.1,0c1.9,0,3.7,2.1,5.6,2.4
	c1.9,0.3,4.3-1.2,6.1-0.5c1.8,0.6,2.7,3.3,4.4,4.2c1.7,0.9,4.4,0.4,5.9,1.6c1.5,1.2,1.4,4,2.7,5.5c1.2,1.4,4,1.8,5,3.5
	c1,1.6,0,4.2,0.7,6.1C64,24.5,66.4,25.8,66.8,27.7z"/>
</svg>
