<!-- Generator: Adobe Illustrator 24.1.2, SVG Export Plug-In  -->
<svg version="1.1" xmlns="http://www.w3.org/2000/svg" xmlns:xlink="http://www.w3.org/1999/xlink" x="0px" y="0px" width="77.2px"
	 height="21.4px" viewBox="0 0 77.2 21.4" style="overflow:visible;enable-background:new 0 0 77.2 21.4;" xml:space="preserve">
<style type="text/css">
	.st0{fill:#3463AC;}
	.st1{fill:#FAB610;}
</style>
<defs>
</defs>
<path class="st0" d="M72,0.3h-4.9c-1.5,0-2.6,0.4-3.3,1.7l-9.3,19.1h6.5c0,0,1.1-2.6,1.4-3.2c0.7,0,7.1,0,8,0
	c0.2,0.7,0.8,3.1,0.8,3.1h5.9L72,0.3z M64.3,13.7c0.6-1.2,2.5-5.8,2.5-5.8c0,0.1,0.6-1.2,0.8-1.9l0.5,1.8c0,0,1.2,5,1.5,6h-5.2V13.7
	z"/>
<path class="st0" d="M55.1,14.3c0,4.3-4.3,7.1-10.9,7.1c-2.8,0-5.5-0.5-7-1.1l0.9-4.7l0.8,0.3c2,0.8,3.4,1.1,5.9,1.1
	c1.8,0,3.7-0.6,3.7-2c0-0.9-0.8-1.5-3.3-2.6c-2.4-1-5.5-2.7-5.5-5.6C39.6,2.8,44,0,50.2,0c2.4,0,4.4,0.4,5.6,0.9L55,5.4L54.5,5
	c-1.1-0.4-2.6-0.8-4.7-0.8c-2.4,0.1-3.5,1-3.5,1.8c0,0.9,1.4,1.6,3.5,2.6C53.4,10.1,55.1,11.8,55.1,14.3z"/>
<path class="st1" d="M0,0.5l0.1-0.4h9.7c1.4,0,2.4,0.4,2.7,1.7l2.1,9.2C12.5,6.1,7.6,2.1,0,0.5z"/>
<path class="st0" d="M28.3,0.3L18.5,21h-6.7L6.2,3.7c4.1,2.3,7.4,6,8.7,8.6l0.7,2.1l6.1-14.2h6.7V0.3z"/>
<path class="st0" d="M30.9,0.2h6.2l-4,20.8H27L30.9,0.2z"/>
</svg>
