<!-- Generator: Adobe Illustrator 24.1.2, SVG Export Plug-In  -->
<svg version="1.1" xmlns="http://www.w3.org/2000/svg" xmlns:xlink="http://www.w3.org/1999/xlink" x="0px" y="0px" width="55px"
	 height="56px" viewBox="0 0 55 56" style="overflow:visible;enable-background:new 0 0 55 56;" xml:space="preserve">
<style type="text/css">
	.st0{fill:#84EF96;}
	.st1{fill:#FFFFFF;}
</style>
<defs>
</defs>
<path class="st0" d="M54.8,22.8c0.3,1.6-1.2,3.3-1.2,4.9c0,1.6,1.6,3.3,1.3,4.8c-0.3,1.6-2.3,2.7-2.8,4.2c-0.5,1.5,0.3,3.6-0.4,5
	c-0.8,1.4-3,1.7-4,3c-1,1.2-0.9,3.5-2.1,4.6c-1.2,1-3.4,0.6-4.8,1.4c-1.3,0.8-2,3-3.5,3.6c-1.4,0.5-3.4-0.6-5-0.3
	c-1.6,0.3-3,2.1-4.5,2.1c-1.6,0-3-1.8-4.6-2c-1.6-0.3-3.5,1-5,0.4c-1.5-0.5-2.2-2.7-3.6-3.5c-1.4-0.8-3.6-0.3-4.8-1.3
	c-1.2-1-1.2-3.3-2.2-4.5c-1-1.2-3.3-1.5-4.1-2.9c-0.8-1.3,0-3.5-0.5-5c-0.5-1.5-2.6-2.5-2.9-4.1c-0.3-1.6,1.2-3.3,1.2-4.9
	c0-1.6-1.6-3.3-1.3-4.8c0.3-1.6,2.3-2.7,2.8-4.2c0.5-1.5-0.3-3.6,0.4-5c0.8-1.4,3-1.7,4-3c1-1.2,0.9-3.5,2.1-4.6
	c1.2-1,3.4-0.6,4.8-1.4c1.3-0.8,2-3,3.5-3.6c1.4-0.5,3.4,0.6,5,0.3c1.6-0.3,3-2.1,4.5-2.1c1.6,0,3,1.8,4.6,2c1.6,0.3,3.5-1,5-0.4
	c1.5,0.5,2.2,2.7,3.6,3.5c1.4,0.8,3.6,0.3,4.8,1.3c1.2,1,1.2,3.3,2.2,4.5c1,1.2,3.3,1.5,4.1,2.9c0.8,1.3,0,3.5,0.5,5
	C52.5,20.1,54.5,21.2,54.8,22.8z"/>
<path class="st1" d="M27.5,39c-6.1,0-11-4.9-11-11s4.9-11,11-11s11,4.9,11,11S33.6,39,27.5,39z M27.5,36.8c2.3,0,4.6-0.9,6.2-2.6
	c1.7-1.7,2.6-3.9,2.6-6.2c0-2.3-0.9-4.6-2.6-6.2c-1.7-1.7-3.9-2.6-6.2-2.6c-2.3,0-4.6,0.9-6.2,2.6s-2.6,3.9-2.6,6.2
	c0,2.3,0.9,4.6,2.6,6.2C22.9,35.9,25.2,36.8,27.5,36.8z M26.4,32.4l-4.7-4.7l1.6-1.6l3.1,3.1l6.2-6.2l1.6,1.6L26.4,32.4z"/>
</svg>
