<!-- Generator: Adobe Illustrator 24.1.2, SVG Export Plug-In  -->
<svg version="1.1" xmlns="http://www.w3.org/2000/svg" xmlns:xlink="http://www.w3.org/1999/xlink" x="0px" y="0px" width="111.2px"
	 height="27.2px" viewBox="0 0 111.2 27.2" style="overflow:visible;enable-background:new 0 0 111.2 27.2;" xml:space="preserve">
<style type="text/css">
	.st0{fill:#253675;}
	.st1{fill:#2198D5;}
	.st2{fill:#252D5E;}
</style>
<defs>
</defs>
<path class="st0" d="M42.3,11.7c-0.3,2.2-2,2.2-3.6,2.2h-0.9l0.7-4.2c0-0.3,0.3-0.4,0.6-0.4h0.4c1.2,0,2.2,0,2.7,0.6
	C42.3,10.4,42.3,10.9,42.3,11.7z M41.6,5.9h-6.2c-0.4,0-0.7,0.3-0.9,0.7l-2.4,15.8c0,0.3,0.1,0.6,0.6,0.6h2.9c0.4,0,0.7-0.3,0.9-0.7
	l0.7-4.3c0-0.4,0.4-0.7,0.9-0.7h2c4,0,6.3-2,7.1-5.9c0.3-1.7,0-3-0.7-4C45.2,6.5,43.6,5.9,41.6,5.9z"/>
<path class="st0" d="M55.9,17.4c-0.3,1.7-1.6,2.9-3.3,2.9c-0.9,0-1.6-0.3-2-0.9c-0.4-0.6-0.6-1.3-0.4-2c0.3-1.7,1.6-2.9,3.3-2.9
	c0.9,0,1.6,0.3,2,0.9C55.7,15.8,56,16.6,55.9,17.4z M59.9,11.7H57c-0.3,0-0.4,0.1-0.6,0.4L56.3,13l-0.1-0.3c-0.6-0.9-2-1.3-3.5-1.3
	c-3.3,0-6,2.4-6.6,5.9c-0.3,1.7,0.1,3.3,1.2,4.5c0.9,1,2.2,1.4,3.7,1.4c2.6,0,4-1.7,4-1.7l-0.1,0.9c0,0.3,0.1,0.6,0.6,0.6H58
	c0.4,0,0.7-0.3,0.9-0.7l1.6-10.1C60.5,12,60.4,11.7,59.9,11.7z"/>
<path class="st0" d="M75.6,11.7h-3c-0.3,0-0.6,0.1-0.7,0.4l-4,6l-1.7-5.8c-0.1-0.4-0.4-0.6-0.9-0.6h-2.9c-0.3,0-0.6,0.3-0.4,0.7
	l3.3,9.5l-3,4.3c-0.3,0.3,0,0.9,0.4,0.9h3c0.3,0,0.6-0.1,0.7-0.4l9.8-14.3C76.3,12.1,76.1,11.7,75.6,11.7z"/>
<path class="st1" d="M86.1,11.7c-0.3,2.2-2,2.2-3.6,2.2h-0.9l0.7-4.2c0-0.3,0.3-0.4,0.6-0.4h0.4c1.2,0,2.2,0,2.7,0.6
	C86.3,10.4,86.3,10.9,86.1,11.7z M85.4,5.9h-6.2c-0.4,0-0.7,0.3-0.9,0.7l-2.4,15.8c0,0.3,0.1,0.6,0.6,0.6h3.2c0.3,0,0.6-0.1,0.6-0.6
	l0.7-4.5c0-0.4,0.4-0.7,0.9-0.7h2c4,0,6.3-2,7.1-5.9c0.3-1.7,0-3-0.7-4C89.2,6.5,87.6,5.9,85.4,5.9z"/>
<path class="st1" d="M99.8,17.4c-0.3,1.7-1.6,2.9-3.3,2.9c-0.9,0-1.6-0.3-2-0.9c-0.4-0.6-0.6-1.3-0.4-2c0.3-1.7,1.6-2.9,3.3-2.9
	c0.9,0,1.6,0.3,2,0.9C99.7,15.8,100,16.6,99.8,17.4z M103.9,11.7H101c-0.3,0-0.4,0.1-0.6,0.4l-0.1,0.9l-0.1-0.3
	c-0.6-0.9-2-1.3-3.5-1.3c-3.3,0-6,2.4-6.6,5.9c-0.3,1.7,0.1,3.3,1.2,4.5c0.9,1,2.2,1.4,3.7,1.4c2.6,0,4-1.7,4-1.7l-0.1,0.9
	c0,0.3,0.1,0.6,0.6,0.6h2.6c0.4,0,0.7-0.3,0.9-0.7l1.6-10.1C104.4,12,104.1,11.7,103.9,11.7z"/>
<path class="st1" d="M107.3,6.3l-2.6,16.1c0,0.3,0.1,0.6,0.6,0.6h2.6c0.4,0,0.7-0.3,0.9-0.7l2.4-15.8c0-0.3-0.1-0.6-0.6-0.6h-2.9
	C107.6,5.9,107.5,6.2,107.3,6.3z"/>
<path class="st0" d="M6.5,26.1l0.4-3h-1h-5L4.3,1c0,0,0-0.1,0.1-0.1h0.1h8.5c2.7,0,4.8,0.6,5.8,1.7c0.4,0.6,0.7,1.2,0.9,1.7
	c0.1,0.7,0.1,1.4,0,2.4v0.6l0.4,0.3c0.4,0.1,0.7,0.4,1,0.7c0.4,0.4,0.7,1,0.7,1.7c0.1,0.7,0.1,1.6-0.1,2.6c-0.3,1.2-0.6,2-1,2.9
	c-0.4,0.7-1,1.3-1.6,1.9c-0.6,0.4-1.4,0.7-2.2,1c-0.9,0.1-1.7,0.3-2.7,0.3h-0.7c-0.4,0-0.9,0.1-1.3,0.4c-0.3,0.3-0.6,0.7-0.7,1.2
	v0.3l-0.9,5.3v0.1v0.1c0,0,0,0-0.1,0h-4V26.1z"/>
<path class="st1" d="M20.7,6.8c0,0.1,0,0.3-0.1,0.4c-1.2,5.8-4.9,7.6-9.8,7.6H8.4c-0.6,0-1.2,0.4-1.2,1l-1.3,8.1l-0.3,2.3
	c0,0.4,0.3,0.7,0.6,0.7h4.5c0.6,0,1-0.4,1-0.9v-0.3l0.9-5.2v-0.3c0.1-0.6,0.6-0.9,1-0.9h0.7c4.3,0,7.6-1.7,8.5-6.8
	c0.4-2.2,0.1-3.9-0.9-5C21.6,7.3,21.2,7.1,20.7,6.8z"/>
<path class="st2" d="M19.6,6.3c-0.1,0-0.3-0.1-0.6-0.1c-0.1,0-0.4-0.1-0.6-0.1c-0.7-0.1-1.4-0.1-2.2-0.1H9.7c-0.1,0-0.3,0-0.4,0.1
	C8.9,6.2,8.6,6.5,8.6,6.8l-1.4,8.9V16c0.1-0.6,0.6-1,1.2-1h2.4c4.9,0,8.6-2,9.8-7.6c0-0.1,0-0.3,0.1-0.4c-0.3-0.1-0.6-0.3-0.9-0.4
	C19.7,6.3,19.6,6.3,19.6,6.3z"/>
<path class="st0" d="M8.6,6.8c0-0.3,0.3-0.6,0.6-0.7c0.1,0,0.3-0.1,0.4-0.1h6.6c0.7,0,1.6,0,2.2,0.1c0.1,0,0.4,0,0.6,0.1
	c0.1,0,0.3,0.1,0.6,0.1c0.1,0,0.1,0,0.3,0.1c0.3,0.1,0.6,0.3,0.9,0.4c0.3-2.2,0-3.6-1.2-4.9c-1.3-1.4-3.6-2-6.5-2H4.6
	C4,0,3.5,0.4,3.5,1L0,23.2c0,0.4,0.3,0.9,0.7,0.9h5.2l1.3-8.4L8.6,6.8z"/>
</svg>
