<svg width="158" height="48" viewBox="0 0 158 48" fill="none" xmlns="http://www.w3.org/2000/svg">
<path d="M16.7386 0C7.50858 0 0 6.50571 0 14.5054C0 16.7773 0.591898 18.9563 1.7576 20.9801C1.76277 20.9904 1.77053 21.0008 1.77569 21.0111L14.7975 39.9131L11.732 42.0661C11.4761 42.2264 11.3055 42.5133 11.3055 42.8364V46.3723C11.3055 46.8711 11.7113 47.2769 12.2102 47.2769H21.2722C21.771 47.2769 22.1768 46.8711 22.1768 46.3723V42.8467C22.1768 42.7201 22.1587 42.5908 22.107 42.4771C22.0269 42.3013 21.9028 42.1592 21.7503 42.0661L18.6823 39.9105L31.704 21.0085C31.7118 20.9982 31.717 20.9853 31.7247 20.9749C32.8878 18.9511 33.4797 16.7748 33.4797 14.5054C33.4797 6.50571 25.9686 0 16.7386 0ZM16.7386 1.8093C20.6286 1.8093 23.7948 4.97556 23.7948 8.86555C23.7948 9.398 23.7328 9.93303 23.6113 10.4577C23.6061 10.4758 23.6036 10.4939 23.601 10.512L19.9229 25.7411C17.6251 25.9065 15.4514 25.8419 13.5413 25.6739L9.87876 10.5146C9.87617 10.4965 9.871 10.4758 9.86842 10.4577C9.74694 9.93303 9.68491 9.39542 9.68491 8.86555C9.68491 4.97556 12.8486 1.8093 16.7386 1.8093ZM3.29809 20.0289C2.31073 18.2972 1.8093 16.4387 1.8093 14.5054C1.8093 9.59702 5.1048 5.33484 9.90977 3.22313C8.64068 4.75586 7.87561 6.72283 7.87561 8.86555C7.87561 9.50914 7.94798 10.1579 8.09014 10.7963C8.09531 10.8222 8.10048 10.848 8.10565 10.8739L11.6286 25.462C8.7389 25.0768 6.74092 24.516 6.30152 24.3867L3.29809 20.0289ZM12.0861 27.3643L14.1022 35.7129L7.8601 26.6535C8.94826 26.8939 10.3905 27.1627 12.0861 27.3643ZM20.3649 43.3042V45.4676H13.1122V43.3068L16.7386 40.7609L20.3649 43.3042ZM16.7825 38.75C16.736 38.75 16.7437 38.75 16.6972 38.75L13.991 27.5478C14.9836 27.6228 16.0355 27.6667 17.1366 27.6667C17.8939 27.6667 18.6745 27.6435 19.4732 27.5969L16.7825 38.75ZM21.3755 27.4393C21.3755 27.4367 21.3755 27.4367 21.3755 27.4393C22.748 27.2868 24.1567 27.0516 25.5809 26.7104L19.3776 35.7155L21.3755 27.4393ZM30.1816 20.0289L27.1782 24.3893C25.3844 24.9579 23.5829 25.3301 21.8305 25.5524L25.3741 10.8739C25.3793 10.848 25.3844 10.8222 25.3896 10.7989C25.5318 10.1605 25.6041 9.51173 25.6041 8.86555C25.6041 6.72283 24.8391 4.75586 23.57 3.22313C28.3749 5.33484 31.6704 9.59961 31.6704 14.5054C31.6704 16.4387 31.169 18.2946 30.1816 20.0289Z" fill="#FAF7F4"/>
<path d="M80.4292 18.5944C78.8499 17.6122 76.9424 17.1159 74.7609 17.1159C72.6053 17.1159 70.7055 17.6122 69.1133 18.5944C67.5211 19.574 66.2805 20.9155 65.4275 22.58C64.5772 24.2394 64.1455 26.1107 64.1455 28.1449C64.1455 30.1558 64.5978 32.022 65.4921 33.6943C66.3865 35.3717 67.6633 36.7184 69.2813 37.698C70.9019 38.6776 72.8146 39.1764 74.9677 39.1764C77.4904 39.1764 79.5891 38.5613 81.1994 37.349C82.8019 36.142 83.9909 34.5653 84.7301 32.663C84.7637 32.5751 84.7534 32.4769 84.6991 32.4019C84.6474 32.3244 84.5595 32.2778 84.4665 32.2778H81.0495C80.9461 32.2778 80.8505 32.3347 80.8014 32.4252C80.2715 33.4074 79.5168 34.2215 78.563 34.8445C77.6144 35.4648 76.4203 35.7775 75.009 35.7775C73.6753 35.7775 72.4889 35.488 71.4809 34.9194C70.4729 34.3482 69.6587 33.5676 69.0616 32.6009C68.5137 31.7144 68.1466 30.7322 67.9631 29.6776H85.0894C85.2445 29.6776 85.3711 29.551 85.3711 29.3959V28.1449C85.3711 26.1107 84.9395 24.2368 84.0891 22.58C83.2413 20.9155 82.0084 19.574 80.4292 18.5944ZM74.7609 20.5122C76.6736 20.5122 78.2348 21.0886 79.3953 22.2233C80.4912 23.296 81.1994 24.6323 81.507 26.196H68.02C68.3482 24.6297 69.0616 23.2934 70.1472 22.2207C71.2948 21.086 72.8482 20.5122 74.7609 20.5122Z" fill="#FAF7F4"/>
<path d="M103.611 18.5944C102.032 17.6122 100.124 17.1159 97.9425 17.1159C95.7869 17.1159 93.8871 17.6122 92.295 18.5944C90.7028 19.574 89.4621 20.9155 88.6092 22.58C87.7588 24.2394 87.3271 26.1107 87.3271 28.1449C87.3271 30.1558 87.7795 32.022 88.6738 33.6943C89.5707 35.3717 90.8449 36.7184 92.463 37.698C94.0836 38.6776 95.9963 39.1764 98.1493 39.1764C100.672 39.1764 102.771 38.5613 104.381 37.349C105.984 36.142 107.173 34.5653 107.912 32.663C107.945 32.5751 107.935 32.4769 107.881 32.4019C107.829 32.3244 107.741 32.2778 107.648 32.2778H104.231C104.128 32.2778 104.032 32.3347 103.983 32.4252C103.453 33.4074 102.698 34.2215 101.745 34.8445C100.796 35.4648 99.6019 35.7775 98.1907 35.7775C96.857 35.7775 95.6706 35.488 94.6625 34.9194C93.6545 34.3482 92.8403 33.5676 92.2433 32.6009C91.6953 31.7144 91.3283 30.7322 91.1448 29.6776H108.271C108.426 29.6776 108.553 29.551 108.553 29.3959V28.1449C108.553 26.1107 108.121 24.2368 107.271 22.58C106.42 20.9155 105.19 19.574 103.611 18.5944ZM97.9425 20.5122C99.8552 20.5122 101.416 21.0886 102.577 22.2233C103.673 23.296 104.381 24.6323 104.689 26.196H91.2016C91.5299 24.6297 92.2433 23.2934 93.3288 22.2207C94.4764 21.086 96.0299 20.5122 97.9425 20.5122Z" fill="#FAF7F4"/>
<path d="M138.88 17.4469H135.548C135.424 17.4469 135.313 17.5296 135.277 17.6485L130.541 33.7125L125.527 17.646C125.491 17.5271 125.38 17.4469 125.258 17.4469H121.841C121.717 17.4469 121.609 17.5271 121.572 17.646L116.558 33.7125L111.82 17.6485C111.784 17.5271 111.676 17.4469 111.549 17.4469H108.215C108.124 17.4469 108.042 17.4909 107.987 17.5632C107.936 17.6356 107.92 17.7287 107.946 17.814L114.485 38.6441C114.521 38.763 114.63 38.8431 114.754 38.8431H118.336C118.46 38.8431 118.569 38.763 118.605 38.6441L123.545 22.8826L128.484 38.6441C128.52 38.763 128.629 38.8431 128.753 38.8431H132.335C132.459 38.8431 132.568 38.763 132.604 38.6441L139.143 17.814C139.172 17.7287 139.156 17.6356 139.102 17.5632C139.053 17.4883 138.968 17.4469 138.88 17.4469Z" fill="#FAF7F4"/>
<path d="M156.194 29.352C155.502 28.5585 154.597 27.9356 153.504 27.504C152.439 27.0826 151.294 26.7492 150.102 26.5114C148.931 26.2788 147.81 26.0255 146.763 25.7644C145.744 25.5086 144.904 25.1648 144.268 24.7409C143.679 24.348 143.395 23.7975 143.395 23.0608C143.395 21.2335 144.925 20.3443 148.071 20.3443C149.743 20.3443 150.953 20.6441 151.658 21.236C152.372 21.8331 152.77 22.5232 152.873 23.3452C152.891 23.4873 153.01 23.5933 153.152 23.5933H156.318C156.399 23.5933 156.476 23.5597 156.528 23.5002C156.582 23.4408 156.608 23.3607 156.598 23.2805C156.481 22.2131 156.109 21.2024 155.489 20.2771C154.866 19.3518 153.946 18.5841 152.754 17.9948C151.568 17.4081 150.019 17.1108 148.151 17.1108C145.406 17.1108 143.297 17.6562 141.878 18.7289C140.435 19.8222 139.704 21.3756 139.704 23.3477C139.704 24.6918 140.066 25.7722 140.777 26.558C141.472 27.3256 142.376 27.9253 143.467 28.3414C144.53 28.7472 145.672 29.0806 146.864 29.3313C148.021 29.5769 149.146 29.8354 150.208 30.099C151.227 30.3549 152.064 30.7116 152.697 31.1613C153.289 31.5826 153.579 32.159 153.579 32.9293C153.579 33.5599 153.411 34.0562 153.064 34.4517C152.708 34.86 152.26 35.1702 151.736 35.3744C151.19 35.5863 150.617 35.7363 150.03 35.8164C149.438 35.8965 148.931 35.9379 148.528 35.9379C147.243 35.9379 146.192 35.744 145.401 35.3615C144.62 34.9841 144.036 34.4878 143.664 33.883C143.284 33.2704 143.054 32.6294 142.974 31.9781C142.955 31.8359 142.837 31.73 142.694 31.73H139.445C139.368 31.73 139.293 31.7636 139.239 31.8204C139.187 31.8773 139.159 31.9548 139.164 32.0324C139.249 33.2989 139.657 34.4853 140.376 35.5657C141.097 36.6461 142.149 37.5275 143.509 38.184C144.858 38.8379 146.533 39.1713 148.484 39.1713C151.113 39.1713 153.248 38.6156 154.832 37.5171C156.448 36.3979 157.264 34.7566 157.264 32.6398C157.264 31.2725 156.905 30.1662 156.194 29.352Z" fill="#FAF7F4"/>
<path d="M60.9114 22.5748C60.0584 20.9128 58.8384 19.5714 57.2902 18.5917C55.7368 17.6096 53.8991 17.1107 51.8287 17.1107C50.0685 17.1107 48.5306 17.4571 47.259 18.1446C46.2457 18.6925 45.3721 19.4008 44.6562 20.2589V11.4579V11.2538V8.91976C44.6562 8.76468 44.5295 8.63803 44.3744 8.63803H41.2495C41.0944 8.63803 40.9678 8.76468 40.9678 8.91976V11.2538V38.5535C40.9678 38.7085 41.0944 38.8352 41.2495 38.8352H44.3744C44.5295 38.8352 44.6562 38.7085 44.6562 38.5535V36.0463C45.3721 36.8863 46.2457 37.5868 47.259 38.1347C48.5306 38.8197 50.0685 39.1686 51.8287 39.1686C53.9017 39.1686 55.7394 38.6698 57.2902 37.6876C58.841 36.7054 60.0584 35.3588 60.9114 33.6813C61.7618 32.0116 62.1908 30.1454 62.1908 28.1371C62.1934 26.1029 61.7618 24.2316 60.9114 22.5748ZM57.6572 31.9547C57.0989 33.1101 56.2848 34.0457 55.2354 34.7358C54.1886 35.4234 52.904 35.7723 51.4126 35.7723C49.9496 35.7723 48.6831 35.4234 47.6518 34.7358C46.6179 34.0457 45.8244 33.1126 45.2946 31.9573C44.7595 30.7942 44.4881 29.5096 44.4881 28.1397C44.4881 26.7413 44.7595 25.4516 45.2946 24.3014C45.8244 23.1615 46.6205 22.231 47.6544 21.5409C48.6857 20.8534 49.9522 20.5044 51.4152 20.5044C52.9065 20.5044 54.1911 20.8534 55.238 21.5409C56.2873 22.2336 57.1015 23.1615 57.6598 24.304C58.2207 25.4541 58.505 26.7439 58.505 28.1371C58.5024 29.507 58.2181 30.789 57.6572 31.9547Z" fill="#FAF7F4"/>
</svg>
