<!-- Generator: Adobe Illustrator 24.1.2, SVG Export Plug-In  -->
<svg version="1.1" xmlns="http://www.w3.org/2000/svg" xmlns:xlink="http://www.w3.org/1999/xlink" x="0px" y="0px" width="64.8px"
	 height="38.9px" viewBox="0 0 64.8 38.9" style="overflow:visible;enable-background:new 0 0 64.8 38.9;" xml:space="preserve">
<style type="text/css">
	.st0{fill:#FAB610;}
	.st1{fill:#C81C1D;}
	.st2{fill:#FFFFFF;}
</style>
<defs>
</defs>
<path class="st0" d="M64.8,19.4c0,10.7-8.7,19.4-19.4,19.4c-10.7,0-19.4-8.8-19.4-19.4C25.9,8.8,34.6,0,45.3,0
	C56.1,0,64.8,8.8,64.8,19.4z"/>
<path class="st1" d="M38.8,19.5c0-1.4-0.2-2.8-0.4-4.1h-12c0.1-0.7,0.3-1.3,0.5-2.1h10.7c-0.2-0.7-0.5-1.4-0.8-2.1h-9.1
	c0.3-0.7,0.7-1.3,1.1-2.1h6.9c-0.4-0.7-0.9-1.4-1.5-2.1h-3.8c0.6-0.7,1.2-1.3,2-2C29,1.9,24.4,0,19.3,0C8.8,0.3,0,8.8,0,19.4
	c0,10.7,8.7,19.4,19.4,19.4c5.1,0,9.6-2,13.1-5.1c0.7-0.6,1.3-1.3,2-2.1h-4c-0.5-0.6-1-1.3-1.4-2h6.8c0.4-0.6,0.8-1.3,1.1-2.1h-9.1
	c-0.3-0.6-0.6-1.3-0.8-2.1h10.7C38.4,23.7,38.8,21.7,38.8,19.5z"/>
<path class="st2" d="M26.3,24.4l0.3-1.8c-0.1,0-0.3,0.1-0.5,0.1c-0.7,0-0.8-0.4-0.7-0.6l0.6-3.6h1.1l0.3-2h-1l0.2-1.2h-2.1
	c0,0-1.2,6.8-1.2,7.6c0,1.2,0.7,1.8,1.7,1.8C25.6,24.7,26.1,24.5,26.3,24.4z"/>
<path class="st2" d="M27,21.1c0,2.9,2,3.6,3.6,3.6c1.5,0,2.2-0.3,2.2-0.3l0.4-2c0,0-1.1,0.5-2.2,0.5c-2.3,0-1.9-1.7-1.9-1.7h4.2
	c0,0,0.3-1.3,0.3-1.9c0-1.3-0.7-3-3-3C28.6,16.3,27,18.5,27,21.1z M30.6,18.1c1.1,0,0.9,1.3,0.9,1.4h-2.3
	C29.3,19.4,29.5,18.1,30.6,18.1z"/>
<path class="st2" d="M43.7,24.4l0.4-2.3c0,0-1,0.5-1.8,0.5c-1.4,0-2.1-1.1-2.1-2.4c0-2.5,1.2-3.8,2.7-3.8c1,0,1.9,0.6,1.9,0.6
	l0.3-2.2c0,0-1.2-0.5-2.4-0.5c-2.4,0-4.7,2.1-4.7,6c0,2.6,1.2,4.3,3.7,4.3C42.6,24.7,43.7,24.4,43.7,24.4z"/>
<path class="st2" d="M15.1,16.3c-1.4,0-2.5,0.4-2.5,0.4l-0.3,1.8c0,0,0.9-0.4,2.3-0.4c0.7,0,1.3,0.1,1.3,0.7c0,0.4-0.1,0.5-0.1,0.5
	h-0.9c-1.8,0-3.7,0.7-3.7,3.1c0,1.9,1.2,2.3,2,2.3c1.4,0,2.1-0.9,2.2-0.9l-0.1,0.8H17l0.8-5.7C17.8,16.4,15.8,16.3,15.1,16.3z
	 M15.5,20.8c0,0.3-0.2,2-1.4,2c-0.6,0-0.8-0.5-0.8-0.8c0-0.5,0.3-1.2,1.9-1.2C15.4,20.8,15.5,20.8,15.5,20.8z"/>
<path class="st2" d="M19.7,24.6c0.5,0,3.1,0.1,3.1-2.7c0-2.6-2.5-2.1-2.5-3.1c0-0.5,0.4-0.7,1.1-0.7c0.3,0,1.4,0.1,1.4,0.1l0.3-1.9
	c0,0-0.7-0.2-2-0.2c-1.5,0-3.1,0.6-3.1,2.7c0,2.4,2.6,2.2,2.6,3.1c0,0.6-0.7,0.7-1.2,0.7c-0.9,0-1.9-0.3-1.9-0.3l-0.3,1.9
	C17.5,24.4,18,24.6,19.7,24.6z"/>
<path class="st2" d="M60.8,14.7l-0.4,2.8c0,0-0.8-1-2-1c-1.9,0-3.5,2.3-3.5,5c0,1.7,0.8,3.4,2.6,3.4c1.2,0,2-0.8,2-0.8l-0.1,0.7h2.1
	l1.5-9.9L60.8,14.7z M59.8,20c0,1.1-0.5,2.6-1.7,2.6c-0.7,0-1.1-0.6-1.1-1.7c0-1.7,0.7-2.7,1.7-2.7C59.4,18.3,59.8,18.8,59.8,20z"/>
<path class="st2" d="M3.8,24.5L5,17.2l0.2,7.4h1.4l2.7-7.4l-1.1,7.4h2.2l1.7-9.9H8.7l-2.1,6.1l-0.1-6.1h-3l-1.7,9.9H3.8z"/>
<path class="st2" d="M35.7,24.5c0.6-3.4,0.7-6.2,2.2-5.7c0.2-1.3,0.5-1.9,0.7-2.4h-0.4c-0.9,0-1.7,1.2-1.7,1.2l0.2-1.1h-2l-1.3,8
	H35.7z"/>
<path class="st2" d="M48.5,16.3c-1.4,0-2.5,0.4-2.5,0.4l-0.3,1.8c0,0,0.9-0.4,2.3-0.4c0.7,0,1.3,0.1,1.3,0.7c0,0.4-0.1,0.5-0.1,0.5
	h-0.9c-1.8,0-3.7,0.7-3.7,3.1c0,1.9,1.2,2.3,2,2.3c1.4,0,2.1-0.9,2.2-0.9l-0.1,0.8h1.9l0.8-5.7C51.4,16.4,49.2,16.3,48.5,16.3z
	 M49,20.8c0,0.3-0.2,2-1.4,2c-0.6,0-0.8-0.5-0.8-0.8c0-0.5,0.3-1.2,1.9-1.2C48.9,20.8,48.9,20.8,49,20.8z"/>
<path class="st2" d="M52.9,24.5c0.6-3.4,0.7-6.2,2.2-5.7c0.2-1.3,0.5-1.9,0.7-2.4h-0.4c-0.9,0-1.7,1.2-1.7,1.2l0.2-1.1h-2l-1.3,8
	H52.9z"/>
</svg>
