<!-- Generator: Adobe Illustrator 24.1.2, SVG Export Plug-In  -->
<svg version="1.1" xmlns="http://www.w3.org/2000/svg" xmlns:xlink="http://www.w3.org/1999/xlink" x="0px" y="0px" width="1009px"
	 height="850.8px" viewBox="0 0 1009 850.8" style="overflow:visible;enable-background:new 0 0 1009 850.8;" xml:space="preserve">
<style type="text/css">
	.st0{fill:#A07EB7;}
	.st1{fill:#EF774F;}
</style>
<defs>
</defs>
<path class="st0" d="M749.2,466.4C856,359.7,856,186.7,749.2,80c-106.8-106.7-280-106.7-386.8,0s-106.8,279.7,0,386.3
	C469.3,573,642.4,573,749.2,466.4z"/>
<path class="st1" d="M1004.3,801.9l-378-654.8c-6.3-10-16.3-16.3-28.9-16.3c-11.3,0-22.6,6.3-28.9,16.3L382.4,469.8
	c-6,10.4-21.1,10.4-27.1,0l-50.5-88.1c-6.3-10-16.3-16.3-28.9-16.3c-11.3,0-22.6,6.3-28.9,16.3L4.7,801.9c-6.3,10-6.3,22.6,0,32.6
	c6.3,10,16.3,16.3,28.9,16.3h185.9h298.9h457.1c11.3,0,22.6-6.3,28.9-16.3C1010.6,824.5,1010.6,812,1004.3,801.9z"/>
</svg>
