<!-- Generator: Adobe Illustrator 24.1.2, SVG Export Plug-In  -->
<svg version="1.1" xmlns="http://www.w3.org/2000/svg" xmlns:xlink="http://www.w3.org/1999/xlink" x="0px" y="0px" width="266.4px"
	 height="225px" viewBox="0 0 266.4 225" style="overflow:visible;enable-background:new 0 0 266.4 225;" xml:space="preserve">
<style type="text/css">
	.st0{fill:#FBBA2B;}
	.st1{fill:#CFE5C9;}
	.st2{fill:#555593;}
	.st3{fill:#6868A0;}
	.st4{fill:#6F6CB0;}
	.st5{fill:#14152A;}
	.st6{fill:#F9CABE;}
	.st7{fill:#202142;}
	.st8{fill:none;stroke:#14152A;stroke-width:1.609;stroke-linecap:round;stroke-linejoin:round;stroke-miterlimit:10;}
	.st9{fill:none;stroke:#202142;stroke-width:1.0726;stroke-linecap:round;stroke-linejoin:round;stroke-miterlimit:10;}
	.st10{fill:none;stroke:#ED6780;stroke-width:1.9396;stroke-linecap:round;stroke-miterlimit:10;}
	.st11{fill:url(#SVGID_1_);}
	.st12{fill:url(#SVGID_2_);}
	.st13{fill:url(#SVGID_3_);}
	.st14{fill:none;stroke:#ED6780;stroke-width:1.0726;stroke-linecap:round;stroke-miterlimit:10;}
	.st15{fill:none;stroke:#202142;stroke-width:1.0726;stroke-linecap:round;stroke-miterlimit:10;}
	.st16{fill:#FFFFFF;}
	.st17{fill:url(#SVGID_4_);}
	.st18{fill:url(#SVGID_5_);}
	.st19{fill:url(#SVGID_6_);}
	.st20{fill:url(#SVGID_7_);}
	.st21{fill:url(#SVGID_8_);}
	.st22{fill:url(#SVGID_9_);}
	.st23{fill:url(#SVGID_10_);}
	.st24{fill:url(#SVGID_11_);}
	.st25{fill:url(#SVGID_12_);}
</style>
<defs>
</defs>
<path class="st0" d="M259.3,83.7c-1.3-1.3-2.7-2.4-4.2-3.4l-108-75.9c-8.3-5.8-19.4-5.8-27.7,0l-108,75.9C4.5,84.5,0,92.1,0,100.7
	l0,85.1C0,199.2,10.8,210,24.1,210l218.2,0c6.4,0,12.5-2.5,17-7.1c4.5-4.5,7.1-10.7,7.1-17.1l0-85.2
	C266.4,94.3,263.9,88.2,259.3,83.7z"/>
<path class="st1" d="M209,161.7c21.6-21.2,12.3-40.7,12.3-40.7l-10.2,12.3l6.3-17.1c0,0-6-6.9-14.1-8.4l-4.2,24l-3.2-22.2
	c0,0-7.6-0.9-16,6l7.2,16.5l-10.8-10.4c0,0-4,8-2,19.4c2,11.4,7.1,24.6,7.1,24.6"/>
<path class="st2" d="M210.6,210.3h-38.1l-5.2-51.3h48.5L210.6,210.3z"/>
<path class="st3" d="M220.6,157h-49.4v9.4h49.4V157z"/>
<path class="st4" d="M120.4,91.8L83.3,103c-9.4,2.8-16.5,10.5-18.8,20.1l-9.6,41.5l23.1,9.6v35.9H163v-47l27.6-6.3l-15.9-36.5
	c-3-6.9-8.8-12.3-15.9-14.9L120.4,91.8z"/>
<path class="st5" d="M54.9,164.5L53.4,210l24.5,0v-35.9L54.9,164.5z"/>
<path class="st6" d="M141.9,201.1l-31.2,3.9c-1.5,0.2-2.7,1.5-2.7,3c0,1.7,1.4,3,3,3h44.6"/>
<path class="st7" d="M190.6,156.7l11.7,38.8c3.7,8.7,1.2,18.8-6.1,24.7c-5.2,4.2-12.1,5.7-18.6,4l-38-9.9l-0.3-16.5l27.6-4.2
	L163,163L190.6,156.7z"/>
<path class="st8" d="M166.7,193.7l11.2-1.9"/>
<path class="st9" d="M163,163v-31"/>
<path class="st9" d="M78,174.1l3.3-42.1"/>
<path class="st6" d="M34.2,115.4l7.2,17.7c0,0,0.4,9.7,4.4,13.4l-0.6,8.8h19.3l-0.7-7.4c0,0,13.7-15.7,14.2-19.1
	c0.5-3.4-4.6-1.9-6.3-0.3c-1.8,1.5-6,6.1-6,6.1l7.4-27c0.3-1.2-0.3-2.5-1.5-2.9l-0.5-0.2c-1.2-0.4-2.6,0.3-3,1.5l-6,18.4l-0.7-25.5
	c-0.1-1.3-1.1-2.4-2.5-2.3c-1.2,0-2.2,1-2.3,2.2l-2.2,25.1l-6-19.8c-0.4-1.3-1.8-2-3.1-1.6l-0.4,0.1c-1.1,0.4-1.7,1.5-1.5,2.6
	l3.4,20.1l-8.3-12.3c-0.9-1.3-2.7-1.4-3.7-0.3l-0.1,0.1C34,113.6,33.9,114.6,34.2,115.4z"/>
<path class="st7" d="M41.2,210h28.2l-4.9-54.7H45.2L41.2,210z"/>
<path class="st10" d="M64.1,135.4c-4.8,2.3-7.9,6.9-7.9,6.9"/>
<path class="st10" d="M51.1,148.7c5.1,1.5,6.9,0,6.9,0"/>
<path class="st7" d="M150.5,53.7c10-3.5,17.1-9.5,15.9-15.1c-1.2-5.6-10.3,1.3-10.3,1.3s8.7-7.1,8.8-12.6c0.1-5.5-11.2-1.2-11.2-1.2
	s10.1-6.6,9.4-12c-0.7-5.4-26.4,4.6-26.4,4.6s7.4-3.9,5.8-7.9c-1.6-4-35.7,11-39.1,14.6c-3.5,3.6-0.5,10.6-0.5,10.6s-9.3-1-8,7.2
	c1.3,8.2,5.5,40.8,18.1,39.4c12.6-1.4,20.9-12.2,20.9-12.2"/>
<linearGradient id="SVGID_1_" gradientUnits="userSpaceOnUse" x1="163.9551" y1="346.7502" x2="110.4211" y2="-28.7928" gradientTransform="matrix(1 0 0 -1 0.138 139.9669)">
	<stop  offset="0" style="stop-color:#F08080"/>
	<stop  offset="1" style="stop-color:#F8C3C1"/>
</linearGradient>
<path class="st11" d="M109.1,83.7c0.1,6.4-0.9,13-1.3,16.2c-0.6,5,9,11,18.6,10.5c9.6-0.5,9.2-8.2,9.2-8.2s0.2-2.5,0.6-5.9
	c0.6-4.5,1.5-10.5,3.1-14.1l-31.5-8.5C108.7,76.6,109.1,80.1,109.1,83.7z"/>
<linearGradient id="SVGID_2_" gradientUnits="userSpaceOnUse" x1="168.534" y1="106.3392" x2="-5.2037" y2="-84.7719" gradientTransform="matrix(1 0 0 -1 0.138 139.9669)">
	<stop  offset="0" style="stop-color:#E56075"/>
	<stop  offset="1" style="stop-color:#F8C3C1"/>
</linearGradient>
<path class="st12" d="M107.8,73.7c1,2.9,1.3,6.4,1.3,10c4.4,6.6,12.5,13.1,27,12.6c0.6-4.5,1.5-10.5,3.1-14.1L107.8,73.7z"/>
<linearGradient id="SVGID_3_" gradientUnits="userSpaceOnUse" x1="127.4818" y1="179.5246" x2="123.2878" y2="62.1022" gradientTransform="matrix(1 0 0 -1 0.138 139.9669)">
	<stop  offset="0" style="stop-color:#F08080"/>
	<stop  offset="1" style="stop-color:#F8C3C1"/>
</linearGradient>
<path class="st13" d="M152,49c1,5.8-2.1,8.6-2.6,18.1c-0.5,9.5-2.9,24.2-22,24c-19.1-0.2-22.2-24-22.2-24s-3.7,3.8-6.8-0.3
	c-3.2-4.1-2.9-12.9,2.3-13.4c5.1-0.5,7.1,10.2,7.1,10.2s2.3-10.1,2.4-13.3c0.1-3.2-0.7-5.8-0.7-5.8S132.7,52.1,152,49z"/>
<path class="st14" d="M99.5,58.4c0.7-1.4,4.9,2.5,2.7,6.5"/>
<path class="st14" d="M131.5,62.4l1.5,8.6c0.2,1.1-0.5,2.3-1.7,2.5l-0.7,0.1"/>
<path class="st7" d="M121.6,65.1c0.7,0,1.3-0.6,1.3-1.3c0-0.7-0.6-1.3-1.3-1.3c-0.7,0-1.3,0.6-1.3,1.3
	C120.2,64.5,120.8,65.1,121.6,65.1z"/>
<path class="st7" d="M139.7,64.9c0,0.7,0.6,1.3,1.3,1.3c0.7,0,1.3-0.6,1.3-1.3c0-0.7-0.6-1.3-1.3-1.3
	C140.3,63.5,139.7,64.1,139.7,64.9z"/>
<path class="st15" d="M127.4,59.6c0,0-3.2-2.9-8.1-0.8"/>
<path class="st15" d="M145.4,59.6c0,0-3.2-2.9-8.1-0.8"/>
<path class="st16" d="M128,79.4l-6.4-1.6c0,0-0.4,3.1,2.4,3.9C126.7,82.5,128,79.4,128,79.4z"/>
<path class="st0" d="M259.3,83.7c-1.3-1.3-2.7-2.4-4.2-3.4l-108-75.9c-8.3-5.8-19.4-5.8-27.7,0l-108,75.9C4.5,84.5,0,92.1,0,100.7
	l0,85.1C0,199.2,10.8,210,24.1,210l218.2,0c6.4,0,12.5-2.5,17-7.1c4.5-4.5,7.1-10.7,7.1-17.1l0-85.2
	C266.4,94.3,263.9,88.2,259.3,83.7z"/>
<path class="st1" d="M209,161.7c21.6-21.2,12.3-40.7,12.3-40.7l-10.2,12.3l6.3-17.1c0,0-6-6.9-14.1-8.4l-4.2,24l-3.2-22.2
	c0,0-7.6-0.9-16,6l7.2,16.5l-10.8-10.4c0,0-4,8-2,19.4c2,11.4,7.1,24.6,7.1,24.6"/>
<path class="st2" d="M210.6,210.3h-38.1l-5.2-51.3h48.5L210.6,210.3z"/>
<path class="st3" d="M220.6,157h-49.4v9.4h49.4V157z"/>
<path class="st4" d="M120.4,91.8L83.3,103c-9.4,2.8-16.5,10.5-18.8,20.1l-9.6,41.5l23.1,9.6v35.9H163v-47l27.6-6.3l-15.9-36.5
	c-3-6.9-8.8-12.3-15.9-14.9L120.4,91.8z"/>
<path class="st5" d="M54.9,164.5L53.4,210l24.5,0v-35.9L54.9,164.5z"/>
<path class="st6" d="M141.9,201.1l-31.2,3.9c-1.5,0.2-2.7,1.5-2.7,3c0,1.7,1.4,3,3,3h44.6"/>
<path class="st7" d="M190.6,156.7l11.7,38.8c3.7,8.7,1.2,18.8-6.1,24.7c-5.2,4.2-12.1,5.7-18.6,4l-38-9.9l-0.3-16.5l27.6-4.2
	L163,163L190.6,156.7z"/>
<path class="st8" d="M166.7,193.7l11.2-1.9"/>
<path class="st9" d="M163,163v-31"/>
<path class="st9" d="M78,174.1l3.3-42.1"/>
<path class="st6" d="M34.2,115.4l7.2,17.7c0,0,0.4,9.7,4.4,13.4l-0.6,8.8h19.3l-0.7-7.4c0,0,13.7-15.7,14.2-19.1
	c0.5-3.4-4.6-1.9-6.3-0.3c-1.8,1.5-6,6.1-6,6.1l7.4-27c0.3-1.2-0.3-2.5-1.5-2.9l-0.5-0.2c-1.2-0.4-2.6,0.3-3,1.5l-6,18.4l-0.7-25.5
	c-0.1-1.3-1.1-2.4-2.5-2.3c-1.2,0-2.2,1-2.3,2.2l-2.2,25.1l-6-19.8c-0.4-1.3-1.8-2-3.1-1.6l-0.4,0.1c-1.1,0.4-1.7,1.5-1.5,2.6
	l3.4,20.1l-8.3-12.3c-0.9-1.3-2.7-1.4-3.7-0.3l-0.1,0.1C34,113.6,33.9,114.6,34.2,115.4z"/>
<path class="st7" d="M41.2,210h28.2l-4.9-54.7H45.2L41.2,210z"/>
<path class="st10" d="M64.1,135.4c-4.8,2.3-7.9,6.9-7.9,6.9"/>
<path class="st10" d="M51.1,148.7c5.1,1.5,6.9,0,6.9,0"/>
<path class="st7" d="M150.5,53.7c10-3.5,17.1-9.5,15.9-15.1c-1.2-5.6-10.3,1.3-10.3,1.3s8.7-7.1,8.8-12.6c0.1-5.5-11.2-1.2-11.2-1.2
	s10.1-6.6,9.4-12c-0.7-5.4-26.4,4.6-26.4,4.6s7.4-3.9,5.8-7.9c-1.6-4-35.7,11-39.1,14.6c-3.5,3.6-0.5,10.6-0.5,10.6s-9.3-1-8,7.2
	c1.3,8.2,5.5,40.8,18.1,39.4c12.6-1.4,20.9-12.2,20.9-12.2"/>
<linearGradient id="SVGID_4_" gradientUnits="userSpaceOnUse" x1="163.9551" y1="346.7502" x2="110.4211" y2="-28.7928" gradientTransform="matrix(1 0 0 -1 0.138 139.9669)">
	<stop  offset="0" style="stop-color:#F08080"/>
	<stop  offset="1" style="stop-color:#F8C3C1"/>
</linearGradient>
<path class="st17" d="M109.1,83.7c0.1,6.4-0.9,13-1.3,16.2c-0.6,5,9,11,18.6,10.5c9.6-0.5,9.2-8.2,9.2-8.2s0.2-2.5,0.6-5.9
	c0.6-4.5,1.5-10.5,3.1-14.1l-31.5-8.5C108.7,76.6,109.1,80.1,109.1,83.7z"/>
<linearGradient id="SVGID_5_" gradientUnits="userSpaceOnUse" x1="168.534" y1="106.3392" x2="-5.2037" y2="-84.7719" gradientTransform="matrix(1 0 0 -1 0.138 139.9669)">
	<stop  offset="0" style="stop-color:#E56075"/>
	<stop  offset="1" style="stop-color:#F8C3C1"/>
</linearGradient>
<path class="st18" d="M107.8,73.7c1,2.9,1.3,6.4,1.3,10c4.4,6.6,12.5,13.1,27,12.6c0.6-4.5,1.5-10.5,3.1-14.1L107.8,73.7z"/>
<linearGradient id="SVGID_6_" gradientUnits="userSpaceOnUse" x1="127.4818" y1="179.5246" x2="123.2878" y2="62.1022" gradientTransform="matrix(1 0 0 -1 0.138 139.9669)">
	<stop  offset="0" style="stop-color:#F08080"/>
	<stop  offset="1" style="stop-color:#F8C3C1"/>
</linearGradient>
<path class="st19" d="M152,49c1,5.8-2.1,8.6-2.6,18.1c-0.5,9.5-2.9,24.2-22,24c-19.1-0.2-22.2-24-22.2-24s-3.7,3.8-6.8-0.3
	c-3.2-4.1-2.9-12.9,2.3-13.4c5.1-0.5,7.1,10.2,7.1,10.2s2.3-10.1,2.4-13.3c0.1-3.2-0.7-5.8-0.7-5.8S132.7,52.1,152,49z"/>
<path class="st14" d="M99.5,58.4c0.7-1.4,4.9,2.5,2.7,6.5"/>
<path class="st14" d="M131.5,62.4l1.5,8.6c0.2,1.1-0.5,2.3-1.7,2.5l-0.7,0.1"/>
<path class="st7" d="M121.6,65.1c0.7,0,1.3-0.6,1.3-1.3c0-0.7-0.6-1.3-1.3-1.3c-0.7,0-1.3,0.6-1.3,1.3
	C120.2,64.5,120.8,65.1,121.6,65.1z"/>
<path class="st7" d="M139.7,64.9c0,0.7,0.6,1.3,1.3,1.3c0.7,0,1.3-0.6,1.3-1.3c0-0.7-0.6-1.3-1.3-1.3
	C140.3,63.5,139.7,64.1,139.7,64.9z"/>
<path class="st15" d="M127.4,59.6c0,0-3.2-2.9-8.1-0.8"/>
<path class="st15" d="M145.4,59.6c0,0-3.2-2.9-8.1-0.8"/>
<path class="st16" d="M128,79.4l-6.4-1.6c0,0-0.4,3.1,2.4,3.9C126.7,82.5,128,79.4,128,79.4z"/>
</svg>
