<!-- Generator: Adobe Illustrator 24.1.2, SVG Export Plug-In  -->
<svg version="1.1" xmlns="http://www.w3.org/2000/svg" xmlns:xlink="http://www.w3.org/1999/xlink" x="0px" y="0px" width="266.4px"
	 height="225.8px" viewBox="0 0 266.4 225.8" style="overflow:visible;enable-background:new 0 0 266.4 225.8;"
	 xml:space="preserve">
<style type="text/css">
	.st0{fill:#FBBA2B;}
	.st1{fill:#BCDAAC;}
	.st2{fill:#555593;}
	.st3{fill:#6868A0;}
	.st4{fill:url(#SVGID_1_);}
	.st5{fill:#202142;}
	.st6{fill:#9392C7;}
	.st7{fill:#EB5D60;}
	.st8{fill:#F9CABE;}
	.st9{fill:none;stroke:#202142;stroke-width:0.9557;stroke-linecap:round;stroke-linejoin:round;stroke-miterlimit:10;}
	.st10{fill:#E53334;}
	.st11{fill:url(#SVGID_2_);}
	.st12{fill:none;stroke:#ED6780;stroke-width:1.4335;stroke-linecap:round;stroke-miterlimit:10;}
	.st13{fill:none;stroke:#202142;stroke-width:1.4335;stroke-linecap:round;stroke-miterlimit:10;}
	.st14{fill:url(#SVGID_3_);}
	.st15{fill:url(#SVGID_4_);}
</style>
<defs>
</defs>
<path class="st0" d="M259.3,83.7c-1.3-1.3-2.7-2.4-4.2-3.4l-108-75.9c-8.3-5.8-19.4-5.8-27.7,0l-108,75.9C4.5,84.5,0,92.1,0,100.7
	l0,85.1C0,199.2,10.8,210,24.1,210l218.2,0c6.4,0,12.5-2.5,17-7.1c4.5-4.5,7.1-10.7,7.1-17.1l0-85.2
	C266.4,94.3,263.9,88.2,259.3,83.7z"/>
<path class="st1" d="M192.7,176.2l-6.3-55.3c-0.2-1.5,2-1.9,2.3-0.4l9.8,37.9l3.8-50.2c0.1-1.5,2.2-1.5,2.4,0l4.3,51l7.2-30.7
	c0.3-1.4,2.5-1.1,2.3,0.4l-4.5,49.2"/>
<path class="st2" d="M215.4,212.4h-34l-4.6-45.7H220L215.4,212.4z"/>
<path class="st3" d="M224.4,165h-44v8.4h44V165z"/>
<linearGradient id="SVGID_1_" gradientUnits="userSpaceOnUse" x1="73.9153" y1="42.1621" x2="187.0727" y2="-163.3359" gradientTransform="matrix(1 0 0 -1 0.138 200.1426)">
	<stop  offset="0" style="stop-color:#E56075"/>
	<stop  offset="1" style="stop-color:#F8C3C1"/>
</linearGradient>
<path class="st4" d="M80.4,182.5l5.7-25.5l-19.2-9.2l-4.1,12.6"/>
<path class="st5" d="M134,112.9v97.5H95l-3.1-101l3.5-5l5.5-7.8l29.5-4.2l2.1,11.8L134,112.9z"/>
<path class="st6" d="M132.5,104.3c-3.8,7-10.2,13.3-19.5,12.8c-12.6-0.7-16.4-8.7-17.5-12.6l5.5-7.8l29.5-4.2L132.5,104.3z"/>
<path class="st7" d="M100.9,96.6c0,0-0.5,5.2-0.9,12.8c0,0.5-0.1,1-0.1,1.6c0,0.1,0,0.1,0,0.2c-0.4,7-0.9,15.9-1,24.6
	c0,0.6,0,1.2,0,1.8c-0.1,2.7-0.1,5.4,0,8c0,4.5,0.1,10.2,0,16.5c0,0.6,0,1.2,0,1.8c0,7.9-0.1,16.6-0.2,24.6c0,0.6,0,1.2,0,1.8
	c-0.2,14.9-0.3,20.3-0.3,20.3L77.7,210c0,0-1,4.3,0,0c0.5-2.2,1.1-4.7,1.8-7.4c1-4.1,2-8.5,2.8-12.5c0.1-0.6,0.2-1.2,0.4-1.8
	c0.9-4.3,1.5-7.9,1.5-9.7c0.2-4.4-1.3-10.7-2.5-14.8c-0.2-0.6-0.4-1.2-0.5-1.8c-0.4-1.5-0.7-2.4-0.7-2.4l-1-0.5l-1.8-0.8l-14.9-7
	l3.7-13.9l0.5-1.8l3.8-14.5c1-3.7,2.6-7.1,4.8-10.1c0.4-0.6,0.9-1.2,1.4-1.8c0.3-0.3,0.5-0.6,0.8-0.9c0.6-0.6,1.1-1.2,1.8-1.7
	c3-2.8,6.5-4.9,10.5-6.3l6.8-2.4L100.9,96.6z"/>
<path class="st7" d="M169.4,190.1l1.2,20.3H129c0,0-0.6-8.1-1.3-20.3c0-0.6-0.1-1.2-0.1-1.8c-0.4-7.2-0.7-15.7-1-24.6
	c0-0.6,0-1.2-0.1-1.8c-0.2-8.1-0.3-16.4-0.3-24.6c0-0.6,0-1.2,0-1.8c0.1-8.8,0.4-17.2,1-24.6c0-0.1,0-0.1,0-0.2
	c0-0.5,0.1-1.1,0.1-1.6c0.6-6.9,1.6-12.7,2.9-16.8c0-0.1,0.1-0.2,0.1-0.3l1.7,0.5l1.5,0.4l19.3,5.4c1.3,0.4,2.6,0.8,3.8,1.4
	c0.6,0.3,1.2,0.5,1.8,0.9c3.8,2,7,4.9,9.4,8.4c0.4,0.6,0.8,1.2,1.1,1.8c1.2,2.1,2.2,4.4,2.8,6.8l4.7,17.8l0.5,1.8l4.8,18.5l-14,4.2
	l0.1,1.9l0.1,1.8l1.5,24.6L169.4,190.1z"/>
<path class="st8" d="M154.1,164.3l12.3,48.5h28.8L181.6,156L154.1,164.3z"/>
<path class="st9" d="M154.1,164.3l-9.8-29.8"/>
<path class="st9" d="M80.4,159.7c-3.7-11.5,5.5-24.5,5.1-31.5"/>
<path class="st10" d="M96.7,98.1l4.2-1.5c0,0-0.5,5.9-1,14.4h-10L96.7,98.1z"/>
<path class="st10" d="M139.3,111h-12c0.6-7.7,1.6-14.2,3.1-18.6l3.1,0.9l1.7,5.2L139.3,111z"/>
<path class="st8" d="M78.6,172.7L59.1,117c0,0,7-13.8,6.7-16.3c-0.3-2.5-3.6-0.5-4.6,0.9c-1,1.4-3.2,5.5-3.2,5.5l0.4-20.7
	c0-0.9-0.7-1.7-1.6-1.8l-0.4,0c-1-0.1-1.8,0.7-1.9,1.6l-0.9,14.3l-5.2-18.1c-0.3-0.9-1.2-1.5-2.2-1.2c-0.9,0.3-1.4,1.1-1.3,2l3,18.3
	L40,88.5c-0.5-0.9-1.7-1.1-2.5-0.5l-0.2,0.1c-0.7,0.5-1,1.4-0.6,2.2l6.1,13.8l-8.2-7.3c-0.9-0.8-2.2-0.5-2.7,0.5l0,0.1
	c-0.3,0.6-0.3,1.3,0.1,1.9l8.4,11.4c0,0,2.1,6.9,5.6,8.8l11.2,63.1c1.1,6.4,7.2,10.6,13.5,9.6c7.2-1.2,11.7-8.6,9.3-15.5L78.6,172.7
	z"/>
<path class="st5" d="M86.5,24.9c-14.5,1-5.3,23.1-5.3,29.2C81.1,65,68.7,77.8,82.3,87.3c13.6,9.5,25-2.3,39.1-3.2
	c14.1-0.9,21.7,4,25.2-10.9C158.5,22.7,103.4-0.2,86.5,24.9z"/>
<path class="st8" d="M130.4,92.4c0,0-2.8,17.6-17.2,17c-14.4-0.5-12.3-12.8-12.3-12.8l2.1-0.4c0,0-0.4-1.5-1-3.4
	c-1.2-4-3.1-10.1-3.2-10.2l24.6-12l1.2-0.6l0.1,0.5l0.6,4.3l2.4,17.2L130.4,92.4z"/>
<linearGradient id="SVGID_2_" gradientUnits="userSpaceOnUse" x1="100.3511" y1="149.8784" x2="145.9881" y2="38.0555" gradientTransform="matrix(1 0 0 -1 0.138 200.1426)">
	<stop  offset="0" style="stop-color:#E56075"/>
	<stop  offset="1" style="stop-color:#F8C3C1"/>
</linearGradient>
<path class="st11" d="M125.2,74.8c-2.5,6.5-10.4,17.9-23.2,18c-1.2-4-3.1-10.1-3.2-10.2l24.6-12c0.5-0.1,0.9-0.1,1.2-0.1L125.2,74.8
	z"/>
<path class="st8" d="M88.1,37.4c-3.4,6-1.9,12.6-2.2,18.4c-0.4,5.8-3.1,27.5,13.5,30.3c16.6,2.9,27.4-13.8,28.6-20.3
	c4.3,4.3,9.3-0.1,9-4.4c-0.4-4.4-4.4-5.3-6.8-3.5c-2.5,1.9-3.3,5.6-3.3,5.6l-1.6-8.9c0,0-1.4-3.3-9-4.3
	C108.8,49.4,94,51.6,88.1,37.4z"/>
<path class="st12" d="M134,59.7c-2.3-0.3-4.1,3.3-2.5,5.1"/>
<path class="st12" d="M101.3,57.4l-2.9,9.2c-0.3,0.9,0.1,1.9,0.9,2.4l1.8,1"/>
<path class="st12" d="M105,77.6c0,0,4.3,1.2,6.4-2"/>
<path class="st5" d="M112.9,60.9c0,0.9-0.7,1.5-1.5,1.5c-0.9,0-1.5-0.7-1.5-1.5c0-0.9,0.7-1.5,1.5-1.5
	C112.2,59.4,112.9,60,112.9,60.9z"/>
<path class="st5" d="M95,60.9c0,0.9-0.7,1.5-1.5,1.5c-0.9,0-1.5-0.7-1.5-1.5c0-0.9,0.7-1.5,1.5-1.5C94.3,59.4,95,60,95,60.9z"/>
<path class="st13" d="M89.8,55.1c0,0,2.3-3.2,6.6-1.3"/>
<path class="st13" d="M107.9,54.1c0,0,3.1-2.4,6.7,0.6"/>
<path class="st8" d="M169.3,206.4c3.3-2,4.1,1.6,4,5.5c-0.1,4,0.1,9.7-3.3,9.4c-0.4,3-5,5-5.7,0.5c-0.8,3.4-1.8,3.3-3.6,3.3
	c-1.9-0.1-1.9-4.5-1.9-4.5s-0.6,5.3-3.2,5.2c-2.6,0-5.1-15-5.1-15s-7.5,1-8.6-0.1c-1.1-1.1-0.8-2.8,1.7-3.5c2.5-0.6,7.1-4.4,8.9-4.7
	c1.8-0.2,4,1.7,4,1.7s2.3-1.1,3.6-0.9c1.3,0.1,2.5,1.5,2.5,1.5S166.6,202.3,169.3,206.4z"/>
<path class="st8" d="M169,223.5c2.5-7,0.5-15.1,0.5-15.1L169,223.5z"/>
<path class="st8" d="M158.9,220.6c0.2-5.2-1.5-12.2-1.5-12.2L158.9,220.6z"/>
<path class="st8" d="M163.8,223.6c1.5-4.8-0.5-13.9-0.5-13.9L163.8,223.6z"/>
</svg>
