<!-- Generator: Adobe Illustrator 24.1.2, SVG Export Plug-In  -->
<svg version="1.1" xmlns="http://www.w3.org/2000/svg" xmlns:xlink="http://www.w3.org/1999/xlink" x="0px" y="0px" width="69.5px"
	 height="70.3px" viewBox="0 0 69.5 70.3" style="overflow:visible;enable-background:new 0 0 69.5 70.3;" xml:space="preserve">
<style type="text/css">
	.st0{fill:#F4F0ED;}
	.st1{opacity:0.1;}
	.st2{opacity:0.1;fill:#EF774F;enable-background:new    ;}
	.st3{fill:#EF774F;}
</style>
<defs>
</defs>
<path class="st0" d="M69.3,28.6c0.4,2-1.5,4.2-1.5,6.1c0,2,2,4.1,1.7,6.1c-0.3,2-2.8,3.4-3.5,5.2c-0.7,1.9,0.4,4.6-0.5,6.3
	c-1,1.7-3.8,2.2-5.1,3.7c-1.3,1.5-1.1,4.4-2.7,5.7c-1.5,1.3-4.3,0.7-6.1,1.8c-1.7,1-2.6,3.8-4.5,4.5c-1.8,0.7-4.3-0.8-6.3-0.4
	c-2,0.4-3.8,2.7-5.7,2.7c-2,0-3.8-2.2-5.8-2.5c-2-0.3-4.4,1.2-6.3,0.6c-1.9-0.7-2.8-3.4-4.6-4.4c-1.7-1-4.6-0.4-6.1-1.6
	c-1.5-1.3-1.5-4.1-2.8-5.6c-1.3-1.5-4.2-1.9-5.2-3.6c-1-1.7,0-4.4-0.7-6.3c-0.7-1.8-3.2-3.2-3.6-5.2c-0.4-2,1.5-4.2,1.5-6.1
	c0-2-2-4.1-1.7-6.1c0.3-2,2.8-3.4,3.5-5.2c0.7-1.9-0.4-4.6,0.5-6.3c1-1.7,3.8-2.2,5.1-3.7c1.3-1.5,1.1-4.4,2.7-5.7
	c1.5-1.3,4.3-0.7,6.1-1.8c1.7-1,2.6-3.8,4.5-4.5c1.8-0.7,4.3,0.8,6.3,0.4c2-0.4,3.7-2.7,5.7-2.7c2,0,3.8,2.2,5.8,2.5
	c2,0.3,4.4-1.2,6.3-0.6c1.9,0.7,2.8,3.4,4.6,4.4c1.7,1,4.6,0.4,6.1,1.6c1.5,1.3,1.5,4.1,2.8,5.6c1.3,1.5,4.2,1.9,5.2,3.6
	c1,1.7,0,4.4,0.7,6.3C66.3,25.3,68.9,26.6,69.3,28.6z"/>
<g class="st1">
	<path class="st2" d="M37,42.1l-0.3-0.4c-1.2-1.6-1.2-3.6,0-5.4c1.2-1.7,2.1-2,3.1-2.2c0.4-0.1,0.5-0.1,0.8-0.6
		c0.8-1.8,2-2.1,2.6-2.2c1-0.1,2,0.4,2.7,1.4c0.9,1.3,1.7,0.8,1.9,0.6l3.3-2.3l-1.8,3.6c-2.3,4.5-6.8,7.3-11.7,7.5L37,42.1z
		 M43.3,33.3C43.3,33.3,43.3,33.3,43.3,33.3c-0.4,0-0.7,0.4-1,1c-0.6,1.3-1.4,1.6-2.2,1.8c-0.5,0.1-1,0.2-1.8,1.4
		c-0.6,0.9-0.7,1.7-0.3,2.6c3.3-0.3,6.3-1.9,8.2-4.5c-0.8-0.2-1.5-0.8-2.1-1.6C43.9,33.5,43.6,33.3,43.3,33.3z"/>
</g>
<g class="st1">
	<path class="st2" d="M32.5,30.8c-1.4,0-2.8-0.3-3.4-1.3c-0.8-1.4,0.3-3.1,0.7-3.6c0.1-0.2,0.2-0.3,0.1-0.5
		c-0.1-0.2-0.2-0.5-0.5-0.8c-0.4-0.4-1-0.8-1.7-1c-0.5-0.1-1-0.1-1.2,0l-3.3,2.2l1.8-3.5c1.1-2.2,2.8-4,4.9-5.3c2.1-1.3,4.6-2,7.2-2
		c0.4,0,0.8,0,1.3,0.1l2.8,0.3l-2.4,1.6c-0.4,0.3-0.6,0.5-0.7,0.7c-0.1,0.3,0.3,0.9,0.7,1.3c0.5,0.7,1.1,1.5,0.8,2.4
		c-0.2,0.8-0.8,1.3-1.4,1.8c-0.9,0.8-1.5,1.4-1.3,2.5c0.3,1.6,0.1,2.8-0.5,3.7c-0.6,0.8-1.5,1.2-2.7,1.4l0,0
		C33.3,30.8,32.9,30.8,32.5,30.8z M27.9,21.5c0.1,0,0.2,0.1,0.4,0.1c1,0.3,1.9,0.8,2.6,1.5c1.2,1.2,1.4,2.7,0.6,3.9
		c-0.7,1.1-0.6,1.4-0.6,1.4c0,0,0.3,0.4,2.7,0.3c0.7-0.1,1.1-0.3,1.3-0.6c0.3-0.4,0.4-1.1,0.2-2.1c-0.4-2.3,1-3.6,1.9-4.4
		c0.3-0.2,0.6-0.6,0.7-0.7c-0.1-0.2-0.3-0.5-0.5-0.7c-0.5-0.7-1.2-1.7-1-2.9c0-0.1,0-0.2,0.1-0.2C32.9,17.3,29.9,18.9,27.9,21.5z"/>
</g>
<g class="st1">
	<path class="st2" d="M45.7,55.9H28.6c-0.7,0-1.3-0.6-1.3-1.3v-2.6c0-0.8,0.6-1.4,1.4-1.4h16.9c0.8,0,1.4,0.6,1.4,1.4v2.6
		C46.9,55.4,46.4,55.9,45.7,55.9z M29.3,53.9h15.5v-1.1H29.3V53.9z"/>
</g>
<path class="st3" d="M49.7,42.6c-0.3,0-0.5-0.1-0.7-0.3l-3.7-3.7c-0.4-0.4-0.4-1,0-1.5c0.4-0.4,1-0.4,1.5,0l3.7,3.7
	c0.4,0.4,0.4,1,0,1.5C50.2,42.5,49.9,42.6,49.7,42.6z"/>
<path class="st3" d="M37.1,45.9c-4.6,0-9-1.8-12.3-5.1c-3.3-3.3-5.1-7.6-5.1-12.3c0-4.5,1.7-8.8,4.8-12c0.4-0.4,1-0.4,1.5,0
	c0.4,0.4,0.4,1,0,1.5c-2.8,2.9-4.3,6.6-4.3,10.6c0,4.1,1.6,7.9,4.5,10.8c2.9,2.9,6.7,4.5,10.8,4.5c4,0,7.7-1.5,10.6-4.3
	c0.4-0.4,1.1-0.4,1.5,0c0.4,0.4,0.4,1.1,0,1.5C45.9,44.2,41.6,45.9,37.1,45.9z"/>
<path class="st3" d="M27.9,20.8c-0.3,0-0.5-0.1-0.7-0.3l-3.8-3.8c-0.4-0.4-0.4-1,0-1.5c0.4-0.4,1-0.4,1.5,0l3.8,3.8
	c0.4,0.4,0.4,1,0,1.5C28.5,20.7,28.2,20.8,27.9,20.8z"/>
<path class="st3" d="M37.1,52.8c-0.6,0-1-0.5-1-1v-6.9c0-0.6,0.5-1,1-1c0.6,0,1,0.5,1,1v6.9C38.1,52.3,37.7,52.8,37.1,52.8z"/>
<path class="st3" d="M45.7,55.9H28.6c-0.7,0-1.3-0.6-1.3-1.3v-2.6c0-0.8,0.6-1.4,1.4-1.4h16.9c0.8,0,1.4,0.6,1.4,1.4v2.6
	C46.9,55.4,46.4,55.9,45.7,55.9z M29.3,53.9h15.5v-1.1H29.3V53.9z"/>
<path class="st3" d="M32.5,30.8c-1.4,0-2.8-0.3-3.4-1.3c-0.8-1.4,0.3-3.1,0.7-3.6c0.1-0.2,0.2-0.3,0.1-0.5c-0.1-0.2-0.2-0.5-0.5-0.8
	c-0.4-0.4-1-0.8-1.7-1c-0.5-0.1-1-0.1-1.2,0c-0.5,0.3-1.1,0.2-1.4-0.3c-0.3-0.5-0.2-1.1,0.3-1.4c0.8-0.5,1.8-0.6,2.9-0.3
	c1,0.3,1.9,0.8,2.6,1.5c1.2,1.2,1.4,2.7,0.6,3.9c-0.7,1.1-0.6,1.4-0.6,1.4c0,0,0.3,0.4,2.7,0.3c0.7-0.1,1.1-0.3,1.3-0.6
	c0.3-0.4,0.4-1.1,0.2-2.1c-0.4-2.3,1-3.6,1.9-4.4c0.3-0.2,0.6-0.6,0.7-0.7c-0.1-0.2-0.3-0.5-0.5-0.7c-0.5-0.7-1.2-1.7-1-2.9
	c0.1-0.8,0.6-1.5,1.5-2.1c0.5-0.3,1.1-0.2,1.4,0.3c0.3,0.5,0.2,1.1-0.3,1.4c-0.4,0.3-0.6,0.5-0.7,0.7c-0.1,0.3,0.3,0.9,0.7,1.3
	c0.5,0.7,1.1,1.5,0.8,2.4c-0.2,0.8-0.8,1.3-1.4,1.8c-0.9,0.8-1.5,1.4-1.3,2.5c0.3,1.6,0.1,2.8-0.5,3.7c-0.6,0.8-1.5,1.2-2.7,1.4l0,0
	C33.3,30.8,32.9,30.8,32.5,30.8z"/>
<path class="st3" d="M37.5,42.1c-0.3,0-0.6-0.1-0.8-0.4c-1.2-1.6-1.2-3.6,0-5.4c1.2-1.7,2.1-2,3.1-2.2c0.4-0.1,0.5-0.1,0.8-0.6
	c0.8-1.8,2-2.1,2.6-2.2c1-0.1,2,0.4,2.7,1.4c0.9,1.3,1.7,0.8,1.9,0.6c0.5-0.3,1.1-0.2,1.4,0.3c0.3,0.5,0.2,1.1-0.3,1.4
	c-1.6,1.1-3.5,0.7-4.8-1.1c-0.3-0.4-0.6-0.6-0.8-0.6c-0.3,0-0.7,0.4-1,1c-0.6,1.3-1.4,1.6-2.2,1.8c-0.5,0.1-1,0.2-1.8,1.4
	c-0.7,1.1-0.7,2.1-0.1,3c0.3,0.5,0.2,1.1-0.2,1.4C37.9,42,37.7,42.1,37.5,42.1z"/>
<path class="st3" d="M37.1,42.1c-3.6,0-7-1.4-9.6-4c-2.6-2.6-4-6-4-9.6c0-3.6,1.4-7,4-9.6c2.6-2.6,6-4,9.6-4c3.6,0,7,1.4,9.6,4
	c2.6,2.6,4,6,4,9.6c0,3.6-1.4,7-4,9.6C44.2,40.7,40.7,42.1,37.1,42.1z M37.1,17c-6.4,0-11.5,5.2-11.5,11.5c0,6.4,5.2,11.5,11.5,11.5
	c6.4,0,11.5-5.2,11.5-11.5C48.6,22.2,43.5,17,37.1,17z"/>
</svg>
