<!-- Generator: Adobe Illustrator 24.1.2, SVG Export Plug-In  -->
<svg version="1.1" xmlns="http://www.w3.org/2000/svg" xmlns:xlink="http://www.w3.org/1999/xlink" x="0px" y="0px" width="66px"
	 height="64px" viewBox="0 0 66 64" style="overflow:visible;enable-background:new 0 0 66 64;" xml:space="preserve">
<style type="text/css">
	.st0{fill:#FFFFFF;}
</style>
<defs>
</defs>
<path class="st0" d="M64.1,13.2H50.9V3.8c0-2.1-1.7-3.8-3.8-3.8h-3.3c-3.8,0-7.2,2-9,5.2C34.2,5,33.6,4.9,33,4.9
	c-0.6,0-1.2,0.1-1.8,0.3C29.4,2,26,0,22.2,0h-3.3c-2.1,0-3.8,1.7-3.8,3.8v9.5H1.9c-1.1,0-1.9,0.8-1.9,1.9v10C0,26.2,0.9,27,1.9,27h2
	v35.1C4,63.1,4.8,64,5.9,64h54.3c1.1,0,1.9-0.9,1.9-1.9V27h2c1.1,0,1.9-0.9,1.9-1.9v-10C66,14.1,65.1,13.2,64.1,13.2z M43.8,3.8h3.3
	v9.4h-8.4c0.3-0.7,0.4-1.5,0.4-2.3c0-1.3-0.4-2.6-1.2-3.6C39,5.2,41.3,3.8,43.8,3.8z M30.5,23.2v-6.1h4.9v6.1H30.5z M35.3,11
	c0,1.2-0.9,2.1-2,2.2h-0.5c-1.2-0.1-2-1.1-2-2.2c0-0.7,0.3-1.3,0.8-1.7c0,0,0,0,0,0c0.4-0.3,0.9-0.5,1.4-0.5
	C34.2,8.7,35.3,9.7,35.3,11z M18.9,3.8h3.3c2.5,0,4.7,1.4,5.8,3.5c-0.8,1-1.2,2.3-1.2,3.6c0,0.8,0.2,1.6,0.4,2.3h-8.4V3.8z
	 M3.9,17.1h22.8v6.1H3.9V17.1z M58.2,60.2H7.8V27h50.4V60.2z M62.1,23.2H39.3v-6.1h22.8V23.2z"/>
<path class="st0" d="M21.4,45.8c0.1,0.1,6.2,6.5,9,9.3c0.7,0.7,1.7,1.1,2.7,1.1c1,0,2-0.4,2.7-1.1l9-9.3c0,0,0.1-0.1,0.1-0.1
	c3.9-4.6,2.4-9.7-0.6-12.4c-2.8-2.5-7.3-3.5-11.2-0.8c-4.1-2.8-8.5-1.7-11.2,0.8C18.7,36.2,17.6,41.4,21.4,45.8
	C21.4,45.7,21.4,45.8,21.4,45.8z M24.5,36c1.6-1.5,4.4-2.3,7.2,0.3c0.8,0.7,2,0.7,2.7,0c2.5-2.4,5.4-1.9,7.2-0.2
	c1.6,1.5,2.7,4.2,0.2,7.1L33,52.3c-2.7-2.8-8.3-8.6-8.8-9.1C22,40.6,22.7,37.7,24.5,36z"/>
</svg>
