<!-- Generator: Adobe Illustrator 24.1.2, SVG Export Plug-In  -->
<svg version="1.1" xmlns="http://www.w3.org/2000/svg" xmlns:xlink="http://www.w3.org/1999/xlink" x="0px" y="0px" width="69.5px"
	 height="70.3px" viewBox="0 0 69.5 70.3" style="overflow:visible;enable-background:new 0 0 69.5 70.3;" xml:space="preserve">
<style type="text/css">
	.st0{fill:#F4F0ED;}
	.st1{fill:#F9B047;}
</style>
<defs>
</defs>
<path class="st0" d="M69.3,28.6c0.4,2-1.5,4.2-1.5,6.1c0,2,2,4.1,1.7,6.1c-0.3,2-2.8,3.4-3.5,5.2c-0.7,1.9,0.4,4.6-0.5,6.3
	c-1,1.7-3.8,2.2-5.1,3.7c-1.3,1.5-1.1,4.4-2.7,5.7c-1.5,1.3-4.3,0.7-6.1,1.8c-1.7,1-2.6,3.8-4.5,4.5c-1.8,0.7-4.3-0.8-6.3-0.4
	c-2,0.4-3.8,2.7-5.7,2.7c-2,0-3.8-2.2-5.8-2.5c-2-0.3-4.4,1.2-6.3,0.6c-1.9-0.7-2.8-3.4-4.6-4.4c-1.7-1-4.6-0.4-6.1-1.6
	c-1.5-1.3-1.5-4.1-2.8-5.6c-1.3-1.5-4.2-1.9-5.2-3.6c-1-1.7,0-4.4-0.7-6.3c-0.7-1.8-3.2-3.2-3.6-5.2c-0.4-2,1.5-4.2,1.5-6.1
	c0-2-2-4.1-1.7-6.1c0.3-2,2.8-3.4,3.5-5.2c0.7-1.9-0.4-4.6,0.5-6.3c1-1.7,3.8-2.2,5.1-3.7c1.3-1.5,1.1-4.4,2.7-5.7
	c1.5-1.3,4.3-0.7,6.1-1.8c1.7-1,2.6-3.8,4.5-4.5c1.8-0.7,4.3,0.8,6.3,0.4c2-0.4,3.7-2.7,5.7-2.7c2,0,3.8,2.2,5.8,2.5
	c2,0.3,4.4-1.2,6.3-0.6c1.9,0.7,2.8,3.4,4.6,4.4c1.7,1,4.6,0.4,6.1,1.6c1.5,1.3,1.5,4.1,2.8,5.6c1.3,1.5,4.2,1.9,5.2,3.6
	c1,1.7,0,4.4,0.7,6.3C66.3,25.3,68.9,26.6,69.3,28.6z"/>
<path class="st1" d="M52.6,24h-7.6v-5.6c0-1.2-1-2.2-2.2-2.2h-1.9c-2.2,0-4.1,1.2-5.2,3.1c-0.3-0.1-0.7-0.2-1-0.2
	c-0.3,0-0.7,0.1-1,0.1c-1.1-1.9-3-3.1-5.2-3.1h-1.9c-1.2,0-2.2,1-2.2,2.2V24h-7.6c-0.6,0-1.1,0.5-1.1,1.1v5.9c0,0.6,0.5,1.1,1.1,1.1
	H18V53c0,0.6,0.5,1.1,1.1,1.1h31.2c0.6,0,1.1-0.5,1.1-1.1V32.2h1.1c0.6,0,1.1-0.5,1.1-1.1v-5.9C53.7,24.5,53.2,24,52.6,24z
	 M40.9,18.4h1.9V24H38c0.2-0.4,0.3-0.9,0.3-1.3c0-0.8-0.3-1.5-0.7-2.1C38.2,19.2,39.5,18.4,40.9,18.4z M33.3,29.9v-3.6h2.8v3.6H33.3
	z M36,22.7c0,0.7-0.5,1.3-1.2,1.3h-0.3c-0.7-0.1-1.2-0.6-1.2-1.3c0-0.4,0.2-0.8,0.5-1c0,0,0,0,0,0c0.2-0.2,0.5-0.3,0.8-0.3
	C35.5,21.3,36,21.9,36,22.7z M26.6,18.4h1.9c1.4,0,2.7,0.8,3.4,2.1c-0.4,0.6-0.7,1.3-0.7,2.1c0,0.5,0.1,0.9,0.3,1.3h-4.8V18.4z
	 M18,26.3h13.1v3.6H18V26.3z M49.3,51.9h-29V32.2h29L49.3,51.9L49.3,51.9z M51.5,29.9H38.4v-3.6h13.1V29.9z"/>
<path class="st1" d="M28,36.5c0.1,0.1,3.6,3.8,5.2,5.5c0.4,0.4,1,0.7,1.5,0.7c0.6,0,1.1-0.2,1.5-0.7l5.2-5.5c0,0,0-0.1,0.1-0.1
	c2.2-2.8,1.4-5.8-0.3-7.4c-1.6-1.5-4.2-2.1-6.4-0.5c-2.4-1.7-4.9-1-6.4,0.5C26.5,30.8,25.8,33.9,28,36.5C28,36.5,28,36.5,28,36.5z
	 M29.8,30.7c0.9-0.9,2.5-1.4,4.1,0.2c0.4,0.4,1.1,0.4,1.6,0c1.4-1.4,3.1-1.1,4.1-0.1c0.9,0.9,1.5,2.5,0.1,4.2l-5,5.4
	c-1.5-1.6-4.8-5.1-5.1-5.4C28.4,33.4,28.8,31.7,29.8,30.7z"/>
</svg>
