<!-- Generator: Adobe Illustrator 24.1.2, SVG Export Plug-In  -->
<svg version="1.1" xmlns="http://www.w3.org/2000/svg" xmlns:xlink="http://www.w3.org/1999/xlink" x="0px" y="0px" width="69.5px"
	 height="70.3px" viewBox="0 0 69.5 70.3" style="overflow:visible;enable-background:new 0 0 69.5 70.3;" xml:space="preserve">
<style type="text/css">
	.st0{fill:#F4F0ED;}
	.st1{fill:#EB5D60;stroke:#EB5D60;stroke-miterlimit:10;}
</style>
<defs>
</defs>
<path class="st0" d="M69.3,28.6c0.4,2-1.5,4.2-1.5,6.1c0,2,2,4.1,1.7,6.1c-0.3,2-2.8,3.4-3.5,5.2c-0.7,1.9,0.4,4.6-0.5,6.3
	c-1,1.7-3.8,2.2-5.1,3.7c-1.3,1.5-1.1,4.4-2.7,5.7c-1.5,1.3-4.3,0.7-6.1,1.8c-1.7,1-2.6,3.8-4.5,4.5c-1.8,0.7-4.3-0.8-6.3-0.4
	c-2,0.4-3.8,2.7-5.7,2.7c-2,0-3.8-2.2-5.8-2.5c-2-0.3-4.4,1.2-6.3,0.6c-1.9-0.7-2.8-3.4-4.6-4.4c-1.7-1-4.6-0.4-6.1-1.6
	c-1.5-1.3-1.5-4.1-2.8-5.6c-1.3-1.5-4.2-1.9-5.2-3.6c-1-1.7,0-4.4-0.7-6.3c-0.7-1.8-3.2-3.2-3.6-5.2c-0.4-2,1.5-4.2,1.5-6.1
	c0-2-2-4.1-1.7-6.1c0.3-2,2.8-3.4,3.5-5.2c0.7-1.9-0.4-4.6,0.5-6.3c1-1.7,3.8-2.2,5.1-3.7c1.3-1.5,1.1-4.4,2.7-5.7
	c1.5-1.3,4.3-0.7,6.1-1.8c1.7-1,2.6-3.8,4.5-4.5c1.8-0.7,4.3,0.8,6.3,0.4c2-0.4,3.7-2.7,5.7-2.7c2,0,3.8,2.2,5.8,2.5
	c2,0.3,4.4-1.2,6.3-0.6c1.9,0.7,2.8,3.4,4.6,4.4c1.7,1,4.6,0.4,6.1,1.6c1.5,1.3,1.5,4.1,2.8,5.6c1.3,1.5,4.2,1.9,5.2,3.6
	c1,1.7,0,4.4,0.7,6.3C66.3,25.3,68.9,26.6,69.3,28.6z"/>
<g>
	<path class="st1" d="M34.9,35.7c-4.5,0-8.2-3.7-8.2-8.2c0-4.5,3.7-8.2,8.2-8.2c4.5,0,8.2,3.7,8.2,8.2C43.1,32,39.4,35.7,34.9,35.7z
		 M34.9,20.2c-4,0-7.3,3.3-7.3,7.3c0,4,3.3,7.3,7.3,7.3c4,0,7.3-3.3,7.3-7.3C42.2,23.5,38.9,20.2,34.9,20.2z"/>
	<path class="st1" d="M29.8,46.4l5.3,4.6l5.3-4.6c0.7-0.6,1.1-1.5,1.2-2.4c0.1-0.9-0.2-1.8-0.9-2.5c-0.7-0.8-1.6-1.2-2.6-1.2
		c-0.8,0-1.7,0.3-2.3,0.9l-0.7,0.6l-0.7-0.6c-0.6-0.6-1.5-0.9-2.3-0.9c-1,0-2,0.4-2.6,1.2C28.2,42.9,28.3,45.1,29.8,46.4z M30,41.9
		c0.5-0.6,1.3-0.9,2.1-0.9c0.7,0,1.3,0.2,1.8,0.7l1,0.9c0.1,0.1,0.4,0.1,0.5,0l1-0.9c0.5-0.4,1.1-0.7,1.8-0.7c0.8,0,1.5,0.3,2.1,0.9
		c0.5,0.6,0.7,1.3,0.7,2c0,0.7-0.4,1.4-0.9,1.9L35.1,50l-4.8-4.2C29.1,44.8,29,43,30,41.9z"/>
	<path class="st1" d="M35.1,51.1l-5.4-4.7c-1.5-1.3-1.6-3.6-0.3-5.1c0.7-0.8,1.7-1.2,2.7-1.2c0.9,0,1.7,0.3,2.4,0.9l0.6,0.6l0.6-0.6
		c0.7-0.6,1.5-0.9,2.4-0.9c1,0,2,0.5,2.7,1.2c0.6,0.7,0.9,1.7,0.9,2.6c-0.1,1-0.5,1.9-1.2,2.5L35.1,51.1z M29.8,46.3l5.2,4.6
		l5.3-4.6c0.7-0.6,1.1-1.4,1.1-2.3c0.1-0.9-0.2-1.8-0.8-2.5c-0.6-0.7-1.6-1.2-2.5-1.2c-0.8,0-1.6,0.3-2.2,0.8l-0.8,0.7l-0.8-0.7
		c-0.6-0.5-1.4-0.8-2.2-0.8c-1,0-1.9,0.4-2.5,1.2C28.3,42.9,28.4,45,29.8,46.3z M35.1,50.2l-4.9-4.3c-1.2-1-1.3-2.9-0.3-4
		c0.5-0.6,1.3-1,2.1-1c0.7,0,1.3,0.3,1.9,0.7l1,0.9c0.1,0.1,0.3,0.1,0.4,0l1-0.9c0.5-0.5,1.2-0.7,1.9-0.7c0.8,0,1.6,0.4,2.1,1
		c0.5,0.6,0.7,1.3,0.7,2.1c-0.1,0.8-0.4,1.5-1,2L35.1,50.2z M32.1,41.1c-0.8,0-1.5,0.3-2,0.9c-1,1.1-0.8,2.8,0.2,3.7l4.7,4.2
		l4.7-4.2c0.5-0.5,0.8-1.1,0.9-1.8c0-0.7-0.2-1.4-0.6-1.9c-0.5-0.6-1.2-0.9-2-0.9c-0.6,0-1.2,0.2-1.7,0.7l-1,0.9
		c-0.2,0.2-0.5,0.2-0.7,0l-1-0.9C33.3,41.3,32.7,41.1,32.1,41.1z"/>
	<path class="st1" d="M19.2,20.2l3.1,2.7l3.1-2.7c0.4-0.4,0.7-0.9,0.7-1.4c0-0.5-0.1-1.1-0.5-1.5c-0.4-0.4-1-0.7-1.5-0.7
		c-0.5,0-1,0.2-1.3,0.5l-0.4,0.4l-0.4-0.4c-0.4-0.3-0.9-0.5-1.3-0.5c-0.6,0-1.2,0.3-1.5,0.7C18.2,18.1,18.3,19.4,19.2,20.2z
		 M19.3,17.6c0.3-0.3,0.7-0.5,1.2-0.5c0.4,0,0.8,0.1,1.1,0.4l0.6,0.5c0.1,0.1,0.2,0.1,0.3,0l0.6-0.5c0.3-0.3,0.7-0.4,1.1-0.4
		c0.5,0,0.9,0.2,1.2,0.5c0.3,0.3,0.4,0.7,0.4,1.2s-0.2,0.8-0.5,1.1l-2.8,2.5l-2.8-2.5C18.8,19.3,18.7,18.2,19.3,17.6z"/>
	<path class="st1" d="M22.3,23.1l-3.2-2.8c-0.9-0.8-1-2.2-0.2-3.1c0.4-0.5,1-0.8,1.6-0.8c0.5,0,1,0.2,1.4,0.5l0.3,0.3l0.3-0.3
		c0.4-0.4,0.9-0.5,1.4-0.5c0.6,0,1.2,0.3,1.6,0.8c0.4,0.4,0.6,1,0.5,1.6s-0.3,1.1-0.7,1.5L22.3,23.1z M19.2,20.1l3,2.6l3-2.6
		c0.4-0.3,0.6-0.8,0.6-1.3c0-0.5-0.1-1-0.5-1.4c-0.4-0.4-0.9-0.7-1.4-0.7c-0.5,0-0.9,0.2-1.3,0.5l-0.5,0.5l-0.5-0.5
		c-0.3-0.3-0.8-0.5-1.3-0.5c-0.6,0-1.1,0.2-1.4,0.7C18.4,18.2,18.4,19.4,19.2,20.1z M22.3,22.5L19.4,20c-0.7-0.6-0.8-1.7-0.2-2.5
		c0.3-0.4,0.8-0.6,1.3-0.6c0.4,0,0.8,0.2,1.1,0.4l0.6,0.5c0,0,0.1,0,0.1,0l0.6-0.5c0.3-0.3,0.7-0.4,1.1-0.4c0.5,0,1,0.2,1.3,0.6
		c0.3,0.4,0.5,0.8,0.4,1.3c0,0.5-0.2,0.9-0.6,1.2L22.3,22.5z M20.5,17.2c-0.4,0-0.8,0.2-1.1,0.5c-0.5,0.6-0.5,1.5,0.1,2.1l2.7,2.4
		l2.7-2.4c0.3-0.3,0.5-0.6,0.5-1c0-0.4-0.1-0.8-0.4-1.1c-0.3-0.3-0.7-0.5-1.1-0.5c-0.4,0-0.7,0.1-1,0.4L22.5,18
		c-0.1,0.1-0.3,0.1-0.5,0l-0.6-0.5C21.2,17.3,20.9,17.2,20.5,17.2z"/>
	<path class="st1" d="M22.3,23l-3.2-2.8c-0.9-0.8-1-2.2-0.2-3.1c0.4-0.5,1-0.7,1.6-0.7c0.5,0,1,0.2,1.4,0.5l0.3,0.3l0.3-0.3
		c0.4-0.3,0.9-0.5,1.4-0.5c0.6,0,1.2,0.3,1.6,0.7c0.4,0.4,0.6,1,0.5,1.6c0,0.6-0.3,1.1-0.7,1.5L22.3,23z M19.2,20.1l3,2.7l3.1-2.7
		c0.4-0.3,0.6-0.8,0.7-1.3c0-0.5-0.1-1-0.5-1.4c-0.4-0.4-0.9-0.7-1.5-0.7c-0.5,0-0.9,0.2-1.3,0.5l-0.5,0.4l-0.5-0.4
		c-0.4-0.3-0.8-0.5-1.3-0.5c-0.6,0-1.1,0.2-1.5,0.7C18.3,18.2,18.4,19.4,19.2,20.1z M22.3,22.5l-2.9-2.6c-0.7-0.6-0.8-1.7-0.2-2.4
		c0.3-0.4,0.8-0.6,1.3-0.6c0.4,0,0.8,0.2,1.1,0.4l0.6,0.5c0,0,0.1,0,0.2,0l0.6-0.5c0.3-0.3,0.7-0.4,1.1-0.4c0.5,0,1,0.2,1.3,0.6
		c0.3,0.3,0.5,0.8,0.4,1.3c0,0.5-0.2,0.9-0.6,1.2L22.3,22.5z M20.5,17.1c-0.4,0-0.8,0.2-1.1,0.5c-0.5,0.6-0.5,1.6,0.1,2.1l2.8,2.4
		l2.8-2.4c0.3-0.3,0.5-0.6,0.5-1c0-0.4-0.1-0.8-0.4-1.1c-0.3-0.3-0.7-0.5-1.1-0.5c-0.4,0-0.7,0.1-1,0.4L22.5,18
		c-0.1,0.1-0.3,0.1-0.4,0l-0.6-0.5C21.2,17.3,20.9,17.1,20.5,17.1z"/>
	<path class="st1" d="M22.3,23.2L19,20.4c-1-0.8-1.1-2.3-0.2-3.3c0.4-0.5,1.1-0.8,1.7-0.8c0.6,0,1.1,0.2,1.5,0.6l0.3,0.2l0.3-0.2
		c0.4-0.4,1-0.6,1.5-0.6c0.7,0,1.3,0.3,1.7,0.8c0.4,0.5,0.6,1.1,0.6,1.7c0,0.6-0.3,1.2-0.8,1.6L22.3,23.2z M20.5,17.3
		c-0.4,0-0.8,0.2-1,0.5c-0.5,0.6-0.4,1.4,0.1,1.9l2.7,2.3l2.7-2.3c0.3-0.2,0.4-0.6,0.5-0.9c0-0.4-0.1-0.7-0.3-1
		c-0.3-0.3-0.6-0.5-1-0.5c-0.3,0-0.6,0.1-0.9,0.3l-0.6,0.5c-0.2,0.2-0.4,0.2-0.6,0l-0.6-0.5C21.1,17.4,20.8,17.3,20.5,17.3z"/>
	<path class="st1" d="M46,33.2l3.1,2.7l3.1-2.7c0.4-0.4,0.7-0.9,0.7-1.4c0-0.5-0.1-1.1-0.5-1.5c-0.4-0.4-0.9-0.7-1.5-0.7
		c-0.5,0-1,0.2-1.3,0.5l-0.4,0.4l-0.4-0.4c-0.4-0.3-0.8-0.5-1.3-0.5c-0.6,0-1.1,0.3-1.5,0.7C45.1,31.1,45.2,32.4,46,33.2z
		 M46.2,30.6c0.3-0.3,0.7-0.5,1.2-0.5c0.4,0,0.8,0.1,1,0.4l0.6,0.5c0.1,0.1,0.2,0.1,0.3,0l0.6-0.5c0.3-0.3,0.7-0.4,1-0.4
		c0.5,0,0.9,0.2,1.2,0.5c0.3,0.3,0.4,0.7,0.4,1.2c0,0.4-0.2,0.8-0.5,1.1l-2.8,2.5l-2.8-2.5C45.7,32.3,45.6,31.3,46.2,30.6z"/>
	<path class="st1" d="M49.1,36l-3.2-2.8c-0.9-0.8-1-2.2-0.2-3.1c0.4-0.5,1-0.7,1.6-0.7c0.5,0,1,0.2,1.4,0.5l0.3,0.3l0.3-0.3
		c0.4-0.3,0.9-0.5,1.4-0.5c0.6,0,1.2,0.3,1.6,0.7c0.4,0.4,0.6,1,0.5,1.6c0,0.6-0.3,1.1-0.7,1.5L49.1,36z M46.1,33.1l3,2.6l3-2.6
		c0.4-0.3,0.6-0.8,0.6-1.3c0-0.5-0.1-1-0.5-1.4c-0.4-0.4-0.9-0.6-1.4-0.6c-0.5,0-0.9,0.2-1.2,0.5l-0.5,0.4l-0.5-0.4
		c-0.3-0.3-0.8-0.5-1.2-0.5c-0.5,0-1.1,0.2-1.4,0.6C45.3,31.2,45.3,32.4,46.1,33.1z M49.1,35.5l-2.9-2.5c-0.7-0.6-0.8-1.7-0.2-2.4
		c0.3-0.4,0.8-0.6,1.3-0.6c0.4,0,0.8,0.2,1.1,0.4l0.6,0.5c0,0,0.1,0,0.1,0l0.6-0.5c0.3-0.3,0.7-0.4,1.1-0.4c0.5,0,1,0.2,1.3,0.6
		c0.3,0.3,0.5,0.8,0.4,1.3c0,0.5-0.2,0.9-0.6,1.2L49.1,35.5z M47.4,30.2c-0.4,0-0.8,0.2-1.1,0.5c-0.5,0.6-0.5,1.5,0.1,2.1l2.7,2.4
		l2.7-2.4c0.3-0.3,0.5-0.6,0.5-1c0-0.4-0.1-0.8-0.4-1.1c-0.3-0.3-0.7-0.5-1.1-0.5c-0.3,0-0.7,0.1-0.9,0.4L49.4,31
		c-0.1,0.1-0.3,0.1-0.5,0l-0.6-0.5C48.1,30.3,47.7,30.2,47.4,30.2z"/>
	<path class="st1" d="M49.1,36L46,33.3c-0.9-0.8-1-2.1-0.2-3c0.4-0.5,1-0.7,1.6-0.7c0.5,0,1,0.2,1.4,0.5l0.3,0.3l0.3-0.3
		c0.4-0.3,0.9-0.5,1.4-0.5c0.6,0,1.2,0.3,1.6,0.7c0.4,0.4,0.6,1,0.5,1.6c0,0.6-0.3,1.1-0.7,1.5L49.1,36z M46.1,33.1l3,2.6l3-2.6
		c0.4-0.3,0.6-0.8,0.6-1.3c0-0.5-0.1-1-0.5-1.4c-0.4-0.4-0.9-0.7-1.4-0.7c-0.5,0-0.9,0.2-1.3,0.5l-0.5,0.4l-0.5-0.4
		c-0.3-0.3-0.8-0.5-1.3-0.5c-0.6,0-1.1,0.2-1.4,0.7C45.2,31.2,45.3,32.4,46.1,33.1z M49.1,35.4l-2.9-2.5c-0.7-0.6-0.8-1.7-0.2-2.4
		c0.3-0.4,0.8-0.6,1.3-0.6c0.4,0,0.8,0.1,1.1,0.4l0.6,0.5c0,0,0.1,0,0.1,0l0.6-0.5c0.3-0.3,0.7-0.4,1.1-0.4c0.5,0,1,0.2,1.3,0.6
		c0.3,0.3,0.4,0.8,0.4,1.2c0,0.5-0.2,0.9-0.6,1.2L49.1,35.4z M47.4,30.2c-0.4,0-0.8,0.2-1.1,0.5c-0.5,0.6-0.5,1.6,0.1,2.1l2.7,2.4
		l2.7-2.4c0.3-0.3,0.5-0.6,0.5-1c0-0.4-0.1-0.8-0.4-1.1c-0.3-0.3-0.7-0.5-1.1-0.5c-0.4,0-0.7,0.1-1,0.4L49.3,31
		c-0.1,0.1-0.3,0.1-0.4,0l-0.6-0.5C48.1,30.3,47.7,30.2,47.4,30.2z"/>
	<path class="st1" d="M49.1,36.2l-3.2-2.8c-0.9-0.8-1-2.3-0.2-3.2c0.4-0.5,1.1-0.8,1.7-0.8c0.5,0,1.1,0.2,1.5,0.6l0.3,0.2l0.3-0.2
		c0.4-0.4,0.9-0.6,1.5-0.6c0.7,0,1.3,0.3,1.7,0.8c0.4,0.5,0.6,1,0.6,1.7c0,0.6-0.3,1.2-0.8,1.6L49.1,36.2z M47.4,30.3
		c-0.4,0-0.7,0.2-1,0.5c-0.5,0.6-0.4,1.4,0.1,1.9l2.6,2.3l2.6-2.3c0.3-0.2,0.4-0.6,0.5-0.9c0-0.4-0.1-0.7-0.3-1
		c-0.3-0.3-0.6-0.5-1-0.5c-0.3,0-0.6,0.1-0.9,0.3l-0.6,0.5c-0.2,0.2-0.4,0.2-0.6,0l-0.6-0.5C48,30.4,47.7,30.3,47.4,30.3z"/>
	<path class="st1" d="M30.6,26.6C30.6,26.6,30.6,26.6,30.6,26.6c-0.3-0.1-0.5-0.3-0.4-0.5c0,0,0.1-0.4,0.4-0.8
		c0.4-0.6,1-0.8,1.6-0.8c1.3,0.1,1.7,1.1,1.7,1.7L33,26.2c0-0.1-0.1-0.7-0.9-0.8c-0.3,0-0.6,0.1-0.8,0.4C31.1,26,31,26.2,31,26.2
		C31,26.4,30.8,26.6,30.6,26.6z"/>
	<path class="st1" d="M36.8,26.6C36.8,26.6,36.8,26.6,36.8,26.6c-0.3-0.1-0.5-0.3-0.4-0.5c0,0,0.1-0.4,0.4-0.8
		c0.4-0.6,1-0.8,1.6-0.8c1.3,0.1,1.7,1.1,1.7,1.7l-0.9,0.1c0-0.1-0.1-0.7-0.9-0.8c-0.3,0-0.6,0.1-0.8,0.4c-0.2,0.2-0.2,0.5-0.2,0.5
		C37.2,26.4,37,26.6,36.8,26.6z"/>
	<path class="st1" d="M34.9,38.5c-1.1,0-2.1-0.2-2.9-0.5c-0.7-0.3-1-0.6-1-0.7l-0.1-0.1v-2.8h0.9v2.4c0.3,0.2,1.4,0.9,3.4,0.8
		c2,0,2.6-0.6,2.7-0.7v-2.4h0.9V37l0,0.1c-0.1,0.2-0.5,1.3-3.5,1.4C35,38.5,35,38.5,34.9,38.5z"/>
	<path class="st1" d="M27.6,54h-8.7c-1.4,0-2.3-0.5-2.8-1.4c-0.7-1.4-0.2-3.7,1.4-6.9c1.2-2.4,2.9-4.8,3.6-5.9
		c0.8-1.1,2.8-2.1,5.8-2.9c2.2-0.6,4.2-0.9,4.3-0.9l0.1,0.9c-2.2,0.3-8.1,1.5-9.5,3.4c-0.7,1-2.3,3.3-3.5,5.7
		c-1.9,3.7-1.8,5.3-1.4,6.1c0.3,0.6,1,0.9,2,0.9h7.8v-3.9h-5.8v-0.9h6.7V54z"/>
	<path class="st1" d="M50.6,54h-8.7v-5.6h6.7v0.9h-5.8v3.9h7.8c1,0,1.7-0.3,2-0.9c0.4-0.8,0.4-2.4-1.4-6.1c-1.2-2.4-2.8-4.7-3.5-5.7
		c-1.4-1.9-7.3-3.1-9.5-3.4l0.1-0.9c0.1,0,2,0.3,4.3,0.9c3,0.8,5,1.8,5.8,2.9c0.8,1,2.4,3.4,3.6,5.9c1.6,3.2,2.1,5.5,1.4,6.9
		C52.9,53.5,52,54,50.6,54z"/>
	<path class="st1" d="M42.8,54H26.7v-5.6l4.1-0.1c1.2,0,2.4,0.5,3.3,1.4c0.4,0.5,0.8,1,1,1.6c0.3-0.6,0.6-1.1,1.1-1.6
		c0.9-0.9,2.1-1.4,3.3-1.3l3.3,0.1V54z M35.6,53.1h6.4v-3.9l-2.5-0.1c-1,0-1.9,0.4-2.6,1.1C36,51,35.6,52,35.6,53.1z M27.6,53.1h7
		l0-0.1c0-1-0.5-2-1.2-2.7c-0.7-0.7-1.6-1.2-2.6-1.1l-3.3,0.1V53.1z"/>
	<path class="st1" d="M34.9,32.1c-1.3,0-2-0.7-2.4-1.3c-0.4-0.6-0.5-1.2-0.5-1.2c0-0.2,0.1-0.5,0.4-0.5c0.2,0,0.5,0.1,0.5,0.4
		c0,0,0.1,0.5,0.3,0.9c0.4,0.5,0.9,0.8,1.6,0.8c0.7,0,1.3-0.3,1.6-0.9c0.3-0.4,0.3-0.9,0.3-0.9c0-0.2,0.3-0.4,0.5-0.4
		c0.2,0,0.4,0.3,0.4,0.5C37.6,30.4,36.8,32.1,34.9,32.1z"/>
</g>
</svg>
