<svg width="115" height="117" viewBox="0 0 115 117" fill="none" xmlns="http://www.w3.org/2000/svg">
<path d="M114.679 47.3983C115.299 50.6862 112.172 54.3061 112.215 57.538C112.258 60.8648 115.467 64.4027 114.942 67.6131C114.408 70.8796 110.228 73.2109 109.147 76.292C108.057 79.4034 109.854 83.8333 108.251 86.6904C106.64 89.556 101.922 90.3231 99.8409 92.8699C97.7685 95.4081 97.9538 100.191 95.4592 102.342C92.9862 104.475 88.29 103.587 85.4465 105.276C82.6503 106.935 81.1898 111.495 78.0791 112.667C75.0546 113.809 70.953 111.361 67.6657 111.982C64.3784 112.602 61.453 116.377 58.2217 116.42C54.8956 116.463 51.8754 112.757 48.6656 112.232C45.3998 111.697 41.3542 114.24 38.2737 113.158C35.1631 112.068 33.5948 107.547 30.734 105.94C27.8689 104.333 23.1943 105.341 20.648 103.26C18.1104 101.187 18.1707 96.4035 16.0165 93.9084C13.8838 91.4349 9.14458 90.7885 7.45137 87.9444C5.79264 85.1476 7.48584 80.6832 6.31396 77.5719C5.17223 74.5468 0.941371 72.3146 0.32096 69.0309C-0.299451 65.7429 2.82845 62.1231 2.78537 58.8911C2.74229 55.5644 -0.467479 52.0264 0.0581469 48.816C0.59239 45.5496 4.77155 43.2182 5.85296 40.1371C6.94298 37.0258 5.14638 32.5958 6.7491 29.7388C8.36045 26.8731 13.0782 26.1061 15.1591 23.5593C17.2315 21.0211 17.0462 16.2421 19.5408 14.0874C22.0138 11.95 26.71 12.8377 29.5535 11.1485C32.3497 9.48943 33.8102 4.9302 36.9209 3.75807C39.9454 2.61611 44.047 5.06379 47.3343 4.44325C50.6216 3.8184 53.547 0.0434657 56.7783 0.000372817C60.1044 -0.0427201 63.1246 3.66327 66.3344 4.189C69.6002 4.72336 73.6458 2.18087 76.7263 3.26251C79.8369 4.35276 81.4052 8.8732 84.266 10.4806C87.1311 12.0922 91.8057 11.0796 94.352 13.1609C96.8896 15.2337 96.8293 20.017 98.9835 22.5121C101.116 24.9856 105.855 25.632 107.549 28.4762C109.207 31.2729 107.514 35.7373 108.686 38.8486C109.823 41.8824 114.054 44.1103 114.679 47.3983Z" fill="#FF5C5C"/>
<path d="M22.9142 65.338L20.7643 66.9583L21.8543 70.6772L24.5384 70.8797L25.1158 72.8491L14.0518 72.0346L13.4658 70.0394L22.3411 63.3816L22.9142 65.338ZM15.8828 70.4143L20.0491 70.5307L19.3209 68.0399L15.8828 70.4143Z" fill="#F2EADA"/>
<path d="M22.2894 61.2701L11.9019 61.1925L11.932 56.9694C11.9406 55.8835 12.2767 55.0647 12.9402 54.5088C13.6037 53.9572 14.3964 53.6814 15.3227 53.69C16.249 53.6987 17.0332 53.9831 17.6751 54.5433C18.3214 55.1078 18.6359 55.9309 18.6273 57.0168L18.61 59.3094L22.3024 59.3395L22.2894 61.2701ZM13.6511 57.0125L13.6338 59.2749L16.891 59.3007L16.9082 57.0987C16.9125 56.6376 16.7531 56.2756 16.4257 56.0171C16.1026 55.7585 15.7277 55.6249 15.3055 55.6249C14.8833 55.6206 14.5041 55.7413 14.1638 55.9783C13.8277 56.2153 13.6554 56.56 13.6511 57.0125Z" fill="#F2EADA"/>
<path d="M17.5758 50.2555C16.1756 49.7814 15.1459 48.898 14.4867 47.6009C13.8275 46.3038 13.7327 44.9593 14.2067 43.5588C14.6806 42.1583 15.5724 41.1413 16.8865 40.5078C18.2006 39.8744 19.5534 39.7968 20.9536 40.2665C22.3453 40.7362 23.3663 41.6239 24.0255 42.9297C24.6847 44.2354 24.7752 45.5842 24.3056 46.9718C23.836 48.3637 22.9441 49.3764 21.6301 50.0055C20.316 50.6433 18.9675 50.7252 17.5758 50.2555ZM16.1928 46.7391C16.6194 47.5665 17.2829 48.1353 18.1876 48.4412C19.0924 48.7472 19.9627 48.6998 20.7985 48.299C21.6344 47.8983 22.2031 47.2519 22.5004 46.3685C22.8019 45.4808 22.7373 44.6275 22.3194 43.8001C21.8972 42.9728 21.238 42.4082 20.3332 42.1023C19.4285 41.7963 18.5539 41.8437 17.7137 42.2445C16.8736 42.6452 16.3006 43.2873 16.0033 44.175C15.706 45.0628 15.7706 45.9074 16.1928 46.7391Z" fill="#F2EADA"/>
<path d="M29.7646 36.526L28.5884 38.1162L24.7797 35.3022L17.8647 35.1428L19.2262 33.2984L24.0258 33.5268L22.4144 28.9805L23.7845 27.1232L25.9732 33.7293L29.7646 36.526Z" fill="#F2EADA"/>
<path d="M38.1701 28.6573L35.8738 27.2525L32.8148 29.6355L33.6118 32.2082L31.9962 33.4708L28.6787 22.8829L30.3202 21.603L39.7772 27.4076L38.1701 28.6573ZM30.8631 23.9904L32.2892 27.9075L34.3357 26.3131L30.8631 23.9904Z" fill="#F2EADA"/>
<path d="M56.6058 22.9087L55.3951 20.5042L51.5434 20.9135L50.867 23.5207L48.8291 23.7361L51.5994 12.9888L53.6674 12.769L58.635 22.689L56.6058 22.9087ZM52.8618 15.0874L52.0087 19.1683L54.5894 18.8925L52.8618 15.0874Z" fill="#F2EADA"/>
<path d="M60.7632 23.0769L62.4478 12.8207L64.3521 13.1353L62.9475 21.6936L66.907 22.3443L66.6269 24.0421L60.7632 23.0769Z" fill="#F2EADA"/>
<path d="M76.5407 18.5434L77.4412 17.0265L84.1408 21.0169L83.2403 22.5338L80.7285 21.0384L76.3167 28.4504L74.645 27.455L79.0568 20.043L76.5407 18.5434Z" fill="#F2EADA"/>
<path d="M84.7528 35.7677L85.8988 33.3329L83.1975 30.5534L80.7287 31.6264L79.2983 30.157L89.4619 25.7098L90.9095 27.2008L86.1659 37.2328L84.7528 35.7677ZM88.6002 27.9937L84.8605 29.8381L86.6657 31.6997L88.6002 27.9937Z" fill="#F2EADA"/>
<path d="M87.187 39.1461L96.3036 34.1602L97.2299 35.8538L89.6213 40.0123L91.5428 43.533L90.0349 44.356L87.187 39.1461Z" fill="#F2EADA"/>
<path d="M90.9224 46.7736L101.004 44.2699L102.551 50.5054L100.883 50.9191L99.7977 46.5409L97.1782 47.1916L98.1303 51.0268L96.4759 51.4362L95.5237 47.6009L93.0507 48.2172L94.1752 52.7419L92.5079 53.1556L90.9224 46.7736Z" fill="#F2EADA"/>
<path d="M102.853 64.1271L92.4736 63.6574L92.5555 61.8949L99.561 58.1975L92.7364 57.8873L92.8226 55.9739L103.202 56.4436L103.12 58.2363L96.1918 61.8949L102.939 62.2009L102.853 64.1271Z" fill="#F2EADA"/>
<path d="M100.146 69.0009L101.814 69.5827L99.2416 76.943L97.5743 76.3612L98.5394 73.599L90.3965 70.7505L91.0384 68.9148L99.1813 71.7632L100.146 69.0009Z" fill="#F2EADA"/>
<path d="M93.0076 78.1108C94.1924 78.9942 94.899 80.1534 95.123 81.5927C95.3513 83.0277 95.0196 84.3377 94.1364 85.5228C93.2532 86.7078 92.0899 87.3973 90.6423 87.5912C89.1989 87.7851 87.8849 87.4404 86.7001 86.557C85.5239 85.6779 84.8259 84.5187 84.6062 83.0751C84.3865 81.6315 84.7139 80.3214 85.5928 79.145C86.4717 77.9686 87.6307 77.2834 89.0783 77.0895C90.5216 76.8913 91.8314 77.236 93.0076 78.1108ZM93.2316 81.8857C93.0851 80.9678 92.6284 80.2223 91.8615 79.6492C91.0946 79.0761 90.2545 78.852 89.3325 78.977C88.4148 79.0976 87.6738 79.5372 87.1137 80.287C86.5536 81.0368 86.3468 81.8685 86.489 82.7864C86.6311 83.7042 87.0878 84.4454 87.8504 85.0186C88.613 85.5917 89.4618 85.8158 90.3838 85.6951C91.3058 85.5745 92.0468 85.1392 92.6069 84.3937C93.167 83.6482 93.3824 82.8036 93.2316 81.8857Z" fill="#F2EADA"/>
<path d="M72.0771 90.3491L75.6876 100.092L73.878 100.765L70.8665 92.633L67.1052 94.0249L66.5063 92.4133L72.0771 90.3491Z" fill="#F2EADA"/>
<path d="M65.3303 98.1662C65.4207 99.64 64.9942 100.928 64.0464 102.032C63.0985 103.135 61.8878 103.729 60.4101 103.824C58.9366 103.915 57.657 103.475 56.5713 102.501C55.4899 101.527 54.8996 100.304 54.8091 98.8255C54.7187 97.3604 55.1495 96.0762 56.1103 94.973C57.0667 93.8698 58.2817 93.2708 59.7466 93.1803C61.2114 93.0899 62.4867 93.5294 63.5681 94.5033C64.6495 95.4772 65.2355 96.701 65.3303 98.1662ZM62.5987 100.778C63.2019 100.071 63.4776 99.2392 63.4173 98.2869C63.357 97.3345 62.9822 96.5459 62.2928 95.9254C61.6035 95.3048 60.7935 95.0204 59.8586 95.0807C58.9237 95.1411 58.1568 95.5203 57.5493 96.2227C56.9418 96.9251 56.6704 97.7525 56.7307 98.7092C56.791 99.6615 57.1658 100.454 57.8552 101.079C58.5445 101.704 59.3545 101.989 60.2894 101.933C61.2244 101.868 61.9956 101.484 62.5987 100.778Z" fill="#F2EADA"/>
<path d="M43.9949 94.1845L42.8273 92.7021C43.4477 92.1936 44.1629 91.8575 44.9686 91.6937C45.7786 91.5256 46.6058 91.5601 47.4588 91.7971C48.872 92.1893 49.9276 93.021 50.6212 94.2965C51.3149 95.5678 51.47 96.9123 51.0736 98.3257C50.6772 99.7607 49.85 100.842 48.6006 101.566C47.3511 102.29 46.0198 102.463 44.6024 102.07C43.7708 101.838 43.0513 101.45 42.4482 100.903C41.845 100.355 41.4055 99.7133 41.1255 98.9807L42.9006 98.33C43.3228 99.3642 44.0509 100.028 45.0892 100.317C45.9897 100.567 46.8384 100.446 47.6312 99.9589C48.4239 99.4677 48.9496 98.7566 49.2124 97.8129C49.4752 96.8735 49.389 95.9901 48.9582 95.167C48.5273 94.3439 47.8638 93.8053 46.9634 93.5553C46.4421 93.4088 45.9164 93.3959 45.3951 93.5122C44.8781 93.6286 44.4085 93.8527 43.9949 94.1845Z" fill="#F2EADA"/>
<path d="M35.7965 86.0614L35.2105 88.6901L38.4504 90.8189L40.6262 89.2331L42.3409 90.3578L33.3881 96.9122L31.6475 95.7703L34.0946 84.9453L35.7965 86.0614ZM33.7327 94.4861L36.9813 91.8747L34.8141 90.4526L33.7327 94.4861Z" fill="#F2EADA"/>
<path d="M32.6856 83.2862L24.8701 90.1336L23.5991 88.6814L30.122 82.9673L27.481 79.9508L28.7735 78.8174L32.6856 83.2862Z" fill="#F2EADA"/>
<path d="M72.4954 83.6394C72.1378 83.6394 71.7199 83.5188 71.4226 83.3421L57.4936 76.0809L43.5645 83.4024C42.789 83.8204 41.8368 83.7601 41.0656 83.2257C40.3504 82.6914 39.9928 81.7951 40.1134 80.903L42.7933 65.4241L31.544 54.4095C30.8891 53.7545 30.6522 52.8625 30.9494 52.0265C31.2467 51.1948 31.9619 50.5398 32.8538 50.4191L48.3899 48.1567L55.4126 34.0481C55.8305 33.2164 56.6017 32.7381 57.4979 32.7381C58.3897 32.7381 59.2255 33.2164 59.5831 34.0481L66.5455 48.1567L82.1376 50.4191C83.0295 50.5398 83.7447 51.1345 84.042 52.0265C84.3392 52.9185 84.1023 53.8105 83.4474 54.4095L72.1378 65.4241L74.8177 80.903C74.9943 81.7951 74.641 82.6871 73.8655 83.2257C73.4476 83.5231 72.9737 83.6394 72.4954 83.6394ZM34.5857 53.1598L45.1198 63.5194C45.654 64.0537 45.9513 64.8294 45.7747 65.6051L43.2758 80.192L56.3691 73.2885C57.0843 72.9309 57.8555 72.9309 58.5707 73.2885L71.6639 80.192L69.165 65.6051C69.0444 64.8294 69.2857 64.058 69.8199 63.5194L80.4143 53.2202L65.8303 51.0784C65.0548 50.9578 64.3999 50.4838 64.0466 49.7684L57.4979 36.4915L50.9491 49.7684C50.5915 50.4838 49.9366 50.9578 49.1654 51.0784L34.5857 53.1598Z" fill="#F2EADA" stroke="#F2EADA" stroke-miterlimit="10"/>
</svg>
