<svg width="115" height="116" viewBox="0 0 115 116" fill="none" xmlns="http://www.w3.org/2000/svg">
<path d="M114.682 47.2269C115.302 50.503 112.174 54.1097 112.218 57.3301C112.261 60.6448 115.47 64.17 114.945 67.3688C114.411 70.6235 110.231 72.9464 109.15 76.0165C108.06 79.1165 109.857 83.5305 108.254 86.3773C106.642 89.2326 101.925 89.9969 99.8438 92.5345C97.7714 95.0635 97.9567 99.8296 95.4621 101.972C92.9891 104.098 88.2929 103.213 85.4494 104.896C82.6532 106.549 81.1927 111.092 78.082 112.26C75.0575 113.398 70.9559 110.959 67.6686 111.577C64.3813 112.196 61.4559 115.957 58.2246 116C54.8985 116.043 51.8783 112.35 48.6685 111.826C45.4027 111.294 41.3572 113.827 38.2766 112.749C35.166 111.663 33.5977 107.159 30.7369 105.557C27.8718 103.956 23.1972 104.961 20.651 102.887C18.1133 100.821 18.1736 96.0554 16.0194 93.5693C13.8868 91.1047 9.14751 90.4606 7.4543 87.6268C5.79557 84.8401 7.48877 80.3918 6.31688 77.2917C5.17516 74.2775 0.9443 72.0533 0.323889 68.7815C-0.296521 65.5097 2.83138 61.8986 2.7883 58.6783C2.74521 55.3635 -0.464549 51.8383 0.0610766 48.6395C0.595319 45.3848 4.77447 43.0619 5.85588 39.9919C6.94591 36.8918 5.1493 32.4778 6.75203 29.6311C8.36338 26.7757 13.0811 26.0114 15.162 23.4738C17.2344 20.9448 17.0491 16.183 19.5437 14.0362C22.0167 11.9065 26.7129 12.791 29.5564 11.1078C32.3526 9.45472 33.8131 4.91193 36.9238 3.74403C39.9483 2.60619 44.0499 5.04504 47.3372 4.42674C50.6245 3.80415 53.5499 0.0428207 56.7812 -0.000116809C60.1073 -0.0430543 63.1275 3.64957 66.3373 4.17341C69.6031 4.70583 73.6487 2.17252 76.7292 3.25025C79.8398 4.33657 81.4081 8.84072 84.2689 10.4423C87.134 12.0482 91.8086 11.0391 94.3549 13.113C96.8925 15.1783 96.8322 19.9444 98.9864 22.4304C101.119 24.8951 105.858 25.5391 107.552 28.373C109.21 31.1596 107.517 35.608 108.689 38.708C109.826 41.7309 114.057 43.9507 114.682 47.2269Z" fill="#A482E4"/>
<path d="M83.5316 59.4725C83.4067 58.1843 83.0361 56.9349 82.4502 55.7755C83.7341 52.4007 83.8073 48.8669 82.6484 45.5135C81.5282 42.2631 79.2921 39.3777 76.3538 37.3811C73.4413 35.406 69.9903 34.4313 66.6383 34.6374C63.3252 34.8392 60.18 36.166 57.4571 38.4846C54.1827 35.7752 50.4818 34.4098 46.6818 34.5215C42.9335 34.6331 39.2972 36.2003 36.445 38.9269C33.5713 41.6749 31.8092 45.2816 31.4817 49.0859C31.1112 53.341 32.5545 57.4544 35.6523 60.9839C36.8673 62.2591 50.4043 76.3512 53.8165 79.9064C54.7816 80.9112 56.0827 81.4651 57.4787 81.4651C58.8746 81.4651 60.1757 80.9112 61.1408 79.9064C61.3519 79.6832 61.6535 79.374 61.9723 79.0477C62.4032 79.4985 62.8039 79.915 63.1615 80.2843C63.8939 81.0486 64.8848 81.4694 65.9447 81.4694C67.0046 81.4694 67.9912 81.0486 68.7279 80.2843L80.6105 67.9054C80.645 67.8668 80.6794 67.8324 80.7096 67.7895C82.8293 65.2433 83.8074 62.3665 83.5316 59.4725ZM59.8224 76.8793C59.4821 77.2314 59.1546 77.5663 58.9263 77.8025C58.5428 78.2018 58.0258 78.4208 57.4744 78.4208C55.6131 78.2405 54.2517 75.6256 50.8437 72.4095C46.5009 67.8839 39.1249 60.2024 37.9271 58.9572C32.296 52.5166 34.3037 45.2086 38.5605 41.1381C44.5061 35.4489 51.8131 37.2995 56.4188 41.6577C57.0177 42.2288 57.9655 42.2159 58.5515 41.6319C60.9642 39.236 63.825 37.8749 66.8193 37.6903C69.4991 37.5271 72.2694 38.3171 74.6261 39.9144C77.0216 41.5418 78.8441 43.8861 79.7488 46.5139C80.4468 48.5406 80.5803 50.6574 80.1538 52.7399C80.1107 52.6969 80.0633 52.654 80.0203 52.6153C78.0082 50.7776 75.4533 49.7342 72.8295 49.6784C70.3306 49.6269 67.9653 50.4556 65.9145 52.0915C63.7517 50.4127 61.3304 49.5711 58.8401 49.6484C56.2508 49.7256 53.7433 50.8034 51.7786 52.684C49.8011 54.5733 48.5904 57.0594 48.3621 59.6786C48.1079 62.6155 49.0988 65.4494 51.2229 67.8711C51.2358 67.8882 51.253 67.9054 51.2703 67.9226C51.3737 68.0299 56.0224 72.869 59.8483 76.8579C59.844 76.8579 59.8311 76.8708 59.8224 76.8793ZM78.3529 65.8487L66.5134 78.1803C66.3109 78.395 66.0696 78.4251 65.9447 78.4251C65.8197 78.4251 65.5785 78.395 65.3717 78.1803C61.8603 74.5221 54.0233 66.3554 53.5149 65.8272C50.0596 61.8641 51.2918 57.3728 53.907 54.8739C55.3245 53.5213 57.1125 52.7442 58.9435 52.6883C61.0202 52.6239 63.0796 53.4999 64.8934 55.2174C65.4966 55.7841 66.4402 55.7755 67.0261 55.1916C70.7443 51.499 75.3026 52.4307 77.9651 54.8567C79.4214 56.1835 80.3175 57.9224 80.4942 59.7559C80.6838 61.8254 79.9427 63.9337 78.3529 65.8487Z" fill="#F2EADA"/>
<path d="M21.8223 66.8362L19.8059 68.4593L20.9778 71.993L23.5672 72.1004L24.1876 73.9682L13.5114 73.5517L12.8823 71.6538L21.2062 64.9771L21.8223 66.8362ZM15.2218 71.9372L19.2372 71.9115L18.4531 69.5499L15.2218 71.9372Z" fill="#F2EADA"/>
<path d="M21.245 64.243L11.2711 65.0717L10.935 61.0313C10.8489 59.9922 11.0987 59.1807 11.6847 58.5924C12.2706 58.0042 13.0117 57.6778 13.8992 57.6049C14.7867 57.5319 15.5623 57.7337 16.2301 58.2189C16.8979 58.7041 17.2727 59.4598 17.3589 60.4988L17.5441 62.6929L21.0899 62.3967L21.245 64.243ZM12.5851 60.9239L12.7661 63.088L15.894 62.8304L15.7174 60.7221C15.6786 60.2799 15.4933 59.9492 15.1616 59.7303C14.8255 59.5113 14.4593 59.4168 14.0543 59.4512C13.6493 59.4855 13.296 59.6315 12.9901 59.8891C12.6842 60.1468 12.5507 60.4903 12.5851 60.9239Z" fill="#F2EADA"/>
<path d="M15.6228 55.7156C14.2225 55.4666 13.111 54.7796 12.2967 53.646C11.4781 52.5125 11.1937 51.2458 11.4436 49.8504C11.6935 48.4549 12.3958 47.36 13.5504 46.5699C14.7094 45.7799 15.989 45.5094 17.3892 45.7541C18.7808 45.9989 19.8838 46.6945 20.6981 47.8366C21.5124 48.9787 21.7967 50.2454 21.5511 51.6323C21.3056 53.0192 20.6033 54.1098 19.4443 54.8998C18.2897 55.6856 17.0144 55.9604 15.6228 55.7156ZM13.796 52.5769C14.3216 53.3025 15.0368 53.7448 15.9416 53.9037C16.8464 54.0625 17.6693 53.8908 18.406 53.3884C19.1427 52.8861 19.5908 52.1948 19.7502 51.3102C19.9053 50.4257 19.7244 49.6228 19.2031 48.8972C18.6817 48.1715 17.9709 47.7335 17.0618 47.5704C16.157 47.4115 15.3298 47.5833 14.5888 48.0813C13.8477 48.5837 13.3953 49.275 13.2402 50.1595C13.0894 51.0483 13.2747 51.8513 13.796 52.5769Z" fill="#F2EADA"/>
<path d="M24.5195 42.023L23.7311 43.7491L19.5821 41.8641L13.0376 43.0921L13.951 41.0912L18.5179 40.3484L16.0923 36.4024L17.0143 34.3887L20.3964 40.1552L24.5195 42.023Z" fill="#F2EADA"/>
<path d="M29.8835 33.8257L27.3933 33.1L25.1486 36.0713L26.5359 38.2525L25.3468 39.824L19.6123 30.8458L20.8187 29.2485L31.0684 32.267L29.8835 33.8257ZM21.9173 31.3267L24.2266 34.5985L25.7302 32.6105L21.9173 31.3267Z" fill="#F2EADA"/>
<path d="M41.6499 24.9376L39.6465 23.2974L36.4109 25.1523L36.8288 27.7028L35.1184 28.6861L33.3691 18.1793L35.1054 17.1831L43.3474 23.9629L41.6499 24.9376ZM35.3036 19.5275L36.1394 23.4391L38.3023 22.1982L35.3036 19.5275Z" fill="#F2EADA"/>
<path d="M44.14 23.8901L41.1284 14.3795L42.9035 13.8213L45.4196 21.7604L49.1033 20.6011L49.6031 22.1769L44.14 23.8901Z" fill="#F2EADA"/>
<path d="M53.7263 21.5502L53.4937 11.5801L59.6805 11.4341L59.7193 13.0829L55.3764 13.1859L55.4367 15.7751L59.2411 15.6849L59.2798 17.3208L55.4755 17.411L55.5315 19.8584L60.0166 19.7554L60.0554 21.4042L53.7263 21.5502Z" fill="#F2EADA"/>
<path d="M67.4999 19.5065L72.2737 13.77L73.8204 14.1694L72.4977 24.1309L70.6968 23.6671L71.6188 17.0419L67.7024 21.7307L66.2677 21.3614L65.1045 15.3673L62.6788 21.6061L60.8779 21.1424L64.5745 11.7949L66.0954 12.1857L67.4999 19.5065Z" fill="#F2EADA"/>
<path d="M73.5361 24.9939L78.6718 16.4321L82.1616 18.5103C83.0577 19.047 83.5747 19.7211 83.7126 20.537C83.8505 21.3528 83.6868 22.1428 83.2301 22.9071C82.7734 23.6714 82.153 24.1781 81.3731 24.44C80.5933 24.6976 79.7532 24.5602 78.8527 24.0278L76.957 22.8985L75.1303 25.9428L73.5361 24.9939ZM81.287 19.9144L79.4171 18.8023L77.8058 21.4859L79.6239 22.5722C80.0074 22.7998 80.3822 22.8427 80.757 22.701C81.1319 22.5593 81.4205 22.3146 81.6316 21.9668C81.8384 21.619 81.9289 21.2454 81.8945 20.8504C81.8686 20.4468 81.6618 20.1376 81.287 19.9144Z" fill="#F2EADA"/>
<path d="M86.4743 30.0816L85.785 34.4527L84.1779 32.9026L84.9621 28.7248L84.4106 28.1924L81.9333 30.7386L80.5977 29.4504L87.56 22.2842L90.4381 25.0622C91.1834 25.7793 91.5281 26.5565 91.4807 27.3895C91.4333 28.2224 91.0972 28.9567 90.4768 29.5964C89.9383 30.1503 89.3092 30.4895 88.5897 30.6141C87.8745 30.7386 87.168 30.5625 86.4743 30.0816ZM89.2274 26.1872L87.7453 24.7574L85.5609 27.003L86.9999 28.3942C87.3274 28.7076 87.685 28.8407 88.0727 28.7849C88.4605 28.7291 88.8009 28.5531 89.0895 28.2568C89.3739 27.9648 89.5419 27.6256 89.6022 27.2306C89.6668 26.8356 89.5419 26.4921 89.2274 26.1872Z" fill="#F2EADA"/>
<path d="M86.6167 35.6253L94.9966 30.168L98.383 35.3291L96.9957 36.2307L94.6217 32.6068L92.446 34.0238L94.5269 37.1968L93.1526 38.0899L91.0716 34.9169L89.0165 36.2565L91.4723 40.0007L90.085 40.9024L86.6167 35.6253Z" fill="#F2EADA"/>
<path d="M102.674 45.7539L93.2556 49.1245L92.6826 47.5315L97.5684 41.692L91.3772 43.9076L90.7524 42.1772L100.171 38.8066L100.757 40.4297L95.9225 46.2048L102.045 44.0107L102.674 45.7539Z" fill="#F2EADA"/>
<path d="M94.0184 54.8565L93.6909 50.975L103.665 50.1377L103.992 54.0192C104.109 55.4061 103.734 56.5397 102.859 57.4199C101.985 58.3001 100.821 58.8025 99.3651 58.927C97.9175 59.0472 96.6939 58.7467 95.6943 58.021C94.6905 57.2954 94.1347 56.2391 94.0184 54.8565ZM102.122 52.1257L95.5349 52.6796L95.7073 54.7148C95.7805 55.5607 96.1424 56.1876 96.7973 56.5912C97.4522 56.9948 98.2535 57.158 99.2014 57.0807C100.158 56.9991 100.929 56.7028 101.515 56.1962C102.105 55.6852 102.364 55.0068 102.29 54.1609L102.122 52.1257Z" fill="#F2EADA"/>
<path d="M94.1649 60.7266L104.057 62.2423L103.118 68.3394L101.481 68.0904L102.14 63.8138L99.5719 63.4187L98.9946 67.1672L97.3703 66.9182L97.9477 63.1697L95.522 62.7962L94.8413 67.2187L93.2041 66.9697L94.1649 60.7266Z" fill="#F2EADA"/>
<path d="M91.386 71.9458L92.881 68.3477L102.127 72.1648L100.632 75.763C100.098 77.0468 99.2402 77.8798 98.0597 78.2662C96.8792 78.6484 95.6125 78.5625 94.2597 78.0043C92.9198 77.4504 91.9719 76.6217 91.4162 75.5225C90.8604 74.4233 90.8518 73.2297 91.386 71.9458ZM99.8434 73.2297L93.7384 70.7092L92.9543 72.5942C92.6268 73.3799 92.6613 74.1013 93.0577 74.7625C93.454 75.4238 94.0917 75.9347 94.9663 76.2954C95.8538 76.6604 96.6724 76.7505 97.4307 76.5702C98.189 76.3856 98.7318 75.9047 99.055 75.1189L99.8434 73.2297Z" fill="#F2EADA"/>
<path d="M93.247 79.8678C94.3586 80.7523 95.0048 81.8858 95.1815 83.2684C95.3581 84.6553 95.0005 85.9005 94.113 87.0083C93.2255 88.1161 92.0837 88.743 90.6878 88.8889C89.2919 89.0306 88.0381 88.6614 86.9223 87.7812C85.815 86.9052 85.1774 85.7674 85.0093 84.3762C84.8413 82.985 85.1946 81.7356 86.0778 80.6364C86.9567 79.5329 88.0985 78.9103 89.4944 78.7686C90.8903 78.6226 92.144 78.9876 93.247 79.8678ZM93.3504 83.4917C93.2341 82.6029 92.8205 81.8773 92.0966 81.3062C91.3771 80.7351 90.5715 80.4947 89.6839 80.5848C88.7964 80.675 88.0683 81.07 87.5082 81.7742C86.9481 82.4741 86.7241 83.2684 86.8318 84.1529C86.9438 85.0375 87.3574 85.7631 88.0769 86.3342C88.7964 86.9052 89.6021 87.1457 90.4939 87.0598C91.3858 86.9739 92.1139 86.5789 92.674 85.8747C93.2427 85.1706 93.4667 84.3762 93.3504 83.4917Z" fill="#F2EADA"/>
<path d="M80.3391 91.0961L76.1255 89.7006L77.9264 88.3781L81.9332 89.838L82.5536 89.3829L80.4382 86.5318L81.9332 85.4326L87.8788 93.4533L84.6561 95.8278C83.8246 96.4418 82.9974 96.6565 82.1788 96.4719C81.3602 96.2872 80.6881 95.8364 80.1582 95.1236C79.6972 94.501 79.4645 93.8269 79.4602 93.1013C79.4602 92.3627 79.7532 91.6972 80.3391 91.0961ZM83.7427 94.4409L85.4015 93.2215L83.5359 90.7053L81.9246 91.8904C81.5584 92.1609 81.3688 92.4916 81.3602 92.8823C81.3516 93.273 81.4679 93.638 81.7135 93.9686C81.9548 94.2949 82.265 94.5182 82.6441 94.6427C83.0233 94.7672 83.3895 94.6985 83.7427 94.4409Z" fill="#F2EADA"/>
<path d="M68.5642 92.9165L70.9338 102.607L69.1286 103.045L67.151 94.9603L63.3984 95.8706L63.0063 94.269L68.5642 92.9165Z" fill="#F2EADA"/>
<path d="M62.8945 99.4047C62.916 100.822 62.4464 102.041 61.4856 103.054C60.5249 104.068 59.3314 104.587 57.9097 104.609C56.4879 104.63 55.2772 104.154 54.2777 103.17C53.2781 102.187 52.7697 100.989 52.7439 99.5678C52.7223 98.1595 53.1963 96.9486 54.1656 95.931C55.135 94.9134 56.3285 94.3981 57.7416 94.3767C59.1548 94.3552 60.3611 94.8318 61.3607 95.8151C62.3602 96.8026 62.8729 97.9963 62.8945 99.4047ZM60.15 101.788C60.7661 101.135 61.0634 100.354 61.0505 99.4347C61.0376 98.5158 60.7101 97.7473 60.0768 97.1204C59.4434 96.4935 58.6722 96.1886 57.7718 96.2015C56.8713 96.2144 56.113 96.545 55.5013 97.1934C54.8851 97.8417 54.5879 98.6232 54.6008 99.5378C54.6137 100.452 54.9412 101.229 55.5745 101.861C56.2078 102.492 56.979 102.801 57.8795 102.788C58.7799 102.771 59.5382 102.44 60.15 101.788Z" fill="#F2EADA"/>
<path d="M43.8514 95.2139L42.7226 93.7927C43.3171 93.3075 44.0065 92.9812 44.782 92.818C45.5618 92.6548 46.3589 92.6892 47.1818 92.9125C48.5432 93.286 49.5643 94.0804 50.2364 95.3041C50.9086 96.5235 51.0593 97.8117 50.6845 99.1728C50.3054 100.551 49.5126 101.59 48.3106 102.29C47.1085 102.99 45.8246 103.157 44.4632 102.784C43.6618 102.565 42.9682 102.191 42.3822 101.667C41.8006 101.144 41.3741 100.53 41.1069 99.8254L42.8174 99.1985C43.2267 100.19 43.9289 100.826 44.9285 101.096C45.7988 101.333 46.6131 101.217 47.3757 100.744C48.1382 100.272 48.6423 99.585 48.8922 98.6833C49.1421 97.7816 49.0602 96.9357 48.6423 96.1457C48.2287 95.3556 47.5868 94.8447 46.7165 94.6042C46.2124 94.4668 45.7083 94.4539 45.2042 94.5656C44.7044 94.6729 44.2521 94.8919 43.8514 95.2139Z" fill="#F2EADA"/>
<path d="M36.8974 88.3395L36.4881 90.89L39.7281 92.7363L41.7272 91.0918L43.4419 92.0708L35.2172 98.8721L33.4766 97.8803L35.1956 87.3691L36.8974 88.3395ZM35.4067 96.5277L38.3752 93.8355L36.2081 92.5989L35.4067 96.5277Z" fill="#F2EADA"/>
<path d="M34.7303 86.7209L28.0178 94.119L26.6392 92.8781L32.2401 86.7037L29.375 84.1231L30.4866 82.8994L34.7303 86.7209Z" fill="#F2EADA"/>
<path d="M22.227 82.9466C23.2549 82.9466 24.0882 82.1162 24.0882 81.0917C24.0882 80.0673 23.2549 79.2368 22.227 79.2368C21.199 79.2368 20.3657 80.0673 20.3657 81.0917C20.3657 82.1162 21.199 82.9466 22.227 82.9466Z" fill="#F2EADA"/>
</svg>
