<svg width="720" height="25" viewBox="0 0 720 25" fill="none" xmlns="http://www.w3.org/2000/svg">
<path d="M719.913 24.9537V0.0728149L-1.99982 0.0728149V24.9537L719.913 24.9537Z" fill="#F7F0E7"/>
<path d="M594.9 0H630.621L597.895 24.966H562.173L594.9 0Z" fill="#C694EA"/>
<path d="M406.842 0H442.564L409.837 24.966H374.115L406.842 0Z" fill="#C694EA"/>
<path d="M218.785 0H254.507L221.78 24.966H186.058L218.785 0Z" fill="#C694EA"/>
<path d="M684.192 0H719.913L687.162 24.966H651.465L684.192 0Z" fill="#F9B046"/>
<path d="M496.135 0H531.856L499.105 24.966H463.408L496.135 0Z" fill="#F9B046"/>
<path d="M308.077 0H343.799L311.048 24.966H275.351L308.077 0Z" fill="#F9B046"/>
<path d="M120.02 0H155.742L122.991 24.966H87.2935L120.02 0Z" fill="#F9B046"/>
<path d="M30.7272 0H66.4491L33.7223 24.966H-1.99951L30.7272 0Z" fill="#C694EA"/>
</svg>
