<!-- Generator: Adobe Illustrator 24.1.2, SVG Export Plug-In  -->
<svg version="1.1" xmlns="http://www.w3.org/2000/svg" xmlns:xlink="http://www.w3.org/1999/xlink" x="0px" y="0px" width="69.5px"
	 height="70.3px" viewBox="0 0 69.5 70.3" style="overflow:visible;enable-background:new 0 0 69.5 70.3;" xml:space="preserve">
<style type="text/css">
	.st0{fill:#F4F0ED;}
	.st1{opacity:0.1;}
	.st2{opacity:0.1;fill:#EF774F;enable-background:new    ;}
	.st3{fill:#66C3CD;stroke:#66C3CD;stroke-miterlimit:10;}
</style>
<defs>
</defs>
<path class="st0" d="M69.3,28.6c0.4,2-1.5,4.2-1.5,6.1c0,2,2,4.1,1.7,6.1c-0.3,2-2.8,3.4-3.5,5.2c-0.7,1.9,0.4,4.6-0.5,6.3
	c-1,1.7-3.8,2.2-5.1,3.7c-1.3,1.5-1.1,4.4-2.7,5.7c-1.5,1.3-4.3,0.7-6.1,1.8c-1.7,1-2.6,3.8-4.5,4.5c-1.8,0.7-4.3-0.8-6.3-0.4
	c-2,0.4-3.8,2.7-5.7,2.7c-2,0-3.8-2.2-5.8-2.5c-2-0.3-4.4,1.2-6.3,0.6c-1.9-0.7-2.8-3.4-4.6-4.4c-1.7-1-4.6-0.4-6.1-1.6
	c-1.5-1.3-1.5-4.1-2.8-5.6c-1.3-1.5-4.2-1.9-5.2-3.6c-1-1.7,0-4.4-0.7-6.3c-0.7-1.8-3.2-3.2-3.6-5.2c-0.4-2,1.5-4.2,1.5-6.1
	c0-2-2-4.1-1.7-6.1c0.3-2,2.8-3.4,3.5-5.2c0.7-1.9-0.4-4.6,0.5-6.3c1-1.7,3.8-2.2,5.1-3.7c1.3-1.5,1.1-4.4,2.7-5.7
	c1.5-1.3,4.3-0.7,6.1-1.8c1.7-1,2.6-3.8,4.5-4.5c1.8-0.7,4.3,0.8,6.3,0.4c2-0.4,3.7-2.7,5.7-2.7c2,0,3.8,2.2,5.8,2.5
	c2,0.3,4.4-1.2,6.3-0.6c1.9,0.7,2.8,3.4,4.6,4.4c1.7,1,4.6,0.4,6.1,1.6c1.5,1.3,1.5,4.1,2.8,5.6c1.3,1.5,4.2,1.9,5.2,3.6
	c1,1.7,0,4.4,0.7,6.3C66.3,25.3,68.9,26.6,69.3,28.6z"/>
<g class="st1">
	<path class="st2" d="M28.3,40.7L28,40.2c-1.2-1.6-1.2-3.6,0-5.4c1.2-1.7,2.1-2,3.1-2.2c0.4-0.1,0.5-0.1,0.8-0.6
		c0.8-1.8,2-2.1,2.6-2.2c1-0.1,2,0.4,2.7,1.4c0.9,1.3,1.7,0.8,1.9,0.6l3.3-2.3l-1.8,3.6c-2.3,4.5-6.8,7.3-11.7,7.5L28.3,40.7z
		 M34.7,31.9C34.6,31.9,34.6,31.9,34.7,31.9c-0.4,0-0.7,0.4-1,1c-0.6,1.3-1.4,1.6-2.2,1.8c-0.5,0.1-1,0.2-1.8,1.4
		c-0.6,0.9-0.7,1.7-0.3,2.6c3.3-0.3,6.3-1.9,8.2-4.5c-0.8-0.2-1.5-0.8-2.1-1.6C35.2,32.1,34.9,31.9,34.7,31.9z"/>
</g>
<g class="st1">
	<path class="st2" d="M35,43.1c-1.4,0-2.8-0.3-3.4-1.3c-0.8-1.4,0.3-3.1,0.7-3.6c0.1-0.2,0.2-0.3,0.1-0.5c-0.1-0.2-0.2-0.5-0.5-0.8
		c-0.4-0.4-1-0.8-1.7-1c-0.5-0.1-1-0.1-1.2,0l-3.3,2.2l1.8-3.5c1.1-2.2,2.8-4,4.9-5.3c2.1-1.3,4.6-2,7.2-2c0.4,0,0.8,0,1.3,0.1
		l2.8,0.3l-2.4,1.6c-0.4,0.3-0.6,0.5-0.7,0.7c-0.1,0.3,0.3,0.9,0.7,1.3c0.5,0.7,1.1,1.5,0.8,2.4c-0.2,0.8-0.8,1.3-1.4,1.8
		c-0.9,0.8-1.5,1.4-1.3,2.5c0.3,1.6,0.1,2.8-0.5,3.7c-0.6,0.8-1.5,1.2-2.7,1.4l0,0C35.8,43.1,35.4,43.1,35,43.1z M30.5,33.8
		c0.1,0,0.2,0.1,0.4,0.1c1,0.3,1.9,0.8,2.6,1.5c1.2,1.2,1.4,2.7,0.6,3.9c-0.7,1.1-0.6,1.4-0.6,1.4c0,0,0.3,0.4,2.7,0.3
		c0.7-0.1,1.1-0.3,1.3-0.6c0.3-0.4,0.4-1.1,0.2-2.1c-0.4-2.3,1-3.6,1.9-4.4c0.3-0.2,0.6-0.6,0.7-0.7c-0.1-0.2-0.3-0.5-0.5-0.7
		c-0.5-0.7-1.2-1.7-1-2.9c0-0.1,0-0.2,0.1-0.2C35.4,29.6,32.4,31.2,30.5,33.8z"/>
</g>
<g class="st1">
	<path class="st2" d="M43.3,37.7H26.2c-0.7,0-1.3-0.6-1.3-1.3v-2.6c0-0.8,0.6-1.4,1.4-1.4h16.9c0.8,0,1.4,0.6,1.4,1.4v2.6
		C44.6,37.2,44,37.7,43.3,37.7z M27,35.7h15.5v-1.1H27V35.7z"/>
</g>
<g>
	<path class="st3" d="M34.7,46h-0.9c-0.2,0-0.5-0.1-0.6-0.3l-12-17.5c0,0,0-0.1-0.1-0.1c-1-1.8-1.5-3.8-1.5-5.8
		c0-7.2,6.8-13.1,15.2-13.1c8.4,0,15.2,5.9,15.2,13.1c0,2-0.5,4-1.5,5.8c0,0,0,0.1-0.1,0.1l-12,17.5c-0.1,0.2-0.4,0.3-0.6,0.3H34.7z
		 M34.2,44.5h0.5h0.5l11.8-17.1c0.9-1.6,1.4-3.3,1.4-5.1c0-6.4-6.1-11.7-13.7-11.7c-7.5,0-13.7,5.2-13.7,11.7c0,1.8,0.5,3.5,1.4,5.1
		L34.2,44.5z"/>
	<path class="st3" d="M35.4,46h-1.4c-0.3,0-0.6-0.2-0.7-0.6L27,19c0,0,0,0,0-0.1c-0.1-0.6-0.2-1.2-0.2-1.7c0-4.4,3.6-8,8-8
		s8,3.6,8,8c0,0.6-0.1,1.2-0.2,1.7c0,0,0,0,0,0.1l-6.4,26.4C36.1,45.8,35.8,46,35.4,46z M34.6,44.5h0.2l6.2-25.8c0,0,0,0,0,0
		c0.1-0.5,0.2-1,0.2-1.5c0-3.6-2.9-6.5-6.5-6.5s-6.5,2.9-6.5,6.5c0,0.5,0.1,1,0.2,1.5c0,0,0,0,0,0L34.6,44.5z"/>
	<path class="st3" d="M35.1,34.3c-5.8,0-10.2-1.3-10.4-1.4c-0.4-0.1-0.6-0.5-0.5-0.9c0.1-0.4,0.5-0.6,0.9-0.5c0.1,0,9.8,3,19.2,0
		c0.4-0.1,0.8,0.1,0.9,0.5c0.1,0.4-0.1,0.8-0.5,0.9C41.4,33.9,38.1,34.3,35.1,34.3z"/>
	<path class="st3" d="M42.9,46.4c-2.1-2.1-5.6-2.1-7.7,0l-0.5,0.5l-0.5-0.5c-2.1-2.1-5.6-2.1-7.7,0c-2.1,2.1-2.1,5.4,0,7.7
		c1.9,2.1,7.4,6.6,7.7,6.8c0.2,0.1,0.4,0.2,0.5,0.2c0,0,0,0,0,0c0.2,0,0.4-0.1,0.6-0.2c0.2-0.2,5.8-4.7,7.7-6.8
		C45,51.8,45,48.5,42.9,46.4z M41.7,52.9c-1.5,1.6-5.5,5-6.9,6.2c-1.4-1.2-5.5-4.6-6.9-6.2c-1.4-1.6-1.5-3.9,0-5.3
		c0.7-0.7,1.7-1.1,2.6-1.1s1.9,0.4,2.6,1.1l1.1,1.1c0.1,0.1,0.3,0.2,0.5,0.2c0.3,0.1,0.6,0,0.8-0.2l1.1-1.1c1.5-1.5,3.8-1.5,5.3,0
		C43.1,49.1,43.1,51.3,41.7,52.9z"/>
	<path class="st3" d="M35.3,47.5c0.8-0.3,1.2-1.2,0.9-2c-0.3-0.8-1.2-1.2-2-0.9c-0.8,0.3-1.2,1.2-0.9,2
		C33.6,47.4,34.5,47.8,35.3,47.5z"/>
</g>
</svg>
