<svg width="62" height="62" viewBox="0 0 62 62" fill="none" xmlns="http://www.w3.org/2000/svg">
<path d="M60.689 48.2063C60.8995 47.9255 61.08 47.5947 61.08 47.0934V6.57723C61.08 5.58463 60.2779 4.78253 59.2853 4.78253H53.9714V1.7947C53.9714 0.802101 53.1693 0 52.1767 0H45.2184C44.2258 0 43.4238 0.802101 43.4238 1.7947V4.79255H17.6563V1.7947C17.6563 0.802101 16.8541 0 15.8615 0H8.91335C7.92075 0 7.11865 0.802101 7.11865 1.7947V4.79255H1.7947C0.802101 4.79255 0 5.59466 0 6.57723V59.3154C0 60.308 0.802101 61.1101 1.7947 61.1101H47.1234C47.5044 61.1001 48.0058 60.9898 48.3968 60.5787L60.5687 48.3466C60.5887 48.3266 60.5887 48.3366 60.689 48.2063ZM47.0232 3.57938H50.402V10.9387H47.0232V3.57938ZM10.698 3.57938H14.0769V10.9387H10.698V3.57938ZM7.11865 8.37193V12.7334C7.11865 13.726 7.92075 14.5281 8.91335 14.5281H15.8716C16.8642 14.5281 17.6663 13.726 17.6663 12.7334V8.37193H43.4538V12.7334C43.4538 13.726 44.2559 14.5281 45.2485 14.5281H52.2068C53.1994 14.5281 54.0015 13.726 54.0015 12.7334V8.37193H57.5207V18.5787H3.57938V8.37193H7.11865ZM3.57938 22.158H57.5006V45.1683L48.0358 44.4966C47.0833 44.4264 46.1609 44.7773 45.4791 45.4491C44.8074 46.1208 44.4565 47.0533 44.5266 48.0058L45.1984 57.5407H3.57938V22.158ZM48.6274 55.2648L48.1261 48.086L55.2648 48.5973L48.6274 55.2648Z" fill="#4A3F37"/>
<path d="M41.7595 28.9858C38.9321 26.399 34.3501 25.4866 30.52 28.2639C26.4093 25.3262 21.9075 26.4893 19.2405 29.046C16.1524 32.0137 14.9994 37.2775 18.7793 41.5888C18.7993 41.6089 18.8094 41.6289 18.8294 41.649C18.8996 41.7192 21.4964 44.4363 24.0832 47.1333L27.9533 51.1739C28.6251 51.8758 29.5676 52.2768 30.5301 52.2768C31.5026 52.2768 32.4451 51.8758 33.1068 51.1739L42.2307 41.6389C42.2708 41.5988 42.3109 41.5587 42.341 41.5086C46.2312 36.8364 44.7674 31.743 41.7595 28.9858ZM39.5938 39.2226L30.5301 48.6974L26.67 44.6568C24.2135 42.0901 21.7471 39.5134 21.4463 39.2026C19.7819 37.2675 19.1503 34.0892 21.717 31.6227C23.3914 30.0185 26.3792 29.1161 29.2968 31.8934C29.9987 32.5652 31.1016 32.5451 31.7934 31.8633C32.9564 30.7003 34.33 30.1087 35.7538 30.1388C37.0471 30.1689 38.3205 30.6903 39.3331 31.6227C41.0576 33.1968 42.1505 36.1345 39.5938 39.2226Z" fill="#4A3F37"/>
</svg>
