<svg width="70" height="70" viewBox="0 0 70 70" fill="none" xmlns="http://www.w3.org/2000/svg">
<path d="M35.4341 35.8899C27.2939 35.8899 20.6641 29.2601 20.6641 21.1198C20.6641 12.9796 27.2939 6.36133 35.4341 6.36133C43.5744 6.36133 50.2042 12.9911 50.2042 21.1314C50.2042 29.2716 43.5744 35.8899 35.4341 35.8899ZM35.4341 7.94095C28.1702 7.94095 22.2552 13.8559 22.2552 21.1198C22.2552 28.3838 28.1702 34.2987 35.4341 34.2987C42.6981 34.2987 48.613 28.3838 48.613 21.1198C48.613 13.8559 42.6981 7.94095 35.4341 7.94095Z" fill="#4A3F37" stroke="#4A3F37" stroke-miterlimit="10"/>
<path d="M26.2099 55.122L35.7914 63.4698L45.3844 55.122C46.6412 54.0151 47.4022 52.4701 47.5175 50.7752C47.6328 49.0803 47.0793 47.4545 45.984 46.1862C44.7849 44.8141 43.0553 44.0186 41.2451 44.0186C39.7231 44.0186 38.2473 44.572 37.0943 45.5866L35.8029 46.7281L34.5115 45.5866C33.3585 44.572 31.8942 44.0186 30.3607 44.0186C28.539 44.0186 26.8094 44.8026 25.6218 46.1862C23.3274 48.8151 23.6041 52.8275 26.2099 55.122ZM26.6595 47.0971C27.5935 46.0248 28.9425 45.4022 30.3607 45.4022C31.5483 45.4022 32.7013 45.8403 33.6007 46.6244L35.3417 48.1579C35.6069 48.3885 35.9874 48.3885 36.2526 48.1579L37.9936 46.6244C38.893 45.8403 40.0345 45.4022 41.2336 45.4022C42.6518 45.4022 44.0008 46.0133 44.9347 47.0971C45.7995 48.0887 46.2261 49.3685 46.1339 50.6945C46.0416 52.0204 45.4536 53.2311 44.462 54.0959L35.7914 61.7403L27.1208 54.0959C25.0799 52.2856 24.8724 49.1494 26.6595 47.0971Z" fill="#4A3F37" stroke="#4A3F37" stroke-miterlimit="10"/>
<path d="M35.7914 63.7237L26.0715 55.2721C23.385 52.8969 23.1083 48.7692 25.4604 46.0596C26.6941 44.6414 28.4813 43.8228 30.3492 43.8228C31.9173 43.8228 33.4392 44.3993 34.6268 45.437L35.7798 46.4631L36.9329 45.437C38.1205 44.3877 39.6424 43.8228 41.2105 43.8228C43.0899 43.8228 44.8656 44.6414 46.0993 46.0596C47.2408 47.374 47.8057 49.0459 47.6904 50.7985C47.5751 52.5395 46.7911 54.1307 45.4882 55.2837L35.7914 63.7237ZM26.3367 54.9724L35.7914 63.2048L45.246 54.9724C46.4682 53.9001 47.2062 52.4011 47.3099 50.7639C47.4137 49.1266 46.8833 47.547 45.8226 46.3133C44.6695 44.9758 42.9861 44.2148 41.2336 44.2148C39.7577 44.2148 38.328 44.7567 37.2211 45.7367L35.8029 46.9935L34.3847 45.7367C33.2778 44.7567 31.8481 44.2148 30.3722 44.2148C28.6081 44.2148 26.9363 44.9758 25.7833 46.3133C23.5579 48.8614 23.8116 52.747 26.3367 54.9724ZM35.7914 61.9942L26.9824 54.2344C24.8608 52.3666 24.6418 49.1035 26.4981 46.9589C27.4666 45.8405 28.8733 45.1948 30.3492 45.1948C31.5829 45.1948 32.782 45.6445 33.716 46.4747L35.457 48.0082C35.6415 48.1696 35.9182 48.1696 36.1027 48.0082L37.8437 46.4747C38.7777 45.656 39.9768 45.1948 41.2105 45.1948C42.6864 45.1948 44.093 45.8405 45.0616 46.9589C45.9609 47.9966 46.3991 49.3226 46.3183 50.6947C46.2261 52.0668 45.615 53.3235 44.5888 54.2344L35.7914 61.9942ZM30.3607 45.5984C29.0001 45.5984 27.7088 46.1864 26.8094 47.2241C25.0914 49.1958 25.2875 52.2167 27.2591 53.9462L35.8029 61.4753L44.3467 53.9462C45.2922 53.116 45.8571 51.9515 45.9494 50.6832C46.0301 49.4148 45.6265 48.1811 44.7964 47.2357C43.897 46.2095 42.6057 45.6099 41.2451 45.6099C40.1036 45.6099 38.9967 46.025 38.1435 46.786L36.4025 48.3195C36.0681 48.6193 35.5608 48.6193 35.2264 48.3195L33.4854 46.786C32.5975 46.0135 31.5022 45.5984 30.3607 45.5984Z" fill="#4A3F37" stroke="#4A3F37" stroke-miterlimit="10"/>
<path d="M7.09353 7.96421L12.7202 12.853L18.3469 7.96421C19.0848 7.30699 19.5345 6.40765 19.5921 5.41606C19.6613 4.42447 19.3385 3.46747 18.6928 2.71802C17.9895 1.91091 16.9748 1.44971 15.9141 1.44971C15.0147 1.44971 14.1499 1.77255 13.4812 2.37211L12.7202 3.04086L11.9592 2.37211C11.2905 1.78408 10.4257 1.44971 9.52638 1.44971C8.45408 1.44971 7.45096 1.91091 6.74763 2.71802C5.41014 4.26305 5.56003 6.61519 7.09353 7.96421ZM7.35872 3.2484C7.90064 2.61425 8.69621 2.25681 9.52638 2.25681C10.2297 2.25681 10.8985 2.51048 11.4288 2.97168L12.455 3.87103C12.6049 4.00939 12.8355 4.00939 12.9854 3.87103L14.0116 2.97168C14.542 2.51048 15.2107 2.25681 15.9141 2.25681C16.7442 2.25681 17.5398 2.61425 18.0817 3.2484C18.589 3.83644 18.8427 4.58589 18.785 5.35841C18.7389 6.13092 18.3815 6.84579 17.805 7.35311L12.7202 11.8383L7.62391 7.35311C6.42478 6.29235 6.30948 4.45906 7.35872 3.2484Z" fill="#4A3F37" stroke="#4A3F37" stroke-miterlimit="10"/>
<path d="M12.7202 13.1871L6.93206 8.14845C5.29479 6.70718 5.13337 4.19362 6.5631 2.55635C7.31256 1.69159 8.39639 1.1958 9.52634 1.1958C10.4833 1.1958 11.4057 1.5417 12.1206 2.17586L12.7086 2.69471L13.2967 2.17586C14.0115 1.5417 14.9339 1.1958 15.8909 1.1958C17.0324 1.1958 18.1163 1.69159 18.8657 2.55635C19.5575 3.35193 19.9034 4.36658 19.8342 5.42734C19.7651 6.48811 19.2923 7.44511 18.4967 8.14845L12.7202 13.1871ZM7.25491 7.76795L12.7202 12.5184L18.1854 7.76795C18.8772 7.15686 19.2923 6.31516 19.35 5.39275C19.4076 4.47035 19.1078 3.571 18.5083 2.87919C17.8511 2.12974 16.9056 1.69159 15.914 1.69159C15.0838 1.69159 14.2767 1.99138 13.6426 2.54482L12.7202 3.35193L11.7978 2.54482C11.1636 2.00291 10.368 1.69159 9.52634 1.69159C8.53475 1.69159 7.58928 2.11821 6.93206 2.87919C5.68681 4.32046 5.82518 6.51117 7.25491 7.76795ZM12.7202 12.1724L7.46245 7.53735C6.15955 6.39587 6.03272 4.38964 7.1742 3.08674C7.77376 2.40646 8.62699 2.01444 9.53787 2.01444C10.2989 2.01444 11.0252 2.29116 11.6018 2.79848L12.6279 3.69783C12.6856 3.75548 12.7778 3.75548 12.8355 3.69783L13.8616 2.79848C14.4382 2.29116 15.1645 2.01444 15.9255 2.01444C16.8249 2.01444 17.6896 2.40646 18.2892 3.08674C18.8426 3.72089 19.1078 4.528 19.0502 5.36969C18.9925 6.21139 18.612 6.98391 17.9894 7.53735L12.7202 12.1724ZM9.52634 2.4987C8.76535 2.4987 8.03895 2.83307 7.54316 3.40958C6.58616 4.51647 6.70146 6.19986 7.79682 7.16839L12.7202 11.5037L17.6435 7.16839C18.1739 6.70718 18.4852 6.04997 18.5429 5.34663C18.589 4.63177 18.3584 3.95149 17.8972 3.42111C17.4014 2.8446 16.675 2.51023 15.914 2.51023C15.2799 2.51023 14.6572 2.74083 14.1845 3.16745L13.1583 4.06679C12.9162 4.28587 12.5357 4.28587 12.2936 4.06679L11.2674 3.15592C10.7831 2.74083 10.172 2.4987 9.52634 2.4987Z" fill="#4A3F37" stroke="#4A3F37" stroke-miterlimit="10"/>
<path d="M12.7202 13.1179L6.96666 8.11382C5.35245 6.69562 5.19102 4.21665 6.5977 2.59091C7.33562 1.73768 8.40792 1.25342 9.52634 1.25342C10.4718 1.25342 11.3827 1.59932 12.086 2.22195L12.7086 2.77539L13.3313 2.22195C14.0461 1.59932 14.957 1.25342 15.8909 1.25342C17.0209 1.25342 18.0817 1.73768 18.8196 2.59091C19.4999 3.37495 19.8342 4.37807 19.7651 5.42731C19.6959 6.47655 19.2231 7.42202 18.4506 8.11382L12.7202 13.1179ZM7.22032 7.81404L12.7086 12.599L18.197 7.81404C18.9003 7.20294 19.3154 6.33819 19.3846 5.40425C19.4422 4.47031 19.1424 3.55944 18.5313 2.8561C17.8626 2.09511 16.9056 1.65697 15.9025 1.65697C15.0608 1.65697 14.2421 1.96828 13.5965 2.53326L12.7086 3.3173L11.8324 2.52173C11.1982 1.95675 10.3796 1.64544 9.52634 1.64544C8.51169 1.64544 7.55469 2.08358 6.89748 2.84457C5.62917 4.30889 5.77906 6.5342 7.22032 7.81404ZM12.7202 12.1032L7.49704 7.50273C6.2172 6.37278 6.09037 4.41266 7.20879 3.12129C7.79683 2.45255 8.63852 2.06052 9.52634 2.06052C10.2758 2.06052 10.9907 2.33725 11.5556 2.83304L12.5818 3.73239C12.6625 3.80157 12.7778 3.80157 12.8585 3.73239L13.8847 2.83304C14.4497 2.33725 15.1646 2.06052 15.914 2.06052C16.8018 2.06052 17.6551 2.45255 18.2316 3.12129C18.7735 3.74392 19.0387 4.53949 18.981 5.36966C18.9234 6.19983 18.5544 6.96081 17.9318 7.50273L12.7202 12.1032ZM9.52634 2.45255C8.75382 2.45255 8.0159 2.78692 7.50857 3.37495C6.52851 4.5049 6.64382 6.22289 7.76223 7.20295L12.7202 11.5729L17.6781 7.20295C18.22 6.73021 18.5429 6.073 18.589 5.3466C18.6351 4.6202 18.4045 3.9284 17.9318 3.38648C17.4245 2.79845 16.6865 2.46408 15.914 2.46408C15.2683 2.46408 14.6342 2.70621 14.1499 3.13282L13.1122 4.02064C12.8816 4.21665 12.5472 4.21665 12.3166 4.02064L11.2904 3.12129C10.8062 2.69468 10.1836 2.45255 9.52634 2.45255Z" fill="#4A3F37" stroke="#4A3F37" stroke-miterlimit="10"/>
<path d="M12.7201 13.441L6.80519 8.29855C5.08721 6.78811 4.91426 4.14772 6.41317 2.42973C7.19722 1.51885 8.3387 1 9.5263 1C10.5294 1 11.4979 1.36896 12.2589 2.03771L12.7201 2.44126L13.1813 2.03771C13.9423 1.36896 14.9108 1 15.914 1C17.1131 1 18.243 1.51885 19.0386 2.42973C19.765 3.2599 20.1224 4.3322 20.0533 5.45062C19.9841 6.5575 19.4768 7.57215 18.6581 8.31008L12.7201 13.441ZM9.5263 2.70645C8.82296 2.70645 8.15421 3.00624 7.69301 3.53662C6.80519 4.5628 6.90896 6.11936 7.92361 7.01871L12.7201 11.2387L17.5166 7.01871C18.0009 6.59209 18.3007 5.99253 18.3468 5.32378C18.3929 4.66657 18.1739 4.03241 17.7473 3.53662C17.286 3.00624 16.6173 2.69492 15.914 2.69492C15.3259 2.69492 14.761 2.914 14.3113 3.30602L13.2851 4.20537C12.9623 4.49362 12.478 4.49362 12.1552 4.20537L11.129 3.30602C10.6908 2.914 10.1143 2.70645 9.5263 2.70645Z" fill="#4A3F37" stroke="#4A3F37" stroke-miterlimit="10"/>
<path d="M55.5199 31.3703L61.0774 36.2014L66.635 31.3703C67.3613 30.7246 67.7995 29.8368 67.8687 28.8568C67.9379 27.8767 67.615 26.9312 66.9809 26.1933C66.2891 25.3977 65.2859 24.9365 64.2367 24.9365C63.3489 24.9365 62.4957 25.2594 61.8384 25.8474L61.089 26.5046L60.3395 25.8474C59.6708 25.2594 58.8176 24.9365 57.9413 24.9365C56.892 24.9365 55.8889 25.3977 55.1971 26.1933C53.8596 27.7153 54.0095 30.0328 55.5199 31.3703ZM55.7851 26.7122C56.3271 26.0895 57.1111 25.7321 57.9297 25.7321C58.6215 25.7321 59.2788 25.9858 59.8091 26.447L60.8238 27.3348C60.9737 27.4731 61.2043 27.4731 61.3542 27.3348L62.3688 26.447C62.8877 25.9858 63.5564 25.7321 64.2367 25.7321C65.0553 25.7321 65.8394 26.0895 66.3813 26.7122C66.8771 27.2887 67.1307 28.0266 67.0731 28.7991C67.027 29.5716 66.6811 30.2634 66.1046 30.7707L61.0774 35.1983L56.0503 30.7707C54.8627 29.7215 54.7474 27.8998 55.7851 26.7122Z" fill="#4A3F37" stroke="#4A3F37" stroke-miterlimit="10"/>
<path d="M61.0772 36.5242L55.3583 31.5547C53.744 30.1365 53.5826 27.6576 54.9893 26.0318C55.7272 25.1786 56.7995 24.6943 57.9295 24.6943C58.8749 24.6943 59.7858 25.0402 60.5007 25.6629L61.0887 26.1817L61.6767 25.6629C62.3916 25.0402 63.3025 24.6943 64.248 24.6943C65.3779 24.6943 66.4387 25.1786 67.1881 26.0318C67.8684 26.8159 68.2143 27.8305 68.1451 28.8682C68.076 29.9175 67.6032 30.8629 66.8307 31.5547L61.0772 36.5242ZM55.6811 31.1742L61.0657 35.867L66.4502 31.1742C67.1305 30.5747 67.534 29.7445 67.6032 28.8336C67.6609 27.9228 67.3726 27.0349 66.7731 26.3547C66.1274 25.6167 65.1934 25.1901 64.2134 25.1901C63.3947 25.1901 62.5992 25.4899 61.9765 26.0318L61.0657 26.8389L60.1548 26.0318C59.5322 25.4899 58.7366 25.1901 57.9179 25.1901C56.9379 25.1901 56.0039 25.6167 55.3583 26.3547C54.1361 27.7729 54.2744 29.9405 55.6811 31.1742ZM61.0772 35.5211L55.8886 30.9552C54.5973 29.8252 54.4704 27.8421 55.6004 26.5507C56.1884 25.8704 57.0417 25.4899 57.9295 25.4899C58.6789 25.4899 59.4053 25.7666 59.9703 26.2624L60.9849 27.1502C61.0426 27.1964 61.1233 27.1964 61.181 27.1502L62.1956 26.2624C62.7606 25.7666 63.487 25.4899 64.2364 25.4899C65.1358 25.4899 65.9775 25.8819 66.5655 26.5507C67.1074 27.1733 67.3726 27.9804 67.3265 28.8106C67.2688 29.6407 66.8999 30.4017 66.2773 30.9552L61.0772 35.5211ZM57.9295 25.9857C57.18 25.9857 56.4651 26.3086 55.9694 26.8851C55.0239 27.9689 55.1277 29.6407 56.2115 30.5862L61.0772 34.8639L65.9429 30.5862C66.4617 30.125 66.7731 29.4909 66.8192 28.7875C66.8653 28.0842 66.6347 27.4154 66.185 26.8851C65.6892 26.3201 64.9744 25.9857 64.2249 25.9857C63.5907 25.9857 62.9912 26.2163 62.5184 26.6314L61.5038 27.5192C61.2617 27.7383 60.8927 27.7383 60.6506 27.5192L59.6359 26.6314C59.1632 26.2163 58.5521 25.9857 57.9295 25.9857Z" fill="#4A3F37" stroke="#4A3F37" stroke-miterlimit="10"/>
<path d="M61.0773 36.4551L55.393 31.5087C53.8018 30.102 53.6404 27.6576 55.0355 26.055C55.7619 25.2133 56.8227 24.729 57.9296 24.729C58.8635 24.729 59.7629 25.0749 60.4662 25.686L61.0773 26.2279L61.6884 25.686C62.3917 25.0634 63.2911 24.729 64.225 24.729C65.3319 24.729 66.3927 25.2133 67.1191 26.055C67.7878 26.8275 68.1222 27.8306 68.053 28.8568C67.9838 29.883 67.5226 30.8284 66.7501 31.5087L61.0773 36.4551ZM55.6466 31.2204L61.0658 35.9363L66.4849 31.2204C67.1767 30.6093 67.5918 29.7677 67.6494 28.8452C67.7071 27.9228 67.4073 27.0235 66.8077 26.3317C66.1505 25.5822 65.2051 25.1441 64.2135 25.1441C63.3833 25.1441 62.5762 25.4439 61.942 26.0088L61.0658 26.7814L60.1895 26.0088C59.5553 25.4554 58.7597 25.1441 57.918 25.1441C56.9265 25.1441 55.981 25.5707 55.3238 26.3317C54.0785 27.7614 54.2169 29.9521 55.6466 31.2204ZM61.0773 35.452L55.9233 30.9091C54.655 29.7907 54.5282 27.8537 55.6351 26.5738C56.2116 25.9051 57.0533 25.5246 57.9296 25.5246C58.6675 25.5246 59.3824 25.7898 59.9358 26.2856L60.9505 27.1734C61.0312 27.2426 61.1349 27.2426 61.2157 27.1734L62.2303 26.2856C62.7837 25.8013 63.4986 25.5246 64.2365 25.5246C65.1128 25.5246 65.9545 25.9051 66.531 26.5738C67.0614 27.1849 67.3266 27.9805 67.2805 28.7991C67.2228 29.6178 66.8654 30.3672 66.2428 30.9091L61.0773 35.452ZM57.9296 25.9281C57.1686 25.9281 56.4422 26.2625 55.9349 26.839C54.9663 27.9459 55.0816 29.6408 56.1885 30.6094L61.0773 34.9216L65.9661 30.6094C66.4964 30.1366 66.8193 29.4909 66.8654 28.7761C66.9115 28.0612 66.6809 27.3694 66.2197 26.839C65.7124 26.2625 64.986 25.9281 64.225 25.9281C63.5793 25.9281 62.9682 26.1587 62.484 26.5853L61.4693 27.4732C61.2387 27.6692 60.9043 27.6692 60.6737 27.4732L59.6591 26.5853C59.1864 26.1703 58.5637 25.9281 57.9296 25.9281Z" fill="#4A3F37" stroke="#4A3F37" stroke-miterlimit="10"/>
<path d="M61.0772 36.7894L55.2315 31.7047C53.5366 30.2057 53.3636 27.6115 54.851 25.8935C55.6235 24.9941 56.7535 24.4868 57.9411 24.4868C58.9327 24.4868 59.8896 24.8442 60.6391 25.513L61.0888 25.905L61.5385 25.5015C62.2879 24.8442 63.2449 24.4868 64.2365 24.4868C65.4241 24.4868 66.5425 25.0057 67.3266 25.8935C68.0414 26.7237 68.3989 27.7729 68.3297 28.8798C68.2605 29.9751 67.7647 30.9783 66.9461 31.7047L61.0772 36.7894ZM57.9295 26.1817C57.2377 26.1817 56.5805 26.4815 56.1193 27.0119C55.243 28.015 55.3468 29.5601 56.3499 30.4363L61.0772 34.5987L65.8046 30.4363C66.2888 30.0097 66.5771 29.4217 66.6232 28.776C66.6693 28.1303 66.4618 27.5077 66.0352 27.0119C65.574 26.4815 64.9168 26.1817 64.225 26.1817C63.6485 26.1817 63.0835 26.3893 62.6453 26.7813L61.6307 27.6691C61.3079 27.9458 60.8351 27.9458 60.5123 27.6691L59.4976 26.7813C59.0595 26.3893 58.506 26.1817 57.9295 26.1817Z" fill="#4A3F37" stroke="#4A3F37" stroke-miterlimit="10"/>
<path d="M27.7322 19.4711C27.6861 19.4711 27.6284 19.4711 27.5823 19.4596C27.1557 19.3789 26.8674 18.9638 26.9481 18.5256C26.9597 18.4449 27.1096 17.7185 27.5823 17.0152C28.2626 15.989 29.3118 15.5048 30.5109 15.6547C32.7824 15.9198 33.4857 17.7185 33.5433 18.6294L31.9522 18.7332C31.9291 18.5256 31.7677 17.4072 30.3149 17.2343C29.7038 17.1651 29.2541 17.3726 28.8967 17.903C28.6085 18.3412 28.5047 18.8139 28.5047 18.8254C28.4355 19.2059 28.1011 19.4711 27.7322 19.4711Z" fill="#4A3F37" stroke="#4A3F37" stroke-miterlimit="10"/>
<path d="M38.9626 19.4711C38.9165 19.4711 38.8589 19.4711 38.8128 19.4596C38.3861 19.3789 38.0979 18.9638 38.1786 18.5256C38.1901 18.4449 38.34 17.7185 38.8128 17.0152C39.493 15.989 40.5423 15.5048 41.7414 15.6547C44.0128 15.9198 44.7162 17.7185 44.7738 18.6294L43.1827 18.7332C43.1596 18.5256 42.9982 17.4072 41.5454 17.2343C40.9343 17.1651 40.4846 17.3726 40.1272 17.903C39.8389 18.3412 39.7352 18.8139 39.7352 18.8254C39.666 19.2059 39.3316 19.4711 38.9626 19.4711Z" fill="#4A3F37" stroke="#4A3F37" stroke-miterlimit="10"/>
<path d="M35.4228 40.8941C33.382 40.8941 31.6063 40.5598 30.142 39.9141C28.9198 39.3722 28.3548 38.7957 28.2972 38.7265L28.0781 38.4959V33.4688H29.6693V37.8156C30.2688 38.2653 32.1367 39.3837 35.8379 39.303C39.4699 39.2223 40.4614 38.2653 40.6805 37.9885V33.7339H42.2717V38.3114L42.2371 38.4267C42.1218 38.8187 41.2686 40.7788 35.884 40.9057C35.7226 40.8941 35.5727 40.8941 35.4228 40.8941Z" fill="#4A3F37" stroke="#4A3F37" stroke-miterlimit="10"/>
<path d="M22.2553 68.8199H6.58594C4.07238 68.8199 2.37746 67.9783 1.54729 66.3179C0.313573 63.862 1.1668 59.6881 4.09544 53.9115C6.32075 49.507 9.24939 45.2063 10.633 43.35C12.0973 41.3899 15.614 39.6603 21.0908 38.2076C25.0802 37.1583 28.6084 36.651 28.7583 36.6279L28.9774 38.196C25.0802 38.7495 14.4149 40.9171 11.9013 44.2954C10.5523 46.1057 7.69283 50.3141 5.51364 54.6264C2.16992 61.2331 2.28522 64.2425 2.96549 65.6031C3.51894 66.6984 4.69501 67.2288 6.58594 67.2288H20.6642V60.2416H10.2179V58.6504H22.2553V68.8199Z" fill="#4A3F37" stroke="#4A3F37" stroke-miterlimit="10"/>
<path d="M63.7635 68.8199H48.0941V58.6504H60.1315V60.2416H49.6853V67.2288H63.7635C65.6544 67.2288 66.8305 66.6984 67.384 65.6031C68.0642 64.2425 68.1795 61.2331 64.8358 54.6264C62.6566 50.3257 59.7972 46.1057 58.4481 44.2954C55.9346 40.9171 45.2692 38.7495 41.3721 38.196L41.5911 36.6279C41.741 36.651 45.2692 37.1583 49.2587 38.2076C54.7354 39.6488 58.2521 41.3899 59.7164 43.35C61.1001 45.2063 64.0287 49.507 66.254 53.9115C69.1827 59.6881 70.0359 63.862 68.8022 66.3179C67.972 67.9783 66.2771 68.8199 63.7635 68.8199Z" fill="#4A3F37" stroke="#4A3F37" stroke-miterlimit="10"/>
<path d="M49.6853 68.82H20.6641V58.662L28.0779 58.5237C30.2686 58.4775 32.3671 59.3769 33.9583 61.0603C34.7308 61.8674 35.3534 62.8359 35.7915 63.8852C36.2643 62.8129 36.9446 61.8097 37.7978 60.968C39.4351 59.3654 41.5335 58.5006 43.6897 58.5467L49.6853 58.6736V68.82ZM36.6448 67.2289H48.1057V60.2186L43.6666 60.1263C41.9371 60.0918 40.2537 60.7951 38.9277 62.098C37.5095 63.4701 36.6909 65.3379 36.6448 67.2289ZM22.2552 67.2289H34.9268L34.9153 67.0905C34.8345 65.2688 34.0736 63.4701 32.8168 62.1556C31.5254 60.8066 29.8535 60.0802 28.1125 60.1148L22.2552 60.2301V67.2289Z" fill="#4A3F37" stroke="#4A3F37" stroke-miterlimit="10"/>
<path d="M35.4339 29.3753C33.0587 29.3753 31.7904 28.1301 31.1332 27.0924C30.4529 25.997 30.3146 24.9017 30.3146 24.8555C30.2685 24.4174 30.5798 24.0254 31.0179 23.9793C31.4561 23.9331 31.8481 24.2445 31.8942 24.6711C31.8942 24.6941 32.0095 25.5128 32.5053 26.2968C33.1395 27.2884 34.1195 27.7957 35.4224 27.7957C36.7023 27.7957 37.6708 27.2769 38.3165 26.2507C38.8123 25.4666 38.9276 24.6595 38.9276 24.6595C38.9852 24.2214 39.3888 23.9216 39.8154 23.9793C40.2535 24.0369 40.5533 24.4405 40.4957 24.8671C40.3112 26.4236 38.9737 29.3753 35.4339 29.3753Z" fill="#4A3F37" stroke="#4A3F37" stroke-miterlimit="10"/>
</svg>
