<svg width="69" height="74" viewBox="0 0 69 74" fill="none" xmlns="http://www.w3.org/2000/svg">
<path d="M31.52 8.41002H31.7895L31.7693 8.14132C31.7094 7.34297 31.6598 6.5577 31.6399 5.76377L31.6338 5.52002H31.39H8.46002C6.84195 5.52002 5.52002 6.84195 5.52002 8.46002V60.41C5.52002 62.0281 6.84195 63.35 8.46002 63.35H34.14C35.7581 63.35 37.08 62.0281 37.08 60.41V51.26V51.01H36.83H34.44H34.19V51.26V60.42C34.19 60.4319 34.1851 60.445 34.175 60.4553C34.1657 60.4648 34.1541 60.47 34.14 60.47H8.46002C8.44813 60.47 8.43508 60.4651 8.42475 60.455C8.41524 60.4457 8.41002 60.4341 8.41002 60.42V8.46002C8.41002 8.44812 8.41497 8.43508 8.42507 8.42475C8.43436 8.41524 8.44593 8.41002 8.46002 8.41002H31.52Z" fill="#4A3F37" stroke="#4A3F37" stroke-width="0.5"/>
<path d="M30.5701 5.52979H30.3105L30.3202 5.78915C30.3499 6.57869 30.418 7.35774 30.4864 8.13875C30.4879 8.15636 30.4895 8.17397 30.491 8.19158L30.511 8.41979H30.7401H34.1401C34.152 8.41979 34.165 8.42474 34.1753 8.43483C34.1848 8.44413 34.1901 8.45569 34.1901 8.46978V20.9798V21.2298H34.4401H36.8301H37.0801V20.9798V8.45978C37.0801 6.8405 35.7569 5.52979 34.1401 5.52979H30.5701Z" fill="#4A3F37" stroke="#4A3F37" stroke-width="0.5"/>
<path d="M13.7 3.64H13.95V3.39V1V0.75H13.7H5.18C2.74193 0.75 0.75 2.74193 0.75 5.18V68.48C0.75 70.9181 2.74193 72.91 5.18 72.91H37.43C39.8681 72.91 41.86 70.9181 41.86 68.48V51.26V51.01H41.61H39.22H38.97V51.26V68.48C38.97 69.3319 38.2819 70.02 37.43 70.02H5.18C4.32807 70.02 3.64 69.3319 3.64 68.48V5.18C3.64 4.32807 4.32807 3.64 5.18 3.64H13.7Z" fill="#4A3F37" stroke="#4A3F37" stroke-width="0.5"/>
<path d="M38.9699 20.97V21.22H39.2199H41.6099H41.8599V20.97V5.18C41.8599 2.74193 39.868 0.75 37.4299 0.75H12.9399H12.6899V1V3.39V3.64H12.9399H37.4199C38.2737 3.64 38.9699 4.32988 38.9699 5.18V20.97Z" fill="#4A3F37" stroke="#4A3F37" stroke-width="0.5"/>
<path d="M35.5755 29.5879L35.5754 29.588C34.9627 30.1914 34.63 30.9875 34.63 31.8299C34.63 32.6718 34.9623 33.4674 35.5744 34.0707C35.5747 34.0711 35.5751 34.0714 35.5754 34.0717L43.99 42.163L52.4146 34.0617C52.415 34.0613 52.4153 34.061 52.4157 34.0606C53.0187 33.4663 53.36 32.6704 53.36 31.8299C53.36 30.9875 53.0273 30.1914 52.4146 29.588L52.4145 29.5879C51.1425 28.3345 49.059 28.3333 47.7757 29.5877C47.7754 29.588 47.7751 29.5883 47.7748 29.5886M35.5755 29.5879L47.6 29.4099L47.7748 29.5886M35.5755 29.5879C36.2153 28.9574 37.0507 28.6499 37.9 28.6499C38.738 28.6499 39.5846 28.9666 40.2258 29.5892M35.5755 29.5879L40.2258 29.5892M47.7748 29.5886L47.7747 29.5887L47.7746 29.5888L47.7745 29.5889L47.7743 29.5891L47.7742 29.5892L47.7741 29.5893L47.774 29.5894L47.7739 29.5895L47.7738 29.5896L47.7737 29.5897L47.7736 29.5898L47.7734 29.5899L47.7733 29.5901L47.7732 29.5902L47.7731 29.5903L47.773 29.5904L47.7729 29.5905L47.7728 29.5906L47.7727 29.5907L47.7726 29.5908L47.7725 29.5909L47.7724 29.591L47.7722 29.5912L47.7721 29.5913L47.772 29.5914L47.7719 29.5915L47.7718 29.5916L47.7717 29.5917L47.7716 29.5918L47.7715 29.5919L47.7714 29.592L47.7713 29.5921L47.7712 29.5922L47.7711 29.5923L47.771 29.5924L47.7708 29.5926L47.7707 29.5927L47.7706 29.5928L47.7705 29.5929L47.7704 29.593L47.7703 29.5931L47.7702 29.5932L47.7701 29.5933L47.77 29.5934L47.7699 29.5935L47.7698 29.5936L47.7697 29.5937L47.7696 29.5938L47.7695 29.5939L47.7694 29.594L47.7693 29.5941L47.7692 29.5942L47.7691 29.5943L47.769 29.5944L47.7689 29.5945L47.7688 29.5946L47.7687 29.5947L47.7685 29.5948L47.7684 29.5949L47.7683 29.5951L47.7682 29.5952L47.7681 29.5953L47.768 29.5954L47.7679 29.5955L47.7678 29.5956L47.7677 29.5957L47.7676 29.5958L47.7675 29.5959L47.7674 29.596L47.7673 29.5961L47.7672 29.5962L47.7671 29.5963L47.767 29.5964L47.7669 29.5965L47.7668 29.5966L47.7667 29.5967L47.7666 29.5968L47.7665 29.5969L47.7664 29.597L47.7663 29.5971L47.7662 29.5972L47.7661 29.5973L47.766 29.5974L47.7659 29.5975L47.7658 29.5976L47.7657 29.5977L47.7656 29.5978L47.7655 29.5979L47.7654 29.598L47.7653 29.5981L47.7652 29.5981L47.7651 29.5982L47.7651 29.5983L47.765 29.5984L47.7649 29.5985L47.7648 29.5986L47.7647 29.5987L47.7646 29.5988L47.7645 29.5989L47.7644 29.599L47.7643 29.5991L47.7642 29.5992L47.7641 29.5993L47.764 29.5994L47.7639 29.5995L47.7638 29.5996L47.7637 29.5997L47.7636 29.5998L47.7635 29.5999L47.7634 29.6L47.7633 29.6001L47.7632 29.6002L47.7631 29.6003L47.763 29.6004L47.7629 29.6005L47.7628 29.6006L47.7627 29.6006L47.7627 29.6007L47.7626 29.6008L47.7625 29.6009L47.7624 29.601L47.7623 29.6011L47.7622 29.6012L47.7621 29.6013L47.762 29.6014L47.7619 29.6015L47.7618 29.6016L47.7617 29.6017L47.7616 29.6018L47.7615 29.6019L47.7614 29.602L47.7613 29.6021L47.7612 29.6021L47.7612 29.6022L47.7611 29.6023L47.761 29.6024L47.7609 29.6025L47.7608 29.6026L47.7607 29.6027L47.7606 29.6028L47.7605 29.6029L47.7604 29.603L47.7603 29.6031L47.7602 29.6032L47.7601 29.6033L47.7601 29.6033L47.76 29.6034L47.7599 29.6035L47.7598 29.6036L47.7597 29.6037L47.7596 29.6038L47.7595 29.6039L47.7594 29.604L47.7593 29.6041L47.7592 29.6042L47.7591 29.6043L47.759 29.6044L47.759 29.6044L47.7589 29.6045L47.7588 29.6046L47.7587 29.6047L47.7586 29.6048L47.7585 29.6049L47.7584 29.605L47.7583 29.6051L47.7582 29.6052L47.7581 29.6053L47.758 29.6053L47.758 29.6054L47.7579 29.6055L47.7578 29.6056L47.7577 29.6057L47.7576 29.6058L47.7575 29.6059L47.7574 29.606L47.7573 29.6061L47.7572 29.6062L47.7572 29.6062L47.7571 29.6063L47.757 29.6064L47.7569 29.6065L47.7568 29.6066L47.7567 29.6067L47.7566 29.6068L47.7565 29.6069L47.7564 29.607L47.7563 29.607L47.7563 29.6071L47.7562 29.6072L47.7561 29.6073L47.756 29.6074L47.7559 29.6075L47.7558 29.6076L47.7557 29.6077L47.7556 29.6078L47.7555 29.6078L47.7555 29.6079L47.7554 29.608L47.7553 29.6081L47.7552 29.6082L47.7551 29.6083L47.755 29.6084L47.7549 29.6085L47.7548 29.6086L47.7547 29.6086L47.7547 29.6087L47.7546 29.6088L47.7545 29.6089L47.7544 29.609L47.7543 29.6091L47.7542 29.6092L47.7541 29.6093L47.754 29.6094L47.754 29.6094L47.7539 29.6095L47.7538 29.6096L47.7537 29.6097L47.7536 29.6098L47.7535 29.6099L47.7534 29.61L47.7533 29.6101L47.7533 29.6101L47.7532 29.6102L47.7531 29.6103L47.753 29.6104L47.7529 29.6105L47.7528 29.6106L47.7527 29.6107L47.7526 29.6108L47.7525 29.6108L47.7525 29.6109L47.7524 29.611L47.7523 29.6111L47.7522 29.6112L47.7521 29.6113L47.752 29.6114L47.7519 29.6115L47.7518 29.6116L47.7518 29.6116L47.7517 29.6117L47.7516 29.6118L47.7515 29.6119L47.7514 29.612L47.7513 29.6121L47.7512 29.6122L47.7511 29.6123L47.7511 29.6123L47.751 29.6124L47.7509 29.6125L47.7508 29.6126L47.7507 29.6127L47.7506 29.6128L47.7505 29.6129L47.7504 29.613L47.7504 29.613L47.7503 29.6131L47.7502 29.6132L47.7501 29.6133L47.75 29.6134L47.7499 29.6135L47.7498 29.6136L47.7497 29.6137L47.7496 29.6138L47.7496 29.6138L47.7495 29.6139L47.7494 29.614L47.7493 29.6141L47.7492 29.6142L47.7491 29.6143L47.749 29.6144L47.7489 29.6145L47.7489 29.6145L47.7488 29.6146L47.7487 29.6147L47.7486 29.6148L47.7485 29.6149L47.7484 29.615L47.7483 29.6151L47.7482 29.6152L47.7481 29.6153L47.7481 29.6153L47.748 29.6154L47.7479 29.6155L47.7478 29.6156L47.7477 29.6157L47.7476 29.6158L47.7475 29.6159L47.7474 29.616L47.7473 29.6161L47.7473 29.6161L47.7472 29.6162L47.7471 29.6163L47.747 29.6164L47.7469 29.6165L47.7468 29.6166L47.7467 29.6167L47.7466 29.6168L47.7465 29.6169L47.7465 29.6169L47.7464 29.617L47.7463 29.6171L47.7462 29.6172L47.7461 29.6173L47.746 29.6174L47.7459 29.6175L47.7458 29.6176L47.7457 29.6177L47.7456 29.6178L47.7456 29.6178L47.7455 29.6179L47.7454 29.618L47.7453 29.6181L47.7452 29.6182L47.7451 29.6183L47.745 29.6184L47.7449 29.6185L47.7448 29.6186L47.7447 29.6187L47.7446 29.6187L47.7446 29.6188L47.7445 29.6189L47.7444 29.619L47.7443 29.6191L47.7442 29.6192L47.7441 29.6193L47.744 29.6194L47.7439 29.6195L47.7438 29.6196L47.7437 29.6197L47.7436 29.6197L47.7436 29.6198L47.7435 29.6199L47.7434 29.62L47.7433 29.6201L47.7432 29.6202L47.7431 29.6203L47.743 29.6204L47.7429 29.6205L47.7428 29.6206L47.7427 29.6207L47.7426 29.6208L47.7425 29.6209L47.7424 29.6209L47.7424 29.621L47.7423 29.6211L47.7422 29.6212L47.7421 29.6213L47.742 29.6214L47.7419 29.6215L47.7418 29.6216L47.7417 29.6217L47.7416 29.6218L47.7415 29.6219L47.7414 29.622L47.7413 29.6221L47.7412 29.6222L47.7411 29.6223L47.741 29.6223L47.741 29.6224L47.7409 29.6225L47.7408 29.6226L47.7407 29.6227L47.7406 29.6228L47.7405 29.6229L47.7404 29.623L47.7403 29.6231L47.7402 29.6232L47.7401 29.6233L47.74 29.6234L47.7399 29.6235L47.7398 29.6236L47.7397 29.6237L47.7396 29.6238L47.7395 29.6239L47.7394 29.624L47.7393 29.6241L47.7392 29.6242L47.7391 29.6243L47.739 29.6244L47.7389 29.6244L47.7388 29.6245L47.7388 29.6246L47.7387 29.6247L47.7386 29.6248L47.7385 29.6249L47.7384 29.625L47.7383 29.6251L47.7382 29.6252L47.7381 29.6253L47.738 29.6254L47.7379 29.6255L47.7378 29.6256L47.7377 29.6257L47.7376 29.6258L47.7375 29.6259L47.7374 29.626L47.7373 29.6261L47.7372 29.6262L47.7371 29.6263L47.737 29.6264L47.7369 29.6265L47.7368 29.6266L47.7367 29.6267L47.7366 29.6268L47.7365 29.6269L47.7364 29.627L47.7363 29.6271L47.7362 29.6272L47.7361 29.6273L47.736 29.6274L47.7359 29.6275L47.7358 29.6276L47.7357 29.6277L47.7356 29.6278L47.7355 29.6279L47.7354 29.628L47.7353 29.6281L47.7352 29.6282L47.7351 29.6283L47.735 29.6284L47.7349 29.6285L47.7348 29.6286L47.7347 29.6287L47.7346 29.6288L47.7345 29.6289L47.7343 29.629L47.7342 29.6292L47.7341 29.6293L47.734 29.6294L47.7339 29.6295L47.7338 29.6296L47.7337 29.6297L47.7336 29.6298L47.7335 29.6299L47.7334 29.63L47.7333 29.6301L47.7332 29.6302L47.7331 29.6303L47.733 29.6304L47.7329 29.6305L47.7328 29.6306L47.7327 29.6307L47.7326 29.6308L47.7325 29.6309L47.7323 29.631L47.7322 29.6312L47.7321 29.6313L47.732 29.6314L47.7319 29.6315L47.7318 29.6316L47.7317 29.6317L47.7316 29.6318L47.7315 29.6319L47.7314 29.632L47.7313 29.6321L47.7312 29.6322L47.7311 29.6323L47.7309 29.6325L47.7308 29.6326L47.7307 29.6327L47.7306 29.6328L47.7305 29.6329L47.7304 29.633L47.7303 29.6331L47.7302 29.6332L47.7301 29.6333L47.7299 29.6334L47.7298 29.6336L47.7297 29.6337L47.7296 29.6338L47.7295 29.6339L47.7294 29.634L47.7293 29.6341L47.7292 29.6342L47.7291 29.6343L47.7289 29.6345L47.7288 29.6346L47.7287 29.6347L47.7286 29.6348L47.7285 29.6349L47.7284 29.635L47.7283 29.6351L47.7281 29.6352L47.728 29.6354L47.7279 29.6355L47.7278 29.6356L47.7277 29.6357L47.7276 29.6358L47.7275 29.6359L47.7273 29.6361L47.7272 29.6362L47.7271 29.6363L47.727 29.6364L47.7269 29.6365L47.7268 29.6366L47.7208 29.6426L47.7145 29.6481L44.9445 32.0681L44.9437 32.0688C44.3997 32.5402 43.5902 32.5402 43.0462 32.0688L43.0452 32.0678L40.2852 29.6478L40.279 29.6424L40.2732 29.6366L40.2731 29.6365L40.273 29.6364L40.2729 29.6363L40.2727 29.6362L40.2726 29.6361L40.2725 29.6359L40.2724 29.6358L40.2723 29.6357L40.2722 29.6356L40.272 29.6355L40.2719 29.6354L40.2718 29.6352L40.2717 29.6351L40.2716 29.635L40.2715 29.6349L40.2714 29.6348L40.2712 29.6347L40.2711 29.6346L40.271 29.6345L40.2709 29.6343L40.2708 29.6342L40.2707 29.6341L40.2706 29.634L40.2705 29.6339L40.2703 29.6338L40.2702 29.6337L40.2701 29.6336L40.27 29.6334L40.2699 29.6333L40.2698 29.6332L40.2697 29.6331L40.2696 29.633L40.2695 29.6329L40.2693 29.6328L40.2692 29.6327L40.2691 29.6326L40.269 29.6325L40.2689 29.6323L40.2688 29.6322L40.2687 29.6321L40.2686 29.632L40.2685 29.6319L40.2684 29.6318L40.2683 29.6317L40.2681 29.6316L40.268 29.6315L40.2679 29.6314L40.2678 29.6313L40.2677 29.6312L40.2676 29.631L40.2675 29.6309L40.2674 29.6308L40.2673 29.6307L40.2672 29.6306L40.2671 29.6305L40.267 29.6304L40.2669 29.6303L40.2668 29.6302L40.2667 29.6301L40.2666 29.63L40.2664 29.6299L40.2663 29.6298L40.2662 29.6297L40.2661 29.6296L40.266 29.6295L40.2659 29.6294L40.2658 29.6293L40.2657 29.6292L40.2656 29.629L40.2655 29.6289L40.2654 29.6288L40.2653 29.6287L40.2652 29.6286L40.2651 29.6285L40.265 29.6284L40.2649 29.6283L40.2648 29.6282L40.2647 29.6281L40.2646 29.628L40.2645 29.6279L40.2644 29.6278L40.2643 29.6277L40.2642 29.6276L40.2641 29.6275L40.264 29.6274L40.2639 29.6273L40.2638 29.6272L40.2637 29.6271L40.2636 29.627L40.2635 29.6269L40.2634 29.6268L40.2633 29.6267L40.2632 29.6266L40.2631 29.6265L40.263 29.6264L40.2629 29.6263L40.2628 29.6262L40.2627 29.6261L40.2626 29.626L40.2625 29.6259L40.2624 29.6258L40.2623 29.6257L40.2622 29.6256L40.2621 29.6255L40.262 29.6254L40.2619 29.6253L40.2618 29.6252L40.2617 29.6251L40.2616 29.625L40.2615 29.6249L40.2614 29.6248L40.2613 29.6247L40.2612 29.6246L40.2611 29.6245L40.261 29.6244L40.2609 29.6244L40.2608 29.6243L40.2607 29.6242L40.2606 29.6241L40.2605 29.624L40.2604 29.6239L40.2603 29.6238L40.2602 29.6237L40.2601 29.6236L40.2601 29.6235L40.26 29.6234L40.2599 29.6233L40.2598 29.6232L40.2597 29.6231L40.2596 29.623L40.2595 29.6229L40.2594 29.6228L40.2593 29.6227L40.2592 29.6226L40.2591 29.6225L40.259 29.6224L40.2589 29.6223L40.2588 29.6223L40.2587 29.6222L40.2586 29.6221L40.2585 29.622L40.2584 29.6219L40.2584 29.6218L40.2583 29.6217L40.2582 29.6216L40.2581 29.6215L40.258 29.6214L40.2579 29.6213L40.2578 29.6212L40.2577 29.6211L40.2576 29.621L40.2575 29.6209L40.2574 29.6209L40.2573 29.6208L40.2572 29.6207L40.2571 29.6206L40.257 29.6205L40.257 29.6204L40.2569 29.6203L40.2568 29.6202L40.2567 29.6201L40.2566 29.62L40.2565 29.6199L40.2564 29.6198L40.2563 29.6197L40.2562 29.6197L40.2561 29.6196L40.256 29.6195L40.2559 29.6194L40.2559 29.6193L40.2558 29.6192L40.2557 29.6191L40.2556 29.619L40.2555 29.6189L40.2554 29.6188L40.2553 29.6187L40.2552 29.6187L40.2551 29.6186L40.255 29.6185L40.2549 29.6184L40.2549 29.6183L40.2548 29.6182L40.2547 29.6181L40.2546 29.618L40.2545 29.6179L40.2544 29.6178L40.2543 29.6178L40.2542 29.6177L40.2541 29.6176L40.254 29.6175L40.254 29.6174L40.2539 29.6173L40.2538 29.6172L40.2537 29.6171L40.2536 29.617L40.2535 29.6169L40.2534 29.6169L40.2533 29.6168L40.2532 29.6167L40.2532 29.6166L40.2531 29.6165L40.253 29.6164L40.2529 29.6163L40.2528 29.6162L40.2527 29.6161L40.2526 29.6161L40.2525 29.616L40.2524 29.6159L40.2523 29.6158L40.2523 29.6157L40.2522 29.6156L40.2521 29.6155L40.252 29.6154L40.2519 29.6153L40.2518 29.6153L40.2517 29.6152L40.2516 29.6151L40.2516 29.615L40.2515 29.6149L40.2514 29.6148L40.2513 29.6147L40.2512 29.6146L40.2511 29.6145L40.251 29.6145L40.2509 29.6144L40.2508 29.6143L40.2508 29.6142L40.2507 29.6141L40.2506 29.614L40.2505 29.6139L40.2504 29.6138L40.2503 29.6138L40.2502 29.6137L40.2501 29.6136L40.25 29.6135L40.25 29.6134L40.2499 29.6133L40.2498 29.6132L40.2497 29.6131L40.2496 29.613L40.2495 29.613L40.2494 29.6129L40.2493 29.6128L40.2493 29.6127L40.2492 29.6126L40.2491 29.6125L40.249 29.6124L40.2489 29.6123L40.2488 29.6123L40.2487 29.6122L40.2486 29.6121L40.2486 29.612L40.2485 29.6119L40.2484 29.6118L40.2483 29.6117L40.2482 29.6116L40.2481 29.6116L40.248 29.6115L40.2479 29.6114L40.2479 29.6113L40.2478 29.6112L40.2477 29.6111L40.2476 29.611L40.2475 29.6109L40.2474 29.6108L40.2473 29.6108L40.2472 29.6107L40.2471 29.6106L40.2471 29.6105L40.247 29.6104L40.2469 29.6103L40.2468 29.6102L40.2467 29.6101L40.2466 29.6101L40.2465 29.61L40.2464 29.6099L40.2464 29.6098L40.2463 29.6097L40.2462 29.6096L40.2461 29.6095L40.246 29.6094L40.2459 29.6094L40.2458 29.6093L40.2457 29.6092L40.2457 29.6091L40.2456 29.609L40.2455 29.6089L40.2454 29.6088L40.2453 29.6087L40.2452 29.6086L40.2451 29.6086L40.245 29.6085L40.2449 29.6084L40.2449 29.6083L40.2448 29.6082L40.2447 29.6081L40.2446 29.608L40.2445 29.6079L40.2444 29.6078L40.2443 29.6078L40.2442 29.6077L40.2441 29.6076L40.2441 29.6075L40.244 29.6074L40.2439 29.6073L40.2438 29.6072L40.2437 29.6071L40.2436 29.607L40.2435 29.607L40.2434 29.6069L40.2433 29.6068L40.2433 29.6067L40.2432 29.6066L40.2431 29.6065L40.243 29.6064L40.2429 29.6063L40.2428 29.6062L40.2427 29.6062L40.2426 29.6061L40.2425 29.606L40.2425 29.6059L40.2424 29.6058L40.2423 29.6057L40.2422 29.6056L40.2421 29.6055L40.242 29.6054L40.2419 29.6053L40.2418 29.6053L40.2417 29.6052L40.2416 29.6051L40.2415 29.605L40.2415 29.6049L40.2414 29.6048L40.2413 29.6047L40.2412 29.6046L40.2411 29.6045L40.241 29.6044L40.2409 29.6044L40.2408 29.6043L40.2407 29.6042L40.2406 29.6041L40.2406 29.604L40.2405 29.6039L40.2404 29.6038L40.2403 29.6037L40.2402 29.6036L40.2401 29.6035L40.24 29.6034L40.2399 29.6033L40.2398 29.6033L40.2397 29.6032L40.2396 29.6031L40.2395 29.603L40.2395 29.6029L40.2394 29.6028L40.2393 29.6027L40.2392 29.6026L40.2391 29.6025L40.239 29.6024L40.2389 29.6023L40.2388 29.6022L40.2387 29.6021L40.2386 29.6021L40.2385 29.602L40.2384 29.6019L40.2383 29.6018L40.2382 29.6017L40.2382 29.6016L40.2381 29.6015L40.238 29.6014L40.2379 29.6013L40.2378 29.6012L40.2377 29.6011L40.2376 29.601L40.2375 29.6009L40.2374 29.6008L40.2373 29.6007L40.2372 29.6006L40.2371 29.6006L40.237 29.6005L40.2369 29.6004L40.2368 29.6003L40.2367 29.6002L40.2366 29.6001L40.2365 29.6L40.2365 29.5999L40.2364 29.5998L40.2363 29.5997L40.2362 29.5996L40.2361 29.5995L40.236 29.5994L40.2359 29.5993L40.2358 29.5992L40.2357 29.5991L40.2356 29.599L40.2355 29.5989L40.2354 29.5988L40.2353 29.5987L40.2352 29.5986L40.2351 29.5985L40.235 29.5984L40.2349 29.5983L40.2348 29.5982L40.2347 29.5981L40.2346 29.5981L40.2345 29.598L40.2344 29.5979L40.2343 29.5978L40.2342 29.5977L40.2341 29.5976L40.234 29.5975L40.2339 29.5974L40.2338 29.5973L40.2337 29.5972L40.2336 29.5971L40.2335 29.597L40.2334 29.5969L40.2333 29.5968L40.2332 29.5967L40.2331 29.5966L40.233 29.5965L40.2329 29.5964L40.2328 29.5963L40.2327 29.5962L40.2326 29.5961L40.2325 29.596L40.2324 29.5959L40.2323 29.5958L40.2322 29.5957L40.2321 29.5956L40.232 29.5955L40.2319 29.5954L40.2318 29.5953L40.2317 29.5952L40.2316 29.5951L40.2315 29.5949L40.2314 29.5948L40.2313 29.5947L40.2312 29.5946L40.2311 29.5945L40.231 29.5944L40.2309 29.5943L40.2308 29.5942L40.2307 29.5941L40.2306 29.594L40.2305 29.5939L40.2304 29.5938L40.2303 29.5937L40.2302 29.5936L40.2301 29.5935L40.23 29.5934L40.2299 29.5933L40.2297 29.5932L40.2296 29.5931L40.2295 29.593L40.2294 29.5929L40.2293 29.5928L40.2292 29.5927L40.2291 29.5926L40.229 29.5924L40.2289 29.5923L40.2288 29.5922L40.2287 29.5921L40.2286 29.592L40.2285 29.5919L40.2284 29.5918L40.2283 29.5917L40.2282 29.5916L40.228 29.5915L40.2279 29.5914L40.2278 29.5913L40.2277 29.5912L40.2276 29.591L40.2275 29.5909L40.2274 29.5908L40.2273 29.5907L40.2272 29.5906L40.2271 29.5905L40.227 29.5904L40.2268 29.5903L40.2267 29.5902L40.2266 29.5901L40.2265 29.5899L40.2264 29.5898L40.2263 29.5897L40.2262 29.5896L40.2261 29.5895L40.226 29.5894L40.2258 29.5893L40.2258 29.5892M47.7748 29.5886L40.2258 29.5892M40.2258 29.5892L40.4 29.4099M40.2258 29.5892L40.4 29.4099M40.2258 29.5892L40.2257 29.5892L40.2256 29.5891L40.2255 29.5889L40.2254 29.5888L40.2253 29.5887L40.2252 29.5886L40.225 29.5885L40.2249 29.5884L40.2248 29.5883L40.2247 29.5881L40.2246 29.588L40.2245 29.5879L40.2244 29.5878L40.2242 29.5877L40.2241 29.5876L40.224 29.5875L40.2239 29.5873L40.2238 29.5872L40.2237 29.5871L40.2236 29.587L40.2234 29.5869L40.2233 29.5868L40.2232 29.5866L40.4 29.4099M40.2258 29.5892L35.4 29.4099C36.09 28.7299 36.99 28.3999 37.9 28.3999C38.8 28.3999 39.71 28.7399 40.4 29.4099M17.47 22.7999V35.0363L10.7232 41.7831C10.3984 42.1079 10.2393 42.5786 10.3235 43.042C10.3968 43.4993 10.6859 43.8973 11.0982 44.1035L11.0983 44.1035L17.47 47.2845V49.6799C17.47 51.2979 18.7919 52.6199 20.41 52.6199H65.2C66.818 52.6199 68.14 51.2979 68.14 49.6799V34.4399V34.1899H68.13V22.7999C68.13 21.1818 66.8081 19.8599 65.19 19.8599H20.41C18.7919 19.8599 17.47 21.1818 17.47 22.7999ZM33.5541 36.1575L33.5567 36.16L42.9867 45.23L42.9872 45.2305C43.2663 45.4975 43.6293 45.6299 43.99 45.6299C44.3506 45.6299 44.7136 45.4975 44.9928 45.2305L44.9932 45.2301L54.4332 36.1601L54.4351 36.1582C55.5517 35.0618 56.1943 33.6226 56.2466 32.0773L65.25 28.2864V34.1899V34.4399V35.4799V35.7299V49.6699C65.25 49.6818 65.245 49.6948 65.2349 49.7051C65.2256 49.7146 65.2141 49.7199 65.2 49.7199H20.41C20.3981 49.7199 20.385 49.7149 20.3747 49.7048C20.3652 49.6955 20.36 49.684 20.36 49.6699V46.3899C20.36 45.8453 20.0466 45.3387 19.5618 45.0963L14.192 42.4114L19.9368 36.6666C20.2029 36.4005 20.36 36.0271 20.36 35.6499V28.1925L31.7769 32.5386C31.9331 33.8994 32.5514 35.1649 33.5541 36.1575ZM33.5448 27.5215L33.5446 27.5217C32.9409 28.1159 32.4729 28.8139 32.1649 29.577L20.36 25.0776V22.7999C20.36 22.788 20.3649 22.7749 20.375 22.7646C20.3843 22.7551 20.3959 22.7499 20.41 22.7499H65.2C65.2119 22.7499 65.2249 22.7548 65.2352 22.7649C65.2448 22.7742 65.25 22.7858 65.25 22.7999V25.1237L55.6252 29.1661C55.3291 28.5627 54.9264 28.0044 54.4244 27.5208C52.0391 25.178 48.1683 25.1662 45.7707 27.4858L43.9804 29.0477L42.1995 27.486C39.8017 25.1659 35.9301 25.1779 33.5448 27.5215Z" fill="#4A3F37" stroke="#4A3F37" stroke-width="0.5"/>
<path d="M26.33 65.4902V65.2402H26.08H16.53H16.28V65.4902V67.8802V68.1302H16.53H26.08H26.33V67.8802V65.4902Z" fill="#4A3F37" stroke="#4A3F37" stroke-width="0.5"/>
</svg>
