<svg width="66" height="28" viewBox="0 0 66 28" fill="none" xmlns="http://www.w3.org/2000/svg">
<path d="M64.9983 10.484C59.2446 10.4638 56.3644 8.26441 53.5713 6.13928C50.939 4.12883 48.4473 2.23308 43.3702 2.21284C43.3434 2.21284 43.3233 2.21284 43.2965 2.21284C38.2729 2.21284 35.7812 4.08161 33.1422 6.05832C30.3491 8.14972 27.4689 10.3153 21.7688 10.3153C21.742 10.3153 21.7152 10.3153 21.6817 10.3153C15.9281 10.2951 13.0412 8.09575 10.2548 5.97736C7.62916 3.97366 5.13747 2.07791 0.0670166 2.05767L0.0737147 0C5.82737 0.0202394 8.70755 2.21958 11.5007 4.33797C14.1397 6.34841 16.6247 8.24417 21.7018 8.26441C21.7286 8.26441 21.7487 8.26441 21.7755 8.26441C26.7991 8.26441 29.2908 6.39564 31.9298 4.41893C34.7229 2.32753 37.6031 0.161915 43.3032 0.161915C43.33 0.161915 43.3568 0.161915 43.3903 0.161915C49.1439 0.182154 52.0308 2.3815 54.8172 4.50663C57.4562 6.51708 59.9412 8.41283 65.0184 8.43307L64.9983 10.484Z" fill="#F7F0E7"/>
<path d="M64.938 27.755C59.1843 27.7347 56.3041 25.5354 53.511 23.4103C50.8787 21.3998 48.387 19.5041 43.3098 19.4838C43.283 19.4838 43.263 19.4838 43.2362 19.4838C38.2126 19.4838 35.7209 21.3526 33.0819 23.3293C30.2888 25.4207 27.4086 27.5863 21.7085 27.5863C21.6817 27.5863 21.6549 27.5863 21.6214 27.5863C15.8678 27.5661 12.9809 25.3667 10.1945 23.2416C7.56214 21.2379 5.07045 19.3422 0 19.3287L0.00669809 17.271C5.76036 17.2912 8.64723 19.4906 11.4336 21.609C14.0727 23.6194 16.5577 25.5152 21.6348 25.5354C21.6616 25.5354 21.6817 25.5354 21.7085 25.5354C26.7321 25.5354 29.2238 23.6666 31.8628 21.6899C34.6559 19.5985 37.5361 17.4329 43.2362 17.4329C43.263 17.4329 43.2897 17.4329 43.3232 17.4329C49.0769 17.4532 51.9571 19.6525 54.7502 21.7709C57.3825 23.7813 59.8742 25.6771 64.9514 25.6973L64.938 27.755Z" fill="#F7F0E7"/>
<path d="M64.965 19.1195C59.2114 19.0993 56.3312 16.8999 53.5381 14.7815C50.8991 12.7711 48.4141 10.8753 43.3369 10.8551C43.3101 10.8551 43.29 10.8551 43.2632 10.8551C38.2397 10.8551 35.748 12.7239 33.1089 14.7006C30.3158 16.792 27.4357 18.9576 21.7356 18.9576C21.7088 18.9576 21.682 18.9576 21.6485 18.9576C15.8949 18.9373 13.008 16.738 10.2216 14.6196C7.58253 12.6092 5.09754 10.7134 0.0203857 10.6932L0.0270838 8.6355C5.78074 8.65574 8.66762 10.8551 11.454 12.9735C14.0931 14.9839 16.5848 16.8797 21.6552 16.8999C21.682 16.8999 21.7021 16.8999 21.7289 16.8999C26.7525 16.8999 29.2441 15.0311 31.8832 13.0544C34.6763 10.963 37.5565 8.79741 43.2565 8.79741C43.2833 8.79741 43.3101 8.79741 43.3436 8.79741C49.0973 8.81765 51.9774 11.017 54.7705 13.1354C57.4096 15.1458 59.8946 17.0416 64.9717 17.0618L64.965 19.1195Z" fill="#F7F0E7"/>
</svg>
