<svg width="25" height="18" viewBox="0 0 25 18" fill="none" xmlns="http://www.w3.org/2000/svg">
<path d="M24.4776 2.81639C24.1901 1.7078 23.3429 0.834703 22.2673 0.538406C20.3177 0 12.5 0 12.5 0C12.5 0 4.68232 0 2.73266 0.538406C1.65706 0.83475 0.80992 1.7078 0.522399 2.81639C0 4.82578 0 9.01819 0 9.01819C0 9.01819 0 13.2106 0.522399 15.22C0.80992 16.3286 1.65706 17.1653 2.73266 17.4616C4.68232 18 12.5 18 12.5 18C12.5 18 20.3177 18 22.2673 17.4616C23.3429 17.1653 24.1901 16.3286 24.4776 15.22C25 13.2106 25 9.01819 25 9.01819C25 9.01819 25 4.82578 24.4776 2.81639ZM9.94316 12.8246V5.2118L16.4772 9.01828L9.94316 12.8246Z" fill="#3F3C38"/>
</svg>
